Recursive Mono-Linear Medium.ufo
<glyph name="exclam" format="2">
  <advance width="600.0"/>
  <unicode hex="0021"/>
  <outline>
    <contour>
      <point x="340.4009433962264" y="268.0660377358491" type="line"/>
      <point x="348.45283018867923" y="344.76886792452825"/>
      <point x="356.50471698113205" y="415.20754716981133"/>
      <point x="364.55660377358487" y="493.22641509433964" type="curve"/>
      <point x="364.55660377358487" y="689.0" type="line" smooth="yes"/>
      <point x="364.55660377358487" y="696.0"/>
      <point x="359.9952830188679" y="700.0"/>
      <point x="353.55660377358487" y="700.0" type="curve"/>
      <point x="304.36792452830184" y="700.0"/>
      <point x="268.9858490566038" y="700.0"/>
      <point x="237.19811320754715" y="700.0" type="curve"/>
      <point x="237.19811320754715" y="662.0"/>
      <point x="237.19811320754715" y="627.0"/>
      <point x="237.19811320754715" y="590.0" type="curve" smooth="yes"/>
      <point x="237.19811320754715" y="493.22641509433964" type="line"/>
      <point x="258.3537735849057" y="280.57547169811323"/>
      <point x="259.3537735849057" y="275.0660377358491"/>
      <point x="262.91509433962267" y="271.0660377358491" type="curve" smooth="yes"/>
      <point x="264.91509433962267" y="269.0660377358491"/>
      <point x="266.91509433962267" y="268.0660377358491"/>
      <point x="270.91509433962267" y="268.0660377358491" type="curve"/>
    </contour>
    <component base="period"/>
  </outline>
</glyph>
<glyph name="parenleft" format="2">
  <advance width="600.0"/>
  <unicode hex="0028"/>
  <outline>
    <contour>
      <point x="373.21698113207543" y="746.3867924528302" type="curve" smooth="yes"/>
      <point x="254.66541237802736" y="627.835223698782"/>
      <point x="197.9009433962264" y="477.00694600801415"/>
      <point x="197.9009433962264" y="312.5424528301887" type="curve" smooth="yes"/>
      <point x="197.9009433962264" y="304.4198113207547" type="line" smooth="yes"/>
      <point x="197.9009433962264" y="141.23336110235377"/>
      <point x="255.1356327177708" y="-7.975255359280186"/>
      <point x="373.21698113207543" y="-126.0566037735849" type="curve" smooth="yes"/>
      <point x="379.4622641509434" y="-132.74056603773585"/>
      <point x="385.77830188679246" y="-134.0566037735849"/>
      <point x="393.21698113207543" y="-134.0566037735849" type="curve" smooth="yes"/>
      <point x="432.3474159146821" y="-134.0566037735849"/>
      <point x="467.9292452830189" y="-134.0566037735849"/>
      <point x="509.9952830188679" y="-134.0566037735849" type="curve"/>
      <point x="509.9952830188679" y="-117.56603773584905" type="line"/>
      <point x="381.0660377358491" y="4.363207547169813"/>
      <point x="315.25943396226415" y="142.27830188679246"/>
      <point x="315.25943396226415" y="304.4198113207547" type="curve" smooth="yes"/>
      <point x="315.25943396226415" y="312.5424528301887" type="line" smooth="yes"/>
      <point x="315.25943396226415" y="475.80660377358487"/>
      <point x="379.3820754716981" y="619.8962264150944"/>
      <point x="507.18867924528297" y="737.8962264150944" type="curve"/>
      <point x="507.18867924528297" y="754.3867924528302" type="line"/>
      <point x="466.2452830188679" y="754.3867924528302"/>
      <point x="431.35377358490564" y="754.3867924528302"/>
      <point x="393.21698113207543" y="754.3867924528302" type="curve" smooth="yes"/>
      <point x="385.77830188679246" y="754.3867924528302"/>
      <point x="379.4622641509434" y="753.0707547169811"/>
    </contour>
  </outline>
</glyph>
<glyph name="period" format="2">
  <advance width="600.0"/>
  <unicode hex="002E"/>
  <outline>
    <contour>
      <point x="383.3301886792453" y="-7.806603773584905" type="curve"/>
      <point x="383.3301886792453" y="146.09905660377356" type="line" smooth="yes"/>
      <point x="383.3301886792453" y="153.09905660377356"/>
      <point x="379.3301886792453" y="157.09905660377356"/>
      <point x="372.3301886792453" y="157.09905660377356" type="curve" smooth="yes"/>
      <point x="323.8066037735849" y="157.09905660377356"/>
      <point x="265.1933962264151" y="157.09905660377356"/>
      <point x="216.66981132075472" y="157.09905660377356" type="curve"/>
      <point x="216.66981132075472" y="3.193396226415094" type="line" smooth="yes"/>
      <point x="216.66981132075472" y="-3.806603773584906"/>
      <point x="220.66981132075472" y="-7.806603773584905"/>
      <point x="227.66981132075472" y="-7.806603773584905" type="curve" smooth="yes"/>
      <point x="276.1933962264151" y="-7.806603773584905"/>
      <point x="334.8066037735849" y="-7.806603773584905"/>
    </contour>
  </outline>
</glyph>
<glyph name="slash" format="2">
  <advance width="600.0"/>
  <unicode hex="002F"/>
  <outline>
    <contour>
      <point x="538.9622641509434" y="750.0" type="curve"/>
      <point x="503.438679245283" y="750.0"/>
      <point x="472.79245283018867" y="750.0"/>
      <point x="437.2688679245283" y="750.0" type="curve" smooth="yes"/>
      <point x="431.2688679245283" y="750.0"/>
      <point x="427.2688679245283" y="748.0"/>
      <point x="425.2688679245283" y="743.0" type="curve" smooth="yes"/>
      <point x="325.6367924528302" y="489.0"/>
      <point x="225.44339622641508" y="233.0"/>
      <point x="125.81132075471697" y="-21.0" type="curve" smooth="yes"/>
      <point x="111.81132075471697" y="-57.0"/>
      <point x="97.37264150943396" y="-94.0"/>
      <point x="82.93396226415095" y="-130.0" type="curve"/>
      <point x="118.89622641509433" y="-130.0"/>
      <point x="148.10377358490567" y="-130.0"/>
      <point x="183.62735849056605" y="-130.0" type="curve" smooth="yes"/>
      <point x="189.62735849056605" y="-130.0"/>
      <point x="195.62735849056605" y="-127.0"/>
      <point x="198.62735849056605" y="-119.0" type="curve"/>
      <point x="312.25943396226415" y="170.0"/>
      <point x="425.3301886792453" y="461.0"/>
    </contour>
  </outline>
</glyph>
<glyph name="three" format="2">
  <advance width="600.0"/>
  <unicode hex="0033"/>
  <outline>
    <contour>
      <point x="284.9481132075472" y="720.0" type="curve" smooth="yes"/>
      <point x="189.0188679245283" y="720.0"/>
      <point x="114.77358490566037" y="695.7358490566038"/>
      <point x="86.07075471698113" y="674.8915094339623" type="curve" smooth="yes"/>
      <point x="80.70283018867924" y="672.3301886792453"/>
      <point x="79.14150943396227" y="669.2075471698113"/>
      <point x="79.14150943396227" y="662.4009433962265" type="curve" smooth="yes"/>
      <point x="79.14150943396227" y="650.2075471698113"/>
      <point x="79.14150943396227" y="582.6367924528302"/>
      <point x="79.14150943396227" y="570.4433962264151" type="curve"/>
      <point x="95.63207547169812" y="570.4433962264151" type="line"/>
      <point x="154.94811320754718" y="601.9198113207547"/>
      <point x="200.58018867924528" y="615.183962264151"/>
      <point x="281.5801886792453" y="615.183962264151" type="curve" smooth="yes"/>
      <point x="379.47641509433964" y="615.183962264151"/>
      <point x="421.14622641509436" y="576.0943396226415"/>
      <point x="421.14622641509436" y="524.1084905660377" type="curve" smooth="yes"/>
      <point x="421.14622641509436" y="516.4056603773585" type="line" smooth="yes"/>
      <point x="421.14622641509436" y="451.10377358490564"/>
      <point x="368.561320754717" y="406.5047169811321"/>
      <point x="160.08962264150944" y="406.5047169811321" type="curve"/>
      <point x="160.08962264150944" y="395.62735849056605"/>
      <point x="160.08962264150944" y="329.1792452830189"/>
      <point x="160.08962264150944" y="318.3018867924528" type="curve" smooth="yes"/>
      <point x="160.08962264150944" y="310.74056603773585"/>
      <point x="164.08962264150944" y="307.3018867924528"/>
      <point x="171.08962264150944" y="307.3018867924528" type="curve" smooth="yes"/>
      <point x="357.8066037735849" y="307.3018867924528"/>
      <point x="430.70754716981133" y="269.8443396226415"/>
      <point x="430.70754716981133" y="195.3490566037736" type="curve"/>
      <point x="430.70754716981133" y="184.64622641509433" type="line"/>
      <point x="430.70754716981133" y="122.95754716981133"/>
      <point x="379.89622641509436" y="84.81603773584905"/>
      <point x="279.3867924528302" y="84.81603773584905" type="curve" smooth="yes"/>
      <point x="190.26415094339623" y="84.81603773584905"/>
      <point x="141.38679245283018" y="96.95754716981133"/>
      <point x="80.01886792452831" y="133.67924528301887" type="curve"/>
      <point x="63.52830188679245" y="133.67924528301887" type="line"/>
      <point x="63.52830188679245" y="121.04716981132076"/>
      <point x="63.52830188679245" y="46.721698113207545"/>
      <point x="63.52830188679245" y="38.0377358490566" type="curve" smooth="yes"/>
      <point x="63.52830188679245" y="31.037735849056602"/>
      <point x="65.08962264150944" y="27.35377358490566"/>
      <point x="71.08962264150944" y="23.037735849056602" type="curve" smooth="yes"/>
      <point x="98.10849056603773" y="2.070754716981132"/>
      <point x="180.70283018867926" y="-20.0"/>
      <point x="282.3160377358491" y="-20.0" type="curve" smooth="yes"/>
      <point x="443.561320754717" y="-20.0"/>
      <point x="538.5943396226415" y="54.2122641509434"/>
      <point x="538.5943396226415" y="167.3679245283019" type="curve"/>
      <point x="538.5943396226415" y="195.41981132075472" type="line"/>
      <point x="538.5943396226415" y="269.54245283018867"/>
      <point x="486.54245283018867" y="334.0"/>
      <point x="341.3490566037736" y="355.561320754717" type="curve"/>
      <point x="369.91037735849056" y="326.6839622641509" type="line"/>
      <point x="369.91037735849056" y="391.3679245283019" type="line"/>
      <point x="341.3490566037736" y="361.49056603773585" type="line"/>
      <point x="476.91037735849056" y="385.17452830188677"/>
      <point x="528.5943396226415" y="442.45754716981133"/>
      <point x="528.5943396226415" y="530.9292452830189" type="curve" smooth="yes"/>
      <point x="528.5943396226415" y="551.683962264151" type="line" smooth="yes"/>
      <point x="528.5943396226415" y="649.3490566037735"/>
      <point x="439.2641509433962" y="720.0"/>
    </contour>
  </outline>
</glyph>
<glyph name="question" format="2">
  <advance width="600.0"/>
  <unicode hex="003F"/>
  <outline>
    <contour>
      <point x="365.08490566037733" y="-7.806603773584905" type="curve"/>
      <point x="365.08490566037733" y="140.48584905660377" type="line" smooth="yes"/>
      <point x="365.08490566037733" y="147.48584905660377"/>
      <point x="361.08490566037733" y="151.48584905660377"/>
      <point x="354.08490566037733" y="151.48584905660377" type="curve" smooth="yes"/>
      <point x="305.561320754717" y="151.48584905660377"/>
      <point x="246.94811320754718" y="151.48584905660377"/>
      <point x="198.4245283018868" y="151.48584905660377" type="curve"/>
      <point x="198.4245283018868" y="3.193396226415094" type="line" smooth="yes"/>
      <point x="198.4245283018868" y="-3.806603773584906"/>
      <point x="202.4245283018868" y="-7.806603773584905"/>
      <point x="209.4245283018868" y="-7.806603773584905" type="curve" smooth="yes"/>
      <point x="257.9481132075472" y="-7.806603773584905"/>
      <point x="316.561320754717" y="-7.806603773584905"/>
    </contour>
    <contour>
      <point x="296.6320754716981" y="720.0" type="curve" smooth="yes"/>
      <point x="201.96698113207546" y="720.0"/>
      <point x="118.0377358490566" y="694.3679245283018"/>
      <point x="86.63207547169812" y="662.9622641509434" type="curve" smooth="yes"/>
      <point x="84.07075471698113" y="660.4009433962265"/>
      <point x="83.07075471698113" y="657.8396226415094"/>
      <point x="83.07075471698113" y="653.2783018867924" type="curve" smooth="yes"/>
      <point x="83.07075471698113" y="620.316037735849"/>
      <point x="83.07075471698113" y="588.3537735849056"/>
      <point x="83.07075471698113" y="555.3915094339623" type="curve"/>
      <point x="99.56132075471699" y="555.3915094339623" type="line"/>
      <point x="162.70283018867926" y="599.2358490566038"/>
      <point x="222.07075471698113" y="615.183962264151"/>
      <point x="296.0707547169811" y="615.183962264151" type="curve" smooth="yes"/>
      <point x="368.9009433962264" y="615.183962264151"/>
      <point x="405.5" y="594.8301886792453"/>
      <point x="412.79716981132077" y="556.438679245283" type="curve"/>
      <point x="417.8490566037736" y="548.561320754717"/>
      <point x="419.5330188679245" y="539.0"/>
      <point x="419.5330188679245" y="528.316037735849" type="curve" smooth="yes"/>
      <point x="419.5330188679245" y="489.8066037735849"/>
      <point x="406.95283018867923" y="475.66509433962267"/>
      <point x="351.07547169811323" y="437.22641509433964" type="curve" smooth="yes"/>
      <point x="318.8632075471698" y="415.08490566037733" type="line" smooth="yes"/>
      <point x="242.86320754716982" y="362.9622641509434"/>
      <point x="223.0566037735849" y="330.9622641509434"/>
      <point x="223.0566037735849" y="274.08490566037733" type="curve" smooth="yes"/>
      <point x="223.0566037735849" y="255.9811320754717" type="line" smooth="yes"/>
      <point x="223.0566037735849" y="247.85849056603774"/>
      <point x="226.49528301886792" y="244.9811320754717"/>
      <point x="234.0566037735849" y="244.9811320754717" type="curve" smooth="yes"/>
      <point x="330.311320754717" y="244.9811320754717" type="line"/>
      <point x="330.311320754717" y="252.29716981132074" type="line" smooth="yes"/>
      <point x="330.311320754717" y="292.3160377358491"/>
      <point x="338.5566037735849" y="305.6320754716981"/>
      <point x="392.0330188679245" y="342.0377358490566" type="curve" smooth="yes"/>
      <point x="428.7358490566038" y="366.8632075471698" type="line" smooth="yes"/>
      <point x="503.1556603773585" y="416.79245283018867"/>
      <point x="525.6650943396227" y="455.2122641509434"/>
      <point x="525.6650943396227" y="525.9481132075472" type="curve" smooth="yes"/>
      <point x="525.6650943396227" y="556.5094339622641" type="line" smooth="yes"/>
      <point x="525.6650943396227" y="645.2122641509434"/>
      <point x="454.0330188679245" y="720.0"/>
    </contour>
  </outline>
</glyph>
<glyph name="at" format="2">
  <advance width="600.0"/>
  <unicode hex="0040"/>
  <outline>
    <contour>
      <point x="300.0" y="714.6132075471697" type="curve" smooth="yes"/>
      <point x="155.77358490566039" y="714.6132075471697"/>
      <point x="61.23113207547169" y="639.2075471698113"/>
      <point x="61.23113207547169" y="489.22641509433964" type="curve" smooth="yes"/>
      <point x="61.23113207547169" y="50.160377358490564" type="line" smooth="yes"/>
      <point x="61.23113207547169" y="-94.20754716981133"/>
      <point x="155.77358490566039" y="-169.61320754716982"/>
      <point x="300.0" y="-169.61320754716982" type="curve" smooth="yes"/>
      <point x="403.12264150943395" y="-169.61320754716982"/>
      <point x="459.29716981132077" y="-146.3490566037736"/>
      <point x="468.9811320754717" y="-136.66509433962264" type="curve" smooth="yes"/>
      <point x="473.9811320754717" y="-131.66509433962264"/>
      <point x="474.9811320754717" y="-129.66509433962264"/>
      <point x="474.9811320754717" y="-122.66509433962264" type="curve" smooth="yes"/>
      <point x="474.9811320754717" y="-44.95283018867924" type="line"/>
      <point x="458.49056603773585" y="-44.95283018867924" type="line"/>
      <point x="412.4905660377359" y="-64.4622641509434"/>
      <point x="360.6320754716981" y="-73.21698113207547"/>
      <point x="300.0" y="-73.21698113207547" type="curve" smooth="yes"/>
      <point x="241.14150943396228" y="-73.21698113207547"/>
      <point x="195.52830188679246" y="-60.58490566037735"/>
      <point x="167.52830188679243" y="-32.58490566037736" type="curve" smooth="yes"/>
      <point x="142.50943396226415" y="-7.566037735849054"/>
      <point x="130.87735849056605" y="26.20754716981132"/>
      <point x="130.87735849056605" y="72.49056603773585" type="curve" smooth="yes"/>
      <point x="130.87735849056605" y="472.50943396226415" type="line" smooth="yes"/>
      <point x="130.87735849056605" y="566.7405660377358"/>
      <point x="190.87735849056602" y="618.2169811320755"/>
      <point x="300.0" y="618.2169811320755" type="curve" smooth="yes"/>
      <point x="362.7877358490566" y="618.2169811320755"/>
      <point x="404.7169811320755" y="604.7783018867924"/>
      <point x="432.4716981132076" y="577.0235849056604" type="curve" smooth="yes"/>
      <point x="457.6132075471698" y="551.8820754716982"/>
      <point x="469.122641509434" y="517.9858490566037"/>
      <point x="469.122641509434" y="473.3867924528302" type="curve" smooth="yes"/>
      <point x="469.122641509434" y="146.50943396226415" type="line" smooth="yes"/>
      <point x="469.122641509434" y="105.27830188679246"/>
      <point x="453.3490566037736" y="88.06603773584905"/>
      <point x="418.94339622641513" y="88.06603773584905" type="curve"/>
      <point x="411.89150943396226" y="88.06603773584905" type="line"/>
      <point x="392.83962264150944" y="88.06603773584905"/>
      <point x="385.9622641509434" y="96.06603773584906"/>
      <point x="385.9622641509434" y="116.24056603773585" type="curve" smooth="yes"/>
      <point x="385.9622641509434" y="214.01415094339623"/>
      <point x="385.9622641509434" y="393.66509433962267"/>
      <point x="385.9622641509434" y="489.0" type="curve" smooth="yes"/>
      <point x="385.9622641509434" y="496.0"/>
      <point x="381.9622641509434" y="500.0"/>
      <point x="374.9622641509434" y="500.0" type="curve" smooth="yes"/>
      <point x="330.2641509433962" y="500.0" type="line"/>
      <point x="318.9481132075471" y="472.14150943396226"/>
      <point x="303.50943396226415" y="432.2311320754717"/>
      <point x="303.50943396226415" y="431.2311320754717" type="curve" smooth="yes"/>
      <point x="303.50943396226415" y="327.438679245283"/>
      <point x="303.50943396226415" y="236.49056603773587"/>
      <point x="303.50943396226415" y="136.08490566037736" type="curve" smooth="yes"/>
      <point x="303.50943396226415" y="64.47169811320755"/>
      <point x="335.7877358490566" y="26.22641509433962"/>
      <point x="403.66509433962267" y="26.22641509433962" type="curve" smooth="yes"/>
      <point x="419.3301886792453" y="26.22641509433962" type="line" smooth="yes"/>
      <point x="495.0849056603774" y="26.22641509433962"/>
      <point x="538.7688679245283" y="70.68396226415095"/>
      <point x="538.7688679245283" y="144.82547169811318" type="curve" smooth="yes"/>
      <point x="538.7688679245283" y="489.22641509433964" type="line" smooth="yes"/>
      <point x="538.7688679245283" y="639.2075471698114"/>
      <point x="444.7877358490566" y="714.6132075471697"/>
    </contour>
    <contour>
      <point x="256.0188679245283" y="26.66509433962264" type="curve" smooth="yes"/>
      <point x="277.5801886792453" y="26.66509433962264"/>
      <point x="294.5094339622641" y="37.66509433962265"/>
      <point x="301.0707547169811" y="71.40094339622642" type="curve"/>
      <point x="362.3820754716981" y="71.40094339622642" type="line"/>
      <point x="362.38207547169816" y="128.78301886792454" type="line"/>
      <point x="331.7169811320755" y="128.7830188679245"/>
      <point x="327.2641509433962" y="128.78301886792454"/>
      <point x="308.3867924528302" y="128.78301886792454" type="curve" smooth="yes"/>
      <point x="307.3867924528302" y="128.78301886792454"/>
      <point x="306.3867924528302" y="129.7830188679245"/>
      <point x="306.3867924528302" y="130.7830188679245" type="curve" smooth="yes"/>
      <point x="306.3867924528302" y="403.07547169811323" type="line" smooth="yes"/>
      <point x="306.3867924528302" y="404.07547169811323"/>
      <point x="307.3867924528302" y="405.07547169811323"/>
      <point x="308.3867924528302" y="405.07547169811323" type="curve" smooth="yes"/>
      <point x="326.0707547169811" y="405.07547169811323"/>
      <point x="341.7877358490566" y="405.07547169811323"/>
      <point x="366.3301886792453" y="405.0754716981132" type="curve"/>
      <point x="362.3820754716981" y="461.3867924528302" type="line"/>
      <point x="301.0707547169811" y="461.3867924528302" type="line"/>
      <point x="294.50943396226415" y="488.9481132075472"/>
      <point x="277.5801886792453" y="505.0"/>
      <point x="256.0188679245283" y="505.0" type="curve"/>
      <point x="232.77358490566039" y="505.0"/>
      <point x="214.0377358490566" y="488.877358490566"/>
      <point x="214.0377358490566" y="452.5283018867924" type="curve" smooth="yes"/>
      <point x="214.0377358490566" y="80.25943396226415" type="line" smooth="yes"/>
      <point x="214.0377358490566" y="43.34905660377359"/>
      <point x="232.77358490566039" y="26.66509433962264"/>
    </contour>
  </outline>
</glyph>
<glyph name="A" format="2">
  <advance width="600.0"/>
  <unicode hex="0041"/>
  <anchor x="578.561320754717" y="0.0" name="ogonek"/>
  <anchor x="300.0" y="711.0" name="top"/>
  <anchor x="300.0" y="700.0" name="ring"/>
  <anchor x="300.0" y="-1.0" name="bottom"/>
  <anchor x="300.0" y="730.0" name="hook"/>
  <outline>
    <contour>
      <point x="142.85849056603774" y="278.6839622641509" type="line"/>
      <point x="141.73584905660377" y="196.0943396226415" type="line" smooth="yes"/>
      <point x="141.73584905660377" y="189.0943396226415"/>
      <point x="145.73584905660377" y="185.0943396226415"/>
      <point x="152.73584905660377" y="185.0943396226415" type="curve"/>
      <point x="450.3537735849057" y="185.0943396226415" type="line"/>
      <point x="428.12735849056605" y="288.12264150943395" type="line"/>
      <point x="397.70754716981133" y="278.6839622641509" type="line"/>
      <point x="380.97169811320754" y="278.6839622641509"/>
      <point x="363.79716981132077" y="278.6839622641509"/>
      <point x="347.061320754717" y="278.6839622641509" type="curve"/>
    </contour>
    <contour>
      <point x="131.88679245283018" y="0.0" type="curve"/>
      <point x="206.81603773584905" y="295.2877358490566"/>
      <point x="263.3301886792453" y="486.127358490566"/>
      <point x="292.12264150943395" y="626.4103773584906" type="curve"/>
      <point x="267.1415094339623" y="607.5518867924529" type="line"/>
      <point x="331.7877358490566" y="607.5518867924529" type="line"/>
      <point x="306.80660377358487" y="626.8490566037736" type="line"/>
      <point x="336.35377358490564" y="485.688679245283"/>
      <point x="391.99056603773585" y="300.5518867924529"/>
      <point x="465.23584905660374" y="14.070754716981131" type="curve" smooth="yes"/>
      <point x="468.5518867924528" y="3.438679245283019"/>
      <point x="471.1132075471698" y="0.0"/>
      <point x="477.99056603773585" y="0.0" type="curve" smooth="yes"/>
      <point x="511.51415094339615" y="0.0"/>
      <point x="544.0377358490566" y="0.0"/>
      <point x="577.561320754717" y="0.0" type="curve"/>
      <point x="568.316037735849" y="38.52358490566038"/>
      <point x="558.3867924528303" y="75.9245283018868"/>
      <point x="548.5801886792452" y="112.20283018867926" type="curve" smooth="yes"/>
      <point x="491.9292452830189" y="324.64150943396226"/>
      <point x="438.20754716981133" y="520.8018867924528"/>
      <point x="389.41509433962267" y="693.3867924528302" type="curve"/>
      <point x="388.85377358490564" y="700.3867924528302"/>
      <point x="384.8537735849057" y="704.3867924528302"/>
      <point x="377.85377358490564" y="704.3867924528302" type="curve"/>
      <point x="328.3490566037736" y="704.3867924528302"/>
      <point x="271.1415094339623" y="704.3867924528302"/>
      <point x="211.26886792452828" y="704.3867924528302" type="curve"/>
      <point x="165.89622641509436" y="544.2358490566038"/>
      <point x="69.75943396226415" y="162.9245283018868"/>
      <point x="26.754716981132074" y="13.43867924528302" type="curve" smooth="yes"/>
      <point x="24.754716981132074" y="4.754716981132075"/>
      <point x="28.561320754716984" y="0.0"/>
      <point x="36.070754716981135" y="0.0" type="curve" smooth="yes"/>
      <point x="68.15566037735849" y="0.0"/>
      <point x="99.36320754716982" y="0.0"/>
    </contour>
  </outline>
</glyph>
<glyph name="O" format="2">
  <advance width="600.0"/>
  <unicode hex="004F"/>
  <anchor x="300.0" y="711.0" name="top"/>
  <anchor x="300.0" y="-1.0" name="bottom"/>
  <anchor x="445.10377358490564" y="677.877358490566" name="horn"/>
  <anchor x="300.0" y="730.0" name="hook"/>
  <anchor x="262.0" y="714.0" name="tildeviet"/>
  <anchor x="504.34905660377353" y="79.22641509433963" name="ogonek"/>
  <outline>
    <contour>
      <point x="300.0" y="720.0" type="curve" smooth="yes"/>
      <point x="156.89622641509436" y="720.0"/>
      <point x="60.26415094339623" y="637.3867924528303"/>
      <point x="60.26415094339623" y="478.75471698113205" type="curve" smooth="yes"/>
      <point x="60.26415094339623" y="221.24528301886792" type="line" smooth="yes"/>
      <point x="60.26415094339623" y="62.613207547169814"/>
      <point x="156.89622641509436" y="-20.0"/>
      <point x="300.0" y="-20.0" type="curve" smooth="yes"/>
      <point x="443.10377358490564" y="-20.0"/>
      <point x="539.7358490566037" y="62.4336708676184"/>
      <point x="539.7358490566037" y="221.24528301886792" type="curve" smooth="yes"/>
      <point x="539.7358490566037" y="478.75471698113205" type="line" smooth="yes"/>
      <point x="539.7358490566037" y="637.3867924528303"/>
      <point x="443.10377358490564" y="720.0"/>
    </contour>
    <contour>
      <point x="166.39622641509433" y="223.43867924528303" type="curve" smooth="yes"/>
      <point x="166.39622641509433" y="476.561320754717" type="line" smooth="yes"/>
      <point x="166.39622641509433" y="568.0566037735849"/>
      <point x="207.99528301886792" y="623.6037735849056"/>
      <point x="300.0" y="623.6037735849056" type="curve" smooth="yes"/>
      <point x="345.2315708644071" y="623.6037735849056"/>
      <point x="375.0247975536868" y="611.2519196033354"/>
      <point x="396.63679245283015" y="590.0754716981132" type="curve"/>
      <point x="422.1953039287854" y="564.9462584969033"/>
      <point x="433.60377358490564" y="524.1233426823061"/>
      <point x="433.60377358490564" y="476.561320754717" type="curve" smooth="yes"/>
      <point x="433.60377358490564" y="223.43867924528303" type="line" smooth="yes"/>
      <point x="433.60377358490564" y="131.9433962264151"/>
      <point x="392.00471698113205" y="76.39622641509435"/>
      <point x="300.0" y="76.39622641509435" type="curve" smooth="yes"/>
      <point x="254.76842913559295" y="76.39622641509435"/>
      <point x="224.50471698113208" y="89.22169811320755"/>
      <point x="203.36320754716982" y="109.9245283018868" type="curve" smooth="yes"/>
      <point x="177.3443396226415" y="135.50471698113208"/>
      <point x="166.39622641509433" y="175.86607142858398"/>
    </contour>
  </outline>
</glyph>
<glyph name="Q" format="2">
  <advance width="600.0"/>
  <unicode hex="0051"/>
  <outline>
    <contour>
      <point x="426.3820754716981" y="82.22169811320755" type="curve"/>
      <point x="336.4245283018868" y="38.820754716981135" type="line"/>
      <point x="362.74056603773585" y="-4.231132075471695"/>
      <point x="385.5660377358491" y="-42.66981132075472"/>
      <point x="411.8820754716981" y="-85.72169811320754" type="curve" smooth="yes"/>
      <point x="438.688679245283" y="-132.1933962264151"/>
      <point x="465.6179245283019" y="-147.19339622641508"/>
      <point x="523.5801886792452" y="-147.19339622641508" type="curve" smooth="yes"/>
      <point x="534.3867924528302" y="-147.19339622641508"/>
      <point x="549.5613207547169" y="-147.19339622641508"/>
      <point x="558.122641509434" y="-147.19339622641508" type="curve" smooth="yes"/>
      <point x="565.122641509434" y="-147.19339622641508"/>
      <point x="569.122641509434" y="-143.19339622641508"/>
      <point x="569.122641509434" y="-136.19339622641508" type="curve" smooth="yes"/>
      <point x="569.122641509434" y="-104.66981132075472"/>
      <point x="569.122641509434" y="-81.00471698113206"/>
      <point x="569.122641509434" y="-49.4811320754717" type="curve"/>
      <point x="553.5094339622641" y="-49.4811320754717" type="line"/>
      <point x="548.5094339622641" y="-49.4811320754717"/>
      <point x="544.1933962264151" y="-49.4811320754717"/>
      <point x="537.438679245283" y="-49.4811320754717" type="curve" smooth="yes"/>
      <point x="519.4905660377358" y="-49.4811320754717"/>
      <point x="510.4198113207547" y="-45.72641509433962"/>
      <point x="496.4716981132076" y="-25.655660377358483" type="curve"/>
      <point x="471.83962264150944" y="12.028301886792459"/>
      <point x="451.01415094339626" y="44.53773584905661"/>
    </contour>
    <component base="O"/>
  </outline>
</glyph>
<glyph name="R" format="2">
  <advance width="600.0"/>
  <unicode hex="0052"/>
  <anchor x="297.8066037735849" y="711.0" name="top"/>
  <anchor x="297.8066037735849" y="-1.0" name="bottom"/>
  <outline>
    <contour>
      <point x="378.3632075471698" y="324.14150943396226" type="curve"/>
      <point x="285.52830188679246" y="281.6179245283019" type="line"/>
      <point x="322.16037735849056" y="210.91509433962264"/>
      <point x="358.10849056603774" y="139.6509433962264"/>
      <point x="394.74056603773585" y="68.94811320754717" type="curve" smooth="yes"/>
      <point x="422.3018867924528" y="15.702830188679245"/>
      <point x="453.42452830188677" y="0.0"/>
      <point x="512.7028301886793" y="0.0" type="curve" smooth="yes"/>
      <point x="524.3867924528302" y="0.0"/>
      <point x="539.561320754717" y="0.0"/>
      <point x="549.0" y="0.0" type="curve" smooth="yes"/>
      <point x="556.0" y="0.0"/>
      <point x="560.0" y="4.0"/>
      <point x="560.0" y="11.0" type="curve" smooth="yes"/>
      <point x="560.0" y="41.9622641509434"/>
      <point x="560.0" y="65.43396226415095"/>
      <point x="560.0" y="96.39622641509435" type="curve"/>
      <point x="544.3867924528302" y="96.39622641509435" type="line"/>
      <point x="539.3867924528302" y="96.39622641509435"/>
      <point x="535.0707547169811" y="96.39622641509435"/>
      <point x="528.316037735849" y="96.39622641509435" type="curve" smooth="yes"/>
      <point x="508.6132075471698" y="96.39622641509435"/>
      <point x="497.66509433962267" y="103.58962264150944"/>
      <point x="484.1556603773585" y="128.60849056603774" type="curve"/>
      <point x="447.7688679245283" y="196.25943396226415"/>
      <point x="415.311320754717" y="255.92924528301887"/>
    </contour>
    <contour>
      <point x="30.0" y="700.0" type="curve"/>
      <point x="30.0" y="670.0377358490566"/>
      <point x="30.0" y="644.566037735849"/>
      <point x="30.0" y="614.6037735849056" type="curve"/>
      <point x="30.0" y="607.6037735849056"/>
      <point x="34.0" y="603.6037735849056"/>
      <point x="41.0" y="603.6037735849056" type="curve" smooth="yes"/>
      <point x="131.1725292838467" y="603.6037735849056"/>
      <point x="221.87735849056602" y="603.6037735849056"/>
      <point x="312.1933962264151" y="603.6037735849056" type="curve"/>
      <point x="349.72979017566837" y="603.6037735849056"/>
      <point x="375.20773780433535" y="594.25924332774"/>
      <point x="392.07547169811323" y="577.3915094339623" type="curve" smooth="yes"/>
      <point x="408.7563186023731" y="561.1674589906655"/>
      <point x="416.41037735849056" y="536.3537735849056"/>
      <point x="416.41037735849056" y="505.14150943396226" type="curve" smooth="yes"/>
      <point x="416.41037735849056" y="451.37264150943395" type="line" smooth="yes"/>
      <point x="416.41037735849056" y="386.1933962264151"/>
      <point x="382.5660377358491" y="352.91037735849056"/>
      <point x="312.1933962264151" y="352.91037735849056" type="curve"/>
      <point x="265.7877358490566" y="352.91037735849056"/>
      <point x="219.3820754716981" y="352.91037735849056"/>
      <point x="172.97641509433964" y="352.91037735849056" type="curve"/>
      <point x="172.97641509433964" y="252.56603773584905" type="line" smooth="yes"/>
      <point x="183.97641509433964" y="259.3207547169811" type="line"/>
      <point x="230.18867924528303" y="259.3207547169811"/>
      <point x="277.9622641509434" y="259.3207547169811"/>
      <point x="324.17452830188677" y="259.3207547169811" type="curve" smooth="yes"/>
      <point x="450.4198113207547" y="259.3207547169811"/>
      <point x="526.2264150943396" y="331.5660377358491"/>
      <point x="526.2264150943396" y="450.74056603773585" type="curve" smooth="yes"/>
      <point x="526.2264150943396" y="501.8443396226415" type="line" smooth="yes"/>
      <point x="526.2264150943396" y="624.1415094339623"/>
      <point x="459.7169811320755" y="700.0"/>
      <point x="310.14150943396226" y="700.0" type="curve"/>
      <point x="216.94811320754718" y="700.0"/>
      <point x="123.19339622641509" y="700.0"/>
    </contour>
    <contour>
      <point x="194.9056603773585" y="0.0" type="curve"/>
      <point x="194.9056603773585" y="29.754716981132077"/>
      <point x="194.9056603773585" y="63.31603773584906"/>
      <point x="194.9056603773585" y="98.87735849056604" type="curve"/>
      <point x="194.9056603773585" y="226.47169811320754"/>
      <point x="194.9056603773585" y="337.91037735849056"/>
      <point x="194.9056603773585" y="458.7688679245283" type="curve"/>
      <point x="194.9056603773585" y="512.1933962264151"/>
      <point x="194.9056603773585" y="566.7405660377358"/>
      <point x="194.9056603773585" y="622.4103773584906" type="curve" smooth="yes"/>
      <point x="206.9056603773585" y="644.0754716981132" type="line"/>
      <point x="85.96698113207547" y="644.0754716981132" type="line"/>
      <point x="85.96698113207547" y="427.25"/>
      <point x="85.96698113207547" y="227.8254716981132"/>
      <point x="85.96698113207547" y="11.0" type="curve" smooth="yes"/>
      <point x="85.96698113207547" y="4.0"/>
      <point x="89.96698113207547" y="0.0"/>
      <point x="96.96698113207547" y="0.0" type="curve" smooth="yes"/>
      <point x="130.73584905660377" y="0.0"/>
      <point x="161.13679245283018" y="0.0"/>
    </contour>
  </outline>
</glyph>
<glyph name="W" format="2">
  <advance width="600.0"/>
  <unicode hex="0057"/>
  <anchor x="298.561320754717" y="711.0" name="top"/>
  <outline>
    <contour>
      <point x="21.702830188679247" y="700.0" type="curve"/>
      <point x="25.580188679245282" y="667.8066037735849"/>
      <point x="30.457547169811317" y="629.4198113207548"/>
      <point x="33.0188679245283" y="602.6320754716982" type="curve" smooth="yes"/>
      <point x="57.26415094339623" y="397.2877358490566"/>
      <point x="91.94811320754717" y="111.61320754716981"/>
      <point x="106.66981132075472" y="7.806603773584905" type="curve" smooth="yes"/>
      <point x="107.2311320754717" y="1.367924528301887"/>
      <point x="111.23113207547169" y="-2.632075471698113"/>
      <point x="117.66981132075472" y="-2.632075471698113" type="curve" smooth="yes"/>
      <point x="156.8254716981132" y="-2.632075471698113"/>
      <point x="195.22641509433961" y="-2.632075471698113"/>
      <point x="235.18867924528303" y="-2.632075471698113" type="curve"/>
      <point x="250.91037735849056" y="84.97641509433961"/>
      <point x="277.29716981132077" y="262.83490566037733"/>
      <point x="296.9481132075472" y="488.3820754716981" type="curve"/>
      <point x="267.87735849056605" y="450.66037735849056" type="line"/>
      <point x="333.80660377358487" y="450.66037735849056" type="line"/>
      <point x="304.73584905660374" y="488.82075471698107" type="line"/>
      <point x="325.2641509433962" y="256.816037735849"/>
      <point x="350.89622641509436" y="84.66037735849056"/>
      <point x="364.74056603773585" y="8.367924528301888" type="curve" smooth="yes"/>
      <point x="365.3018867924528" y="1.367924528301887"/>
      <point x="369.3018867924528" y="-2.632075471698113"/>
      <point x="375.74056603773585" y="-2.632075471698113" type="curve" smooth="yes"/>
      <point x="413.7735849056604" y="-2.632075471698113"/>
      <point x="452.0518867924528" y="-2.632075471698113"/>
      <point x="490.89150943396226" y="-2.632075471698113" type="curve"/>
      <point x="519.4009433962265" y="227.24528301886792"/>
      <point x="560.2594339622641" y="571.3160377358491"/>
      <point x="576.4198113207548" y="684.561320754717" type="curve"/>
      <point x="577.8584905660377" y="694.561320754717"/>
      <point x="574.2971698113208" y="700.0"/>
      <point x="565.8584905660377" y="700.0" type="curve"/>
      <point x="535.1415094339623" y="700.0"/>
      <point x="506.98584905660374" y="700.0"/>
      <point x="476.2688679245283" y="700.0" type="curve"/>
      <point x="458.1792452830189" y="501.8207547169811"/>
      <point x="442.7735849056604" y="359.21226415094344"/>
      <point x="428.9481132075472" y="83.57075471698113" type="curve"/>
      <point x="450.561320754717" y="98.58962264150944" type="line"/>
      <point x="396.2830188679245" y="98.58962264150944" type="line"/>
      <point x="415.08962264150944" y="84.44811320754718" type="line"/>
      <point x="394.2641509433962" y="257.41509433962267"/>
      <point x="366.0707547169811" y="477.5330188679245"/>
      <point x="350.47169811320754" y="573.5990566037735" type="curve"/>
      <point x="349.0330188679245" y="581.0377358490566"/>
      <point x="344.03301886792457" y="584.1603773584906"/>
      <point x="338.47169811320754" y="584.1603773584906" type="curve"/>
      <point x="254.08962264150944" y="584.1603773584906" type="line"/>
      <point x="229.87735849056605" y="425.83962264150944"/>
      <point x="206.1745283018868" y="256.97641509433964"/>
      <point x="186.96226415094338" y="81.81603773584905" type="curve"/>
      <point x="206.52358490566039" y="98.58962264150944" type="line"/>
      <point x="154.0" y="98.58962264150944" type="line"/>
      <point x="173.9811320754717" y="80.06132075471699" type="line"/>
      <point x="160.47169811320754" y="349.08962264150944"/>
      <point x="140.45283018867926" y="574.1415094339623"/>
      <point x="126.16981132075473" y="686.438679245283" type="curve" smooth="yes"/>
      <point x="125.60849056603774" y="694.561320754717"/>
      <point x="121.04716981132076" y="699.122641509434"/>
      <point x="113.48584905660377" y="699.122641509434" type="curve" smooth="yes"/>
      <point x="82.33018867924528" y="700.0"/>
      <point x="52.85849056603773" y="700.0"/>
    </contour>
  </outline>
</glyph>
<glyph name="Y" format="2">
  <advance width="600.0"/>
  <unicode hex="0059"/>
  <anchor x="300.0" y="711.0" name="top"/>
  <anchor x="301.12264150943395" y="-158.83962264150944" name="dot"/>
  <anchor x="300.0" y="730.0" name="hook"/>
  <anchor x="300.0" y="-1.0" name="bottom"/>
  <outline>
    <contour>
      <point x="355.87264150943395" y="0.0" type="curve"/>
      <point x="355.87264150943395" y="32.56132075471698"/>
      <point x="355.87264150943395" y="66.12264150943396"/>
      <point x="355.87264150943395" y="100.0" type="curve"/>
      <point x="355.87264150943395" y="166.07075471698113"/>
      <point x="355.87264150943395" y="242.70283018867926"/>
      <point x="355.87264150943395" y="308.77358490566036" type="curve"/>
      <point x="244.12735849056605" y="308.77358490566036" type="line"/>
      <point x="244.12735849056605" y="211.38679245283018"/>
      <point x="244.12735849056605" y="108.38679245283019"/>
      <point x="244.12735849056605" y="11.0" type="curve" smooth="yes"/>
      <point x="244.12735849056605" y="4.0"/>
      <point x="248.12735849056605" y="0.0"/>
      <point x="255.12735849056602" y="0.0" type="curve" smooth="yes"/>
      <point x="288.8962264150943" y="0.0"/>
      <point x="322.10377358490564" y="0.0"/>
    </contour>
    <contour>
      <point x="26.40566037735849" y="700.0" type="curve"/>
      <point x="100.35377358490565" y="552.7028301886793"/>
      <point x="209.22641509433964" y="330.627358490566"/>
      <point x="249.49528301886792" y="257.4245283018868" type="curve"/>
      <point x="254.74056603773587" y="248.24999999999997"/>
      <point x="260.05660377358487" y="247.81132075471697"/>
      <point x="345.6981132075472" y="247.81132075471697" type="curve"/>
      <point x="419.82772343038397" y="393.8575976495571"/>
      <point x="494.4009433962264" y="540.3349056603773"/>
      <point x="566.9103773584906" y="685.316037735849" type="curve"/>
      <point x="571.0330188679245" y="693.438679245283"/>
      <point x="565.4716981132076" y="700.0"/>
      <point x="558.6650943396227" y="700.0" type="curve"/>
      <point x="524.4575471698114" y="700.0"/>
      <point x="490.933962264151" y="700.0"/>
      <point x="455.6037735849057" y="700.0" type="curve"/>
      <point x="382.75943396226415" y="537.5094339622642"/>
      <point x="356.10849056603774" y="479.0518867924528"/>
      <point x="297.47169811320754" y="312.27830188679246" type="curve"/>
      <point x="336.34905660377353" y="352.29716981132077" type="line"/>
      <point x="267.82547169811323" y="352.29716981132077" type="line"/>
      <point x="306.82547169811323" y="313.5943396226415" type="line"/>
      <point x="248.5754716981132" y="477.6132075471698"/>
      <point x="223.11792452830187" y="535.1933962264151"/>
      <point x="150.58962264150944" y="689.438679245283" type="curve"/>
      <point x="148.1509433962264" y="696.0"/>
      <point x="143.4669811320755" y="700.0"/>
      <point x="134.71226415094338" y="700.0" type="curve" smooth="yes"/>
      <point x="98.38207547169812" y="700.0"/>
      <point x="62.735849056603776" y="700.0"/>
    </contour>
  </outline>
</glyph>
<glyph name="asciicircum" format="2">
  <advance width="600.0"/>
  <unicode hex="005E"/>
  <outline>
    <contour>
      <point x="220.44339622641508" y="750.0" type="curve"/>
      <point x="153.74056603773585" y="610.316037735849"/>
      <point x="70.47641509433961" y="436.82547169811323"/>
      <point x="49.59905660377358" y="393.5801886792453" type="curve" smooth="yes"/>
      <point x="43.160377358490564" y="379.45754716981133"/>
      <point x="42.160377358490564" y="375.89622641509436"/>
      <point x="42.160377358490564" y="371.89622641509436" type="curve" smooth="yes"/>
      <point x="42.160377358490564" y="366.77358490566036"/>
      <point x="45.721698113207545" y="364.2122641509434"/>
      <point x="50.844339622641506" y="364.2122641509434" type="curve" smooth="yes"/>
      <point x="147.60849056603774" y="364.2122641509434" type="line"/>
      <point x="201.33018867924528" y="475.688679245283"/>
      <point x="230.64622641509433" y="537.933962264151"/>
      <point x="293.24528301886795" y="668.4103773584906" type="curve"/>
      <point x="256.50943396226415" y="646.1132075471698" type="line"/>
      <point x="328.47169811320754" y="646.1132075471698" type="line" smooth="yes"/>
      <point x="305.29716981132077" y="658.6037735849056" type="line"/>
      <point x="360.45754716981133" y="544.25"/>
      <point x="386.47859245647544" y="487.9597616029547"/>
      <point x="440.5660377358491" y="375.0188679245283" type="curve" smooth="yes"/>
      <point x="445.12735849056605" y="365.77358490566036"/>
      <point x="448.12735849056605" y="364.77358490566036"/>
      <point x="457.25" y="364.77358490566036" type="curve" smooth="yes"/>
      <point x="490.08962264150944" y="364.77358490566036"/>
      <point x="523.0518867924528" y="364.77358490566036"/>
      <point x="555.8915094339623" y="364.77358490566036" type="curve"/>
      <point x="488.4339622641509" y="507.2122641509434"/>
      <point x="447.5566037735849" y="594.7547169811321"/>
      <point x="381.0990566037736" y="736.7547169811321" type="curve" smooth="yes"/>
      <point x="376.66037735849056" y="746.316037735849"/>
      <point x="370.97641509433964" y="750.0"/>
      <point x="361.85377358490564" y="750.0" type="curve" smooth="yes"/>
      <point x="314.7169811320755" y="750.0"/>
      <point x="267.5801886792453" y="750.0"/>
    </contour>
  </outline>
</glyph>
<glyph name="grave" format="2">
  <advance width="600.0"/>
  <unicode hex="0060"/>
  <outline>
    <contour>
      <point x="302.9433962264151" y="736.8396226415094" type="curve"/>
      <point x="243.41981132075472" y="736.8396226415094"/>
      <point x="220.89622641509433" y="736.8396226415094"/>
      <point x="165.12735849056602" y="736.8396226415094" type="curve" smooth="yes"/>
      <point x="157.12735849056602" y="736.8396226415094"/>
      <point x="153.25" y="729.5943396226415"/>
      <point x="156.81132075471697" y="722.1556603773585" type="curve" smooth="yes"/>
      <point x="192.19811320754718" y="647.1179245283018"/>
      <point x="245.54716981132074" y="536.2783018867924"/>
      <point x="288.91509433962267" y="451.0141509433962" type="curve" smooth="yes"/>
      <point x="291.91509433962267" y="445.1367924528302"/>
      <point x="298.0377358490566" y="443.57547169811323"/>
      <point x="306.4056603773585" y="443.57547169811323" type="curve" smooth="yes"/>
      <point x="343.3679245283019" y="443.57547169811323"/>
      <point x="369.9622641509434" y="443.57547169811323"/>
      <point x="401.60849056603774" y="443.57547169811323" type="curve"/>
      <point x="371.4858490566038" y="534.1556603773585"/>
      <point x="332.62735849056605" y="644.6981132075472"/>
    </contour>
  </outline>
</glyph>
<glyph name="b" format="2">
  <advance width="600.0"/>
  <unicode hex="0062"/>
  <outline>
    <contour>
      <point x="164.64622641509433" y="0.0" type="curve" smooth="yes"/>
      <point x="165.64622641509433" y="0.0"/>
      <point x="193.67924528301887" y="96.71698113207547"/>
      <point x="193.67924528301887" y="97.71698113207547" type="curve"/>
      <point x="193.67924528301887" y="313.91037735849056"/>
      <point x="193.67924528301887" y="522.8066037735849"/>
      <point x="193.67924528301887" y="739.0" type="curve"/>
      <point x="193.67924528301887" y="746.0"/>
      <point x="189.67924528301887" y="750.0"/>
      <point x="182.67924528301887" y="750.0" type="curve"/>
      <point x="150.03301886792454" y="750.0"/>
      <point x="120.19339622641509" y="750.0"/>
      <point x="87.54716981132076" y="750.0" type="curve"/>
      <point x="87.54716981132076" y="708.4575471698113"/>
      <point x="87.54716981132076" y="666.0377358490566"/>
      <point x="87.54716981132076" y="623.1792452830189" type="curve"/>
      <point x="87.54716981132076" y="418.5990566037736"/>
      <point x="87.54716981132076" y="215.0188679245283"/>
      <point x="87.54716981132076" y="11.0" type="curve" smooth="yes"/>
      <point x="87.54716981132076" y="4.0"/>
      <point x="91.54716981132076" y="0.0"/>
      <point x="98.54716981132076" y="0.0" type="curve" smooth="yes"/>
      <point x="114.84433962264151" y="0.0"/>
      <point x="147.91037735849056" y="0.0"/>
    </contour>
    <contour>
      <point x="168.01415094339623" y="82.24528301886792" type="line"/>
      <point x="204.1179245283019" y="82.24528301886792" type="line"/>
      <point x="243.06603773584905" y="20.806603773584907"/>
      <point x="296.87264150943395" y="-10.0"/>
      <point x="363.1367924528302" y="-10.0" type="curve" smooth="yes"/>
      <point x="467.08490566037733" y="-10.0"/>
      <point x="536.2264150943396" y="64.07075471698113"/>
      <point x="536.2264150943396" y="189.26415094339623" type="curve" smooth="yes"/>
      <point x="536.2264150943396" y="350.10377358490564" type="line" smooth="yes"/>
      <point x="536.2264150943396" y="472.10377358490564"/>
      <point x="467.08490566037733" y="544.9811320754717"/>
      <point x="364.89150943396226" y="544.9811320754717" type="curve" smooth="yes"/>
      <point x="297.4339622641509" y="544.9811320754717"/>
      <point x="244.75" y="510.54245283018867"/>
      <point x="209.04716981132077" y="452.66509433962267" type="curve"/>
      <point x="180.9245283018868" y="452.66509433962267" type="line"/>
      <point x="180.9245283018868" y="339.33490566037733" type="line"/>
      <point x="225.01415094339623" y="409.4622641509434"/>
      <point x="280.27830188679246" y="442.97169811320754"/>
      <point x="332.3160377358491" y="442.97169811320754" type="curve" smooth="yes"/>
      <point x="361.9669811320755" y="442.97169811320754"/>
      <point x="385.8632075471698" y="434.4622641509434"/>
      <point x="402.5660377358491" y="417.75943396226415" type="curve" smooth="yes"/>
      <point x="420.14622641509436" y="399.74056603773585"/>
      <point x="430.0943396226415" y="371.52830188679246"/>
      <point x="430.0943396226415" y="333.0" type="curve" smooth="yes"/>
      <point x="430.0943396226415" y="206.3679245283019" type="line" smooth="yes"/>
      <point x="430.0943396226415" y="132.48584905660377"/>
      <point x="393.0566037735849" y="92.00943396226415"/>
      <point x="332.3160377358491" y="92.00943396226415" type="curve" smooth="yes"/>
      <point x="279.7169811320755" y="92.00943396226415"/>
      <point x="223.89150943396226" y="118.27358490566039"/>
      <point x="178.67924528301887" y="187.47169811320754" type="curve"/>
    </contour>
  </outline>
</glyph>
<glyph name="l" format="2">
  <advance width="600.0"/>
  <unicode hex="006C"/>
  <outline>
    <contour>
      <point x="68.77358490566037" y="93.15094339622641" type="line"/>
      <point x="68.77358490566037" y="64.87264150943396"/>
      <point x="68.77358490566037" y="39.839622641509436"/>
      <point x="68.77358490566037" y="11.0" type="curve" smooth="yes"/>
      <point x="68.77358490566037" y="4.0"/>
      <point x="72.77358490566037" y="0.0"/>
      <point x="79.77358490566037" y="0.0" type="curve" smooth="yes"/>
      <point x="535.6132075471698" y="0.0" type="line"/>
      <point x="535.6132075471698" y="28.839622641509436"/>
      <point x="535.6132075471698" y="53.87264150943396"/>
      <point x="535.6132075471698" y="82.15094339622641" type="curve" smooth="yes"/>
      <point x="535.6132075471698" y="89.15094339622641"/>
      <point x="531.6132075471698" y="93.15094339622641"/>
      <point x="524.6132075471698" y="93.15094339622641" type="curve"/>
    </contour>
    <contour>
      <point x="84.38679245283018" y="750.0" type="curve"/>
      <point x="84.38679245283018" y="722.2830188679245"/>
      <point x="84.38679245283018" y="695.566037735849"/>
      <point x="84.38679245283018" y="667.8490566037735" type="curve" smooth="yes"/>
      <point x="84.38679245283018" y="660.8490566037735"/>
      <point x="88.38679245283018" y="656.8490566037735"/>
      <point x="95.38679245283018" y="656.8490566037735" type="curve" smooth="yes"/>
      <point x="144.0896226415094" y="656.8490566037735"/>
      <point x="200.03773584905662" y="656.8490566037735"/>
      <point x="251.54716981132077" y="656.8490566037735" type="curve"/>
      <point x="257.54716981132077" y="656.8490566037735" type="line"/>
      <point x="257.54716981132077" y="475.0377358490566"/>
      <point x="257.54716981132077" y="284.8066037735849"/>
      <point x="257.54716981132077" y="111.41509433962264" type="curve" smooth="yes"/>
      <point x="257.54716981132077" y="97.16981132075472"/>
      <point x="257.54716981132077" y="81.9245283018868"/>
      <point x="257.54716981132077" y="67.67924528301887" type="curve"/>
      <point x="246.17924528301887" y="47.01415094339623" type="line"/>
      <point x="363.6792452830189" y="47.01415094339623" type="line"/>
      <point x="363.6792452830189" y="277.1556603773585"/>
      <point x="363.6792452830189" y="508.85849056603774"/>
      <point x="363.6792452830189" y="739.0" type="curve" smooth="yes"/>
      <point x="363.6792452830189" y="746.0"/>
      <point x="359.6792452830189" y="750.0"/>
      <point x="352.6792452830189" y="750.0" type="curve"/>
      <point x="263.20754716981133" y="750.0"/>
      <point x="173.85849056603774" y="750.0"/>
    </contour>
  </outline>
</glyph>
<glyph name="m" format="2">
  <advance width="600.0"/>
  <unicode hex="006D"/>
  <anchor x="303.87735849056605" y="0.0" name="bottom"/>
  <outline>
    <contour>
      <point x="556.8396226415094" y="0.0" type="curve"/>
      <point x="556.8396226415094" y="33.0"/>
      <point x="556.8396226415094" y="66.56132075471699"/>
      <point x="556.8396226415094" y="99.56132075471699" type="curve" smooth="yes"/>
      <point x="556.8396226415094" y="215.3679245283019"/>
      <point x="556.8396226415094" y="330.7358490566038"/>
      <point x="556.8396226415094" y="447.10377358490564" type="curve" smooth="yes"/>
      <point x="556.8396226415094" y="507.6650943396226"/>
      <point x="521.5943396226415" y="544.9811320754717"/>
      <point x="467.96226415094344" y="544.9811320754717" type="curve" smooth="yes"/>
      <point x="418.83962264150944" y="544.9811320754717"/>
      <point x="385.9622641509434" y="513.0518867924528"/>
      <point x="359.5754716981132" y="459.1745283018868" type="curve"/>
      <point x="316.8584905660377" y="459.1745283018868" type="line"/>
      <point x="331.08490566037733" y="367.9292452830189" type="line"/>
      <point x="367.8066037735849" y="419.688679245283"/>
      <point x="396.3867924528302" y="441.2877358490566"/>
      <point x="425.7924528301887" y="441.2877358490566" type="curve" smooth="yes"/>
      <point x="448.37264150943395" y="441.2877358490566"/>
      <point x="460.811320754717" y="429.2688679245283"/>
      <point x="460.811320754717" y="400.75943396226415" type="curve"/>
      <point x="460.811320754717" y="270.9858490566038"/>
      <point x="460.811320754717" y="140.77358490566039"/>
      <point x="460.811320754717" y="11.0" type="curve" smooth="yes"/>
      <point x="460.811320754717" y="4.0"/>
      <point x="464.811320754717" y="0.0"/>
      <point x="471.811320754717" y="0.0" type="curve" smooth="yes"/>
      <point x="497.16037735849056" y="0.0"/>
      <point x="528.6839622641509" y="0.0"/>
    </contour>
    <contour>
      <point x="342.9622641509434" y="0.0" type="curve"/>
      <point x="342.9622641509434" y="199.3254716981132"/>
      <point x="342.9622641509434" y="339.27358490566036"/>
      <point x="342.9622641509434" y="447.1037735849057" type="curve" smooth="yes"/>
      <point x="342.9622641509434" y="506.66509433962267"/>
      <point x="308.83962264150944" y="544.9811320754717"/>
      <point x="256.7688679245283" y="544.9811320754717" type="curve" smooth="yes"/>
      <point x="206.64622641509436" y="544.9811320754717"/>
      <point x="172.64622641509436" y="515.2971698113208"/>
      <point x="146.82075471698113" y="459.1745283018868" type="curve"/>
      <point x="108.91037735849056" y="459.1745283018868" type="line"/>
      <point x="125.62735849056602" y="366.8066037735849" type="line"/>
      <point x="162.91037735849056" y="419.688679245283"/>
      <point x="192.61320754716982" y="441.2877358490566"/>
      <point x="222.58018867924528" y="441.2877358490566" type="curve" smooth="yes"/>
      <point x="245.16037735849056" y="441.2877358490566"/>
      <point x="257.0377358490566" y="429.70754716981133"/>
      <point x="257.0377358490566" y="401.1981132075472" type="curve" smooth="yes"/>
      <point x="257.0377358490566" y="270.9858490566038"/>
      <point x="257.0377358490566" y="141.21226415094338"/>
      <point x="257.0377358490566" y="11.0" type="curve" smooth="yes"/>
      <point x="257.0377358490566" y="4.0"/>
      <point x="261.0377358490566" y="0.0"/>
      <point x="268.0377358490566" y="0.0" type="curve" smooth="yes"/>
      <point x="290.0188679245283" y="0.0"/>
      <point x="317.6132075471698" y="0.0"/>
    </contour>
    <contour>
      <point x="139.188679245283" y="0.0" type="curve"/>
      <point x="139.188679245283" y="153.03773584905662"/>
      <point x="139.188679245283" y="307.51415094339626"/>
      <point x="139.188679245283" y="431.16037735849056" type="curve"/>
      <point x="139.188679245283" y="432.16037735849056"/>
      <point x="113.47169811320754" y="533.8584905660377"/>
      <point x="112.47169811320754" y="533.8584905660377" type="curve"/>
      <point x="89.3679245283019" y="533.8584905660377"/>
      <point x="66.26415094339622" y="533.8584905660377"/>
      <point x="43.16037735849057" y="533.8584905660377" type="curve"/>
      <point x="43.16037735849057" y="508.3160377358491"/>
      <point x="43.16037735849057" y="473.438679245283"/>
      <point x="43.16037735849057" y="433.85849056603774" type="curve" smooth="yes"/>
      <point x="43.16037735849057" y="293.0518867924528"/>
      <point x="43.16037735849057" y="151.8066037735849"/>
      <point x="43.16037735849057" y="11.0" type="curve" smooth="yes"/>
      <point x="43.16037735849057" y="4.0"/>
      <point x="47.16037735849057" y="0.0"/>
      <point x="54.16037735849057" y="0.0" type="curve" smooth="yes"/>
      <point x="82.87735849056604" y="0.0"/>
      <point x="110.47169811320754" y="0.0"/>
    </contour>
  </outline>
</glyph>
<glyph name="t" format="2">
  <advance width="600.0"/>
  <unicode hex="0074"/>
  <anchor x="353.01415094339626" y="-1.0" name="bottom"/>
  <anchor x="444.0330188679245" y="700.0" name="caronslovak"/>
  <anchor x="247.92924528301884" y="661.6650943396227" name="top"/>
  <outline>
    <contour>
      <point x="68.77358490566039" y="533.8584905660377" type="line"/>
      <point x="68.77358490566039" y="504.5801886792453"/>
      <point x="68.77358490566039" y="480.9858490566038"/>
      <point x="68.77358490566039" y="451.7075471698113" type="curve" smooth="yes"/>
      <point x="68.77358490566039" y="444.7075471698113"/>
      <point x="72.77358490566039" y="440.7075471698113"/>
      <point x="79.77358490566039" y="440.7075471698113" type="curve"/>
      <point x="500.0" y="440.7075471698113" type="line"/>
      <point x="500.0" y="469.9858490566038"/>
      <point x="500.0" y="493.5801886792453"/>
      <point x="500.0" y="522.8584905660377" type="curve" smooth="yes"/>
      <point x="500.0" y="529.8584905660377"/>
      <point x="496.0" y="533.8584905660377"/>
      <point x="489.0" y="533.8584905660377" type="curve"/>
    </contour>
    <contour>
      <point x="500.0" y="94.7122641509434" type="curve"/>
      <point x="484.3867924528302" y="94.7122641509434" type="line"/>
      <point x="459.0707547169811" y="94.7122641509434"/>
      <point x="433.316037735849" y="94.7122641509434"/>
      <point x="408.12264150943395" y="94.7122641509434" type="curve" smooth="yes"/>
      <point x="369.78773584905656" y="94.7122641509434"/>
      <point x="342.52358490566036" y="101.46698113207547"/>
      <point x="326.0141509433962" y="117.97641509433963" type="curve" smooth="yes"/>
      <point x="308.066037735849" y="135.9245283018868"/>
      <point x="300.87264150943395" y="164.9433962264151"/>
      <point x="300.87264150943395" y="210.47169811320757" type="curve"/>
      <point x="300.87264150943395" y="369.59874763122355"/>
      <point x="300.87264150943395" y="529.6821766236131"/>
      <point x="300.87264150943395" y="689.0" type="curve" smooth="yes"/>
      <point x="300.87264150943395" y="696.0"/>
      <point x="296.87264150943395" y="700.0"/>
      <point x="289.87264150943395" y="700.0" type="curve" smooth="yes"/>
      <point x="258.3490566037736" y="700.0"/>
      <point x="226.26415094339623" y="700.0"/>
      <point x="194.74056603773585" y="700.0" type="curve"/>
      <point x="194.74056603773585" y="667.0"/>
      <point x="194.74056603773585" y="633.0"/>
      <point x="194.74056603773585" y="600.0" type="curve" smooth="yes"/>
      <point x="194.74056603773585" y="468.1745283018868"/>
      <point x="194.74056603773585" y="337.3490566037736"/>
      <point x="194.74056603773585" y="205.52358490566039" type="curve" smooth="yes"/>
      <point x="194.74056603773585" y="51.839622641509436"/>
      <point x="279.4952830188679" y="0.0"/>
      <point x="402.2452830188679" y="0.0" type="curve" smooth="yes"/>
      <point x="431.12264150943395" y="0.0"/>
      <point x="481.561320754717" y="0.0"/>
      <point x="489.0" y="0.0" type="curve" smooth="yes"/>
      <point x="495.87735849056605" y="0.0"/>
      <point x="500.0" y="4.561320754716981"/>
      <point x="500.0" y="11.43867924528302" type="curve" smooth="yes"/>
      <point x="500.0" y="39.51559124295283"/>
      <point x="500.0" y="66.63535215327359"/>
    </contour>
  </outline>
</glyph>
<glyph name="section" format="2">
  <advance width="600.0"/>
  <unicode hex="00A7"/>
  <outline>
    <contour>
      <point x="318.12264150943395" y="718.2452830188679" type="curve" smooth="yes"/>
      <point x="177.58018867924528" y="718.2452830188679"/>
      <point x="77.08962264150944" y="637.7028301886793"/>
      <point x="77.08962264150944" y="532.6509433962265" type="curve" smooth="yes"/>
      <point x="77.08962264150944" y="487.77358490566036" type="line" smooth="yes"/>
      <point x="77.08962264150944" y="422.3160377358491"/>
      <point x="113.98584905660377" y="359.79245283018867"/>
      <point x="244.03773584905662" y="320.54716981132077" type="curve" smooth="yes"/>
      <point x="339.79245283018867" y="291.54716981132077" type="line" smooth="yes"/>
      <point x="418.00471698113205" y="267.91509433962267"/>
      <point x="432.77830188679246" y="243.26415094339623"/>
      <point x="432.77830188679246" y="197.83962264150944" type="curve" smooth="yes"/>
      <point x="432.77830188679246" y="174.22641509433961" type="line" smooth="yes"/>
      <point x="432.77830188679246" y="139.82075471698113"/>
      <point x="420.2169811320755" y="117.13679245283019"/>
      <point x="380.02358490566036" y="83.31132075471699" type="curve"/>
      <point x="465.50943396226415" y="78.9245283018868" type="line"/>
      <point x="465.50943396226415" y="103.22169811320755" type="line"/>
      <point x="507.1415831139472" y="115.92741071994291"/>
      <point x="537.2264150943396" y="155.97641509433964"/>
      <point x="537.2264150943396" y="201.53773584905662" type="curve" smooth="yes"/>
      <point x="537.2264150943396" y="225.67924528301887" type="line" smooth="yes"/>
      <point x="537.2264150943396" y="304.4339622641509"/>
      <point x="502.10377358490564" y="348.52358490566036"/>
      <point x="382.49056603773585" y="384.3301886792453" type="curve" smooth="yes"/>
      <point x="286.6132075471698" y="412.89150943396226" type="line" smooth="yes"/>
      <point x="204.82075471698113" y="436.83962264150944"/>
      <point x="181.0990566037736" y="456.9811320754717"/>
      <point x="181.0990566037736" y="503.50943396226415" type="curve" smooth="yes"/>
      <point x="181.0990566037736" y="526.5283018867924" type="line" smooth="yes"/>
      <point x="181.0990566037736" y="587.688679245283"/>
      <point x="232.89150943396226" y="620.1650943396227"/>
      <point x="319.8066037735849" y="620.1650943396227" type="curve" smooth="yes"/>
      <point x="371.54716981132077" y="620.1650943396227"/>
      <point x="409.58490566037733" y="611.4622641509434"/>
      <point x="445.41037735849056" y="592.4952830188679" type="curve"/>
      <point x="415.9198113207547" y="632.8820754716982" type="line"/>
      <point x="415.9198113207547" y="597.3018867924528"/>
      <point x="415.9198113207547" y="561.8443396226415"/>
      <point x="415.9198113207547" y="526.2641509433962" type="curve" smooth="yes"/>
      <point x="415.9198113207547" y="519.2641509433962"/>
      <point x="419.9198113207547" y="515.2641509433962"/>
      <point x="426.9198113207547" y="515.2641509433962" type="curve" smooth="yes"/>
      <point x="457.8820754716981" y="515.2641509433962"/>
      <point x="488.2830188679245" y="515.2641509433962"/>
      <point x="519.2452830188679" y="515.2641509433962" type="curve"/>
      <point x="519.2452830188679" y="560.316037735849"/>
      <point x="519.2452830188679" y="605.3679245283018"/>
      <point x="519.2452830188679" y="651.7358490566038" type="curve" smooth="yes"/>
      <point x="519.2452830188679" y="660.9811320754717"/>
      <point x="517.8066037735849" y="663.9811320754717"/>
      <point x="512.3679245283018" y="669.4198113207547" type="curve" smooth="yes"/>
      <point x="486.22641509433964" y="695.561320754717"/>
      <point x="414.66509433962267" y="718.2452830188679"/>
    </contour>
    <contour>
      <point x="293.9481132075472" y="-147.99056603773585" type="curve" smooth="yes"/>
      <point x="204.38679245283018" y="-147.99056603773585"/>
      <point x="144.8254716981132" y="-128.1132075471698"/>
      <point x="83.94811320754717" y="-79.90094339622641" type="curve"/>
      <point x="67.45754716981132" y="-79.90094339622641" type="line"/>
      <point x="67.45754716981132" y="-113.30188679245282"/>
      <point x="67.45754716981132" y="-146.26415094339623"/>
      <point x="67.45754716981132" y="-179.66509433962264" type="curve" smooth="yes"/>
      <point x="67.45754716981132" y="-182.54245283018867"/>
      <point x="68.45754716981132" y="-185.66509433962264"/>
      <point x="70.45754716981132" y="-187.66509433962264" type="curve" smooth="yes"/>
      <point x="109.72169811320754" y="-226.92924528301887"/>
      <point x="193.4056603773585" y="-250.0"/>
      <point x="287.77358490566036" y="-250.0" type="curve" smooth="yes"/>
      <point x="443.8066037735849" y="-250.0"/>
      <point x="537.2264150943396" y="-174.58018867924528"/>
      <point x="537.2264150943396" y="-66.59905660377359" type="curve" smooth="yes"/>
      <point x="537.2264150943396" y="-47.54716981132076" type="line" smooth="yes"/>
      <point x="537.2264150943396" y="35.839622641509436"/>
      <point x="498.27830188679246" y="87.75"/>
      <point x="378.10377358490564" y="123.55660377358491" type="curve" smooth="yes"/>
      <point x="281.66509433962267" y="152.1179245283019" type="line" smooth="yes"/>
      <point x="199.87264150943398" y="176.06603773584905"/>
      <point x="181.0990566037736" y="199.71698113207546"/>
      <point x="181.0990566037736" y="246.24528301886792" type="curve" smooth="yes"/>
      <point x="181.0990566037736" y="267.29716981132077" type="line" smooth="yes"/>
      <point x="181.0990566037736" y="313.5801886792453"/>
      <point x="192.58962264150944" y="335.5801886792453"/>
      <point x="238.87264150943398" y="362.2311320754717" type="curve"/>
      <point x="150.43867924528303" y="370.12735849056605" type="line"/>
      <point x="150.43867924528303" y="344.3207547169811" type="line"/>
      <point x="109.50943396226415" y="332.9339622641509"/>
      <point x="77.08962264150944" y="290.74056603773585"/>
      <point x="77.08962264150944" y="235.81132075471697" type="curve" smooth="yes"/>
      <point x="77.08962264150944" y="213.66981132075472" type="line" smooth="yes"/>
      <point x="77.08962264150944" y="147.08962264150944"/>
      <point x="127.75471698113208" y="94.40566037735849"/>
      <point x="240.96698113207546" y="60.2122641509434" type="curve" smooth="yes"/>
      <point x="336.72169811320754" y="31.212264150943398" type="line" smooth="yes"/>
      <point x="414.9339622641509" y="7.580188679245282"/>
      <point x="432.77830188679246" y="-9.61320754716981"/>
      <point x="432.77830188679246" y="-51.52830188679245" type="curve" smooth="yes"/>
      <point x="432.77830188679246" y="-63.91509433962264" type="line" smooth="yes"/>
      <point x="432.77830188679246" y="-112.97169811320754"/>
      <point x="386.54716981132077" y="-147.99056603773585"/>
    </contour>
  </outline>
</glyph>
<glyph name="copyright" format="2">
  <advance width="600.0"/>
  <unicode hex="00A9"/>
  <outline>
    <contour>
      <point x="300.0" y="715.0" type="curve" smooth="yes"/>
      <point x="129.61320754716982" y="715.0"/>
      <point x="17.38679245283019" y="615.683962264151"/>
      <point x="17.38679245283019" y="432.82547169811323" type="curve" smooth="yes"/>
      <point x="17.38679245283019" y="271.0" type="line" smooth="yes"/>
      <point x="17.38679245283019" y="84.2670956584519"/>
      <point x="124.36629279569907" y="-15.0"/>
      <point x="300.0" y="-15.0" type="curve" smooth="yes"/>
      <point x="470.3867924528302" y="-15.0"/>
      <point x="582.6132075471698" y="84.31603773584905"/>
      <point x="582.6132075471698" y="267.17452830188677" type="curve" smooth="yes"/>
      <point x="582.6132075471698" y="429.0" type="line" smooth="yes"/>
      <point x="582.6132075471698" y="615.7329043415481"/>
      <point x="475.6320754716981" y="715.0"/>
    </contour>
    <contour>
      <point x="300.0" y="659.5801886792453" type="curve" smooth="yes"/>
      <point x="369.82547169811323" y="659.5801886792453"/>
      <point x="425.45754716981133" y="639.7028301886793"/>
      <point x="463.89622641509436" y="603.1933962264151" type="curve"/>
      <point x="503.2641509433962" y="566.316037735849"/>
      <point x="524.5094339622641" y="512.316037735849"/>
      <point x="524.5094339622641" y="445.0" type="curve" smooth="yes"/>
      <point x="524.5094339622641" y="254.0" type="line" smooth="yes"/>
      <point x="524.5094339622641" y="121.10377358490567"/>
      <point x="440.9481132075472" y="40.41981132075472"/>
      <point x="300.0" y="40.41981132075472" type="curve" smooth="yes"/>
      <point x="231.92924528301887" y="40.41981132075472"/>
      <point x="177.05188679245282" y="59.41981132075472"/>
      <point x="138.61320754716982" y="93.73584905660377" type="curve"/>
      <point x="98.05188679245283" y="130.73584905660377"/>
      <point x="75.49056603773585" y="186.05188679245282"/>
      <point x="75.49056603773585" y="255.0" type="curve" smooth="yes"/>
      <point x="75.49056603773585" y="446.0" type="line" smooth="yes"/>
      <point x="75.49056603773585" y="578.8962264150944"/>
      <point x="159.05188679245282" y="659.5801886792453"/>
    </contour>
    <contour>
      <point x="308.0" y="566.0" type="curve" smooth="yes"/>
      <point x="220.31603773584905" y="566.0"/>
      <point x="169.1933962264151" y="516.7547169811321"/>
      <point x="169.1933962264151" y="428.75471698113205" type="curve" smooth="yes"/>
      <point x="169.1933962264151" y="273.0" type="line" smooth="yes"/>
      <point x="169.1933962264151" y="186.68396226415095"/>
      <point x="212.31603773584905" y="134.0"/>
      <point x="306.561320754717" y="134.0" type="curve" smooth="yes"/>
      <point x="353.12264150943395" y="134.0"/>
      <point x="397.0" y="148.12264150943398"/>
      <point x="416.12264150943395" y="172.68396226415095" type="curve" smooth="yes"/>
      <point x="420.0" y="177.56132075471697"/>
      <point x="421.0" y="178.56132075471697"/>
      <point x="421.0" y="187.1933962264151" type="curve" smooth="yes"/>
      <point x="421.0" y="208.05188679245282"/>
      <point x="421.0" y="228.78773584905662"/>
      <point x="421.0" y="249.64622641509433" type="curve"/>
      <point x="409.0" y="249.64622641509433" type="line"/>
      <point x="381.0" y="216.01415094339623"/>
      <point x="354.6839622641509" y="201.89150943396226"/>
      <point x="310.49056603773585" y="201.89150943396226" type="curve" smooth="yes"/>
      <point x="286.10377358490564" y="201.89150943396226"/>
      <point x="269.0330188679245" y="206.7688679245283"/>
      <point x="258.27830188679246" y="218.08490566037736" type="curve"/>
      <point x="246.20754716981133" y="229.27830188679246"/>
      <point x="241.33018867924528" y="248.10377358490567"/>
      <point x="241.33018867924528" y="275.6839622641509" type="curve" smooth="yes"/>
      <point x="241.33018867924528" y="429.75471698113205" type="line" smooth="yes"/>
      <point x="241.33018867924528" y="476.2830188679245"/>
      <point x="263.0330188679245" y="500.35377358490564"/>
      <point x="308.0" y="500.35377358490564" type="curve" smooth="yes"/>
      <point x="335.89622641509436" y="500.35377358490564"/>
      <point x="351.9669811320755" y="494.16037735849056"/>
      <point x="370.79245283018867" y="473.0188679245283" type="curve"/>
      <point x="352.91509433962267" y="518.6509433962265" type="line"/>
      <point x="352.91509433962267" y="482.12264150943395"/>
      <point x="352.91509433962267" y="457.75471698113205"/>
      <point x="352.91509433962267" y="434.3867924528302" type="curve" smooth="yes"/>
      <point x="352.91509433962267" y="427.3867924528302"/>
      <point x="356.35377358490564" y="423.3867924528302"/>
      <point x="363.91509433962267" y="423.3867924528302" type="curve" smooth="yes"/>
      <point x="382.6509433962264" y="423.3867924528302"/>
      <point x="401.3867924528302" y="423.3867924528302"/>
      <point x="420.12264150943395" y="423.3867924528302" type="curve"/>
      <point x="420.12264150943395" y="452.6320754716981"/>
      <point x="420.12264150943395" y="481.75471698113205"/>
      <point x="420.12264150943395" y="511.0" type="curve" smooth="yes"/>
      <point x="420.12264150943395" y="516.0"/>
      <point x="419.12264150943395" y="518.0"/>
      <point x="415.12264150943395" y="522.0" type="curve" smooth="yes"/>
      <point x="391.12264150943395" y="549.0"/>
      <point x="356.0" y="566.0"/>
    </contour>
  </outline>
</glyph>
<glyph name="ordfeminine" format="2">
  <advance width="600.0"/>
  <unicode hex="00AA"/>
  <outline>
    <contour>
      <point x="237.98584905660377" y="293.9481132075472" type="curve" smooth="yes"/>
      <point x="296.4952830188679" y="293.9481132075472"/>
      <point x="341.9339622641509" y="323.87735849056605"/>
      <point x="365.39150943396226" y="375.75471698113205" type="curve"/>
      <point x="396.9339622641509" y="375.75471698113205" type="line"/>
      <point x="390.39150943396226" y="466.22641509433964" type="line"/>
      <point x="353.0566037735849" y="407.4858490566038"/>
      <point x="311.72169811320754" y="379.41509433962267"/>
      <point x="267.87735849056605" y="379.41509433962267" type="curve" smooth="yes"/>
      <point x="242.54245283018867" y="379.41509433962267"/>
      <point x="222.96226415094338" y="386.4858490566038"/>
      <point x="209.13679245283018" y="400.87264150943395" type="curve" smooth="yes"/>
      <point x="194.43396226415095" y="415.57547169811323"/>
      <point x="185.9245283018868" y="439.47169811320754"/>
      <point x="185.9245283018868" y="471.6839622641509" type="curve" smooth="yes"/>
      <point x="185.9245283018868" y="577.877358490566" type="line" smooth="yes"/>
      <point x="185.9245283018868" y="639.811320754717"/>
      <point x="216.7688679245283" y="674.0943396226415"/>
      <point x="267.87735849056605" y="674.0943396226415" type="curve" smooth="yes"/>
      <point x="312.8443396226415" y="674.0943396226415"/>
      <point x="353.0566037735849" y="652.0754716981132"/>
      <point x="390.95283018867923" y="600.1933962264151" type="curve"/>
      <point x="392.00471698113205" y="689.8584905660377" type="line"/>
      <point x="363.14622641509436" y="689.8584905660377" type="line"/>
      <point x="338.00471698113205" y="734.561320754717"/>
      <point x="294.47707481197926" y="759.122641509434"/>
      <point x="239.74056603773585" y="759.122641509434" type="curve" smooth="yes"/>
      <point x="152.79245283018867" y="759.122641509434"/>
      <point x="94.52830188679245" y="697.0518867924528"/>
      <point x="94.52830188679245" y="592.2971698113207" type="curve" smooth="yes"/>
      <point x="94.52830188679245" y="457.2641509433962" type="line" smooth="yes"/>
      <point x="94.52830188679245" y="354.82547169811323"/>
      <point x="152.79245283018867" y="293.9481132075472"/>
    </contour>
    <contour>
      <point x="521.683962264151" y="380.24056603773585" type="curve"/>
      <point x="506.0707547169811" y="380.24056603773585" type="line"/>
      <point x="503.6320754716981" y="380.24056603773585"/>
      <point x="499.75471698113205" y="380.24056603773585"/>
      <point x="496.87735849056605" y="380.24056603773585" type="curve" smooth="yes"/>
      <point x="478.54245283018867" y="380.24056603773585"/>
      <point x="470.47169811320754" y="390.188679245283"/>
      <point x="470.47169811320754" y="410.52358490566036" type="curve"/>
      <point x="470.47169811320754" y="520.5337950800373"/>
      <point x="470.47169811320754" y="629.6132075471698"/>
      <point x="470.47169811320754" y="739.438679245283" type="curve"/>
      <point x="470.47169811320754" y="746.0"/>
      <point x="466.91037735849056" y="750.0"/>
      <point x="460.3490566037736" y="750.0" type="curve"/>
      <point x="433.6320754716981" y="750.0"/>
      <point x="406.54088050312595" y="750.0"/>
      <point x="379.6367924528302" y="750.0" type="curve"/>
      <point x="379.6367924528302" y="714.0707547169811"/>
      <point x="379.6367924528302" y="678.5801886792453"/>
      <point x="379.6367924528302" y="643.2122641509434" type="curve"/>
      <point x="379.6367924528302" y="561.5094339622641"/>
      <point x="379.6367924528302" y="480.3679245283019"/>
      <point x="379.6367924528302" y="399.22641509433964" type="curve"/>
      <point x="379.6367924528302" y="342.66509433962267"/>
      <point x="414.3207547169811" y="302.3867924528302"/>
      <point x="484.8443396226415" y="302.3867924528302" type="curve" smooth="yes"/>
      <point x="493.1015876667995" y="302.3867924528302"/>
      <point x="501.6320754716981" y="302.3867924528302"/>
      <point x="511.561320754717" y="302.3867924528302" type="curve" smooth="yes"/>
      <point x="518.122641509434" y="302.3867924528302"/>
      <point x="521.683962264151" y="305.50943396226415"/>
      <point x="521.683962264151" y="312.50943396226415" type="curve"/>
      <point x="521.683962264151" y="334.85849056603774"/>
      <point x="521.683962264151" y="357.5172955974656"/>
    </contour>
  </outline>
</glyph>
<glyph name="degree" format="2">
  <advance width="600.0"/>
  <unicode hex="00B0"/>
  <outline>
    <contour>
      <point x="300.0" y="710.0" type="curve"/>
      <point x="196.07075471698113" y="710.0"/>
      <point x="129.8254716981132" y="653.561320754717"/>
      <point x="129.8254716981132" y="564.683962264151" type="curve" smooth="yes"/>
      <point x="129.8254716981132" y="512.3349056603773" type="line" smooth="yes"/>
      <point x="129.8254716981132" y="422.89622641509436"/>
      <point x="196.07075471698113" y="366.45754716981133"/>
      <point x="300.0" y="366.45754716981133" type="curve"/>
      <point x="403.9292452830189" y="366.45754716981133"/>
      <point x="470.17452830188677" y="422.89622641509436"/>
      <point x="470.17452830188677" y="512.3349056603773" type="curve" smooth="yes"/>
      <point x="470.17452830188677" y="564.683962264151" type="line" smooth="yes"/>
      <point x="470.17452830188677" y="653.561320754717"/>
      <point x="403.9292452830189" y="710.0"/>
    </contour>
    <contour>
      <point x="300.0" y="441.9622641509434" type="curve" smooth="yes"/>
      <point x="267.7358490566038" y="441.9622641509434"/>
      <point x="243.22641509433961" y="450.27830188679246"/>
      <point x="228.1556603773585" y="465.3490566037736" type="curve" smooth="yes"/>
      <point x="215.08490566037736" y="478.4198113207547"/>
      <point x="208.33018867924528" y="495.6839622641509"/>
      <point x="208.33018867924528" y="517.3867924528302" type="curve" smooth="yes"/>
      <point x="208.33018867924528" y="559.0707547169811" type="line" smooth="yes"/>
      <point x="208.33018867924528" y="607.0377358490566"/>
      <point x="242.47169811320754" y="634.4952830188679"/>
      <point x="300.0" y="634.4952830188679" type="curve" smooth="yes"/>
      <point x="332.82547169811323" y="634.4952830188679"/>
      <point x="357.33490566037733" y="626.1792452830189"/>
      <point x="372.4056603773585" y="610.1084905660377" type="curve" smooth="yes"/>
      <point x="384.91509433962267" y="598.0377358490566"/>
      <point x="391.6698113207547" y="580.7735849056604"/>
      <point x="391.6698113207547" y="559.0707547169811" type="curve" smooth="yes"/>
      <point x="391.6698113207547" y="517.3867924528302" type="line" smooth="yes"/>
      <point x="391.6698113207547" y="469.9811320754717"/>
      <point x="357.52830188679246" y="441.9622641509434"/>
    </contour>
  </outline>
</glyph>
<glyph name="mu.math" format="2">
  <advance width="600.0"/>
  <unicode hex="00B5"/>
  <outline>
    <contour>
      <point x="87.10849056603773" y="157.0" type="line"/>
      <point x="87.10849056603773" y="38.0"/>
      <point x="87.10849056603773" y="-71.0"/>
      <point x="87.10849056603773" y="-189.0" type="curve" smooth="yes"/>
      <point x="87.10849056603773" y="-196.56132075471697"/>
      <point x="91.10849056603773" y="-200.0"/>
      <point x="98.10849056603773" y="-200.0" type="curve" smooth="yes"/>
      <point x="136.43867924528303" y="-200.0"/>
      <point x="178.69811320754718" y="-200.0"/>
      <point x="201.48584905660377" y="-200.0" type="curve"/>
      <point x="201.48584905660377" y="-169.0"/>
      <point x="201.48584905660377" y="-164.0"/>
      <point x="201.48584905660377" y="-135.0" type="curve" smooth="yes"/>
      <point x="201.48584905660377" y="-132.56132075471697"/>
      <point x="185.25943396226415" y="-77.12264150943396"/>
      <point x="157.66509433962264" y="-1.1556603773584921" type="curve"/>
      <point x="178.85849056603774" y="17.89622641509434" type="line"/>
      <point x="164.3820754716981" y="157.0" type="line"/>
    </contour>
    <contour>
      <point x="187.85377358490567" y="533.8584905660377" type="curve" smooth="yes"/>
      <point x="154.08490566037736" y="533.8584905660377"/>
      <point x="120.87735849056604" y="533.8584905660377"/>
      <point x="87.10849056603773" y="533.8584905660377" type="curve"/>
      <point x="87.10849056603773" y="500.6132075471698"/>
      <point x="87.10849056603773" y="467.49056603773585"/>
      <point x="87.10849056603773" y="434.24528301886795" type="curve" smooth="yes"/>
      <point x="87.10849056603773" y="337.0"/>
      <point x="87.10849056603773" y="240.1933962264151"/>
      <point x="87.10849056603773" y="142.94811320754718" type="curve"/>
      <point x="87.10849056603773" y="53.367924528301884"/>
      <point x="148.58018867924528" y="-11.122641509433961"/>
      <point x="235.52830188679246" y="-11.122641509433961" type="curve" smooth="yes"/>
      <point x="291.4952830188679" y="-11.122641509433961"/>
      <point x="345.07547169811323" y="15.05188679245283"/>
      <point x="391.5141509433962" y="82.56132075471699" type="curve"/>
      <point x="431.1981132075472" y="82.56132075471699" type="line"/>
      <point x="431.1981132075472" y="215.9056603773585" type="line"/>
      <point x="360.2311320754717" y="129.3254716981132"/>
      <point x="312.45754716981133" y="99.30660377358491"/>
      <point x="257.17452830188677" y="99.30660377358491" type="curve" smooth="yes"/>
      <point x="219.3820754716981" y="99.30660377358491"/>
      <point x="198.85377358490567" y="120.83490566037736"/>
      <point x="198.85377358490567" y="171.47169811320754" type="curve"/>
      <point x="198.85377358490567" y="233.10377358490567"/>
      <point x="198.85377358490567" y="295.7358490566038"/>
      <point x="198.85377358490567" y="357.3679245283019" type="curve" smooth="yes"/>
      <point x="198.85377358490567" y="522.8584905660377" type="line" smooth="yes"/>
      <point x="198.85377358490567" y="529.8584905660377"/>
      <point x="194.85377358490567" y="533.8584905660377"/>
    </contour>
    <contour>
      <point x="411.70754716981133" y="533.8584905660377" type="curve" smooth="yes"/>
      <point x="405.70754716981133" y="533.8584905660377"/>
      <point x="400.70754716981133" y="528.8584905660377"/>
      <point x="400.70754716981133" y="522.8584905660377" type="curve" smooth="yes"/>
      <point x="400.70754716981133" y="383.7877358490566"/>
      <point x="400.70754716981133" y="244.71698113207546"/>
      <point x="400.70754716981133" y="105.64622641509433" type="curve" smooth="yes"/>
      <point x="400.70754716981133" y="37.64622641509434"/>
      <point x="445.75943396226415" y="-10.0"/>
      <point x="528.3349056603773" y="-10.0" type="curve" smooth="yes"/>
      <point x="558.0330188679245" y="-10.0" type="line" smooth="yes"/>
      <point x="565.0330188679245" y="-10.0"/>
      <point x="569.0330188679245" y="-6.438679245283019"/>
      <point x="569.0330188679245" y="1.0" type="curve" smooth="yes"/>
      <point x="569.0330188679245" y="30.962264150943398"/>
      <point x="569.0330188679245" y="59.924528301886795"/>
      <point x="569.0330188679245" y="89.88679245283019" type="curve"/>
      <point x="562.4716981132076" y="89.88679245283019" type="line"/>
      <point x="556.3490566037735" y="89.88679245283019"/>
      <point x="549.6650943396227" y="89.88679245283019"/>
      <point x="543.5424528301887" y="89.88679245283019" type="curve" smooth="yes"/>
      <point x="533.5943396226415" y="89.88679245283019"/>
      <point x="525.9622641509434" y="93.20283018867926"/>
      <point x="520.6462264150944" y="98.83490566037736" type="curve"/>
      <point x="514.8915094339623" y="105.46698113207547"/>
      <point x="512.4528301886793" y="114.85377358490567"/>
      <point x="512.4528301886793" y="128.55660377358492" type="curve" smooth="yes"/>
      <point x="512.4528301886793" y="263.6981132075472"/>
      <point x="512.4528301886793" y="398.7169811320755"/>
      <point x="512.4528301886793" y="533.8584905660377" type="curve"/>
      <point x="478.6839622641509" y="533.8584905660377"/>
      <point x="445.47641509433964" y="533.8584905660377"/>
    </contour>
  </outline>
</glyph>
<glyph name="ordmasculine" format="2">
  <advance width="600.0"/>
  <unicode hex="00BA"/>
  <outline>
    <contour>
      <point x="301.12264150943395" y="761.561320754717" type="curve" smooth="yes"/>
      <point x="184.77358490566039" y="761.561320754717"/>
      <point x="98.33490566037736" y="680.8254716981132"/>
      <point x="98.33490566037736" y="563.8443396226415" type="curve" smooth="yes"/>
      <point x="98.33490566037736" y="489.0141509433962" type="line" smooth="yes"/>
      <point x="98.33490566037736" y="369.4399757056524"/>
      <point x="177.26415094339623" y="289.3160377358491"/>
      <point x="298.87735849056605" y="289.3160377358491" type="curve" smooth="yes"/>
      <point x="414.66509433962267" y="289.3160377358491"/>
      <point x="501.66509433962267" y="370.0518867924528"/>
      <point x="501.66509433962267" y="487.47169811320754" type="curve" smooth="yes"/>
      <point x="501.66509433962267" y="562.4245283018868" type="line" smooth="yes"/>
      <point x="501.66509433962267" y="681.3867924528302"/>
      <point x="421.0518867924528" y="761.561320754717"/>
    </contour>
    <contour>
      <point x="305.75471698113205" y="677.7783018867924" type="curve" smooth="yes"/>
      <point x="342.08962264150944" y="677.3396226415094"/>
      <point x="370.54716981132077" y="665.9528301886793"/>
      <point x="388.811320754717" y="644.372641509434" type="curve"/>
      <point x="404.3207547169811" y="625.4245283018868"/>
      <point x="412.5141509433962" y="599.0377358490566"/>
      <point x="412.5141509433962" y="564.2830188679245" type="curve" smooth="yes"/>
      <point x="412.5141509433962" y="485.22641509433964" type="line" smooth="yes"/>
      <point x="412.5141509433962" y="421.7688679245283"/>
      <point x="370.8632075471698" y="373.5377358490566"/>
      <point x="294.24528301886795" y="373.5377358490566" type="curve" smooth="yes"/>
      <point x="261.4198113207547" y="373.5377358490566"/>
      <point x="235.27830188679246" y="383.60849056603774"/>
      <point x="217.45283018867926" y="401.6792452830189" type="curve"/>
      <point x="197.87264150943398" y="421.0660377358491"/>
      <point x="187.48584905660377" y="449.7688679245283"/>
      <point x="187.48584905660377" y="486.5943396226415" type="curve" smooth="yes"/>
      <point x="187.48584905660377" y="566.0896226415094" type="line" smooth="yes"/>
      <point x="187.48584905660377" y="630.8632075471698"/>
      <point x="228.5754716981132" y="677.7783018867924"/>
    </contour>
  </outline>
</glyph>
<glyph name="dcaron" format="2">
  <advance width="600.0"/>
  <unicode hex="010F"/>
  <outline>
    <contour>
      <point x="585.9622641509434" y="528.8962264150944" type="curve" smooth="yes"/>
      <point x="595.4009433962265" y="528.8962264150944"/>
      <point x="599.5235849056604" y="533.3349056603773"/>
      <point x="601.5235849056604" y="539.4575471698113" type="curve" smooth="yes"/>
      <point x="616.9622641509435" y="606.4575471698114"/>
      <point x="621.7688679245283" y="628.4905660377359"/>
      <point x="636.2075471698113" y="691.0518867924528" type="curve" smooth="yes"/>
      <point x="638.2075471698113" y="699.0518867924528"/>
      <point x="634.0849056603773" y="706.0518867924528"/>
      <point x="623.8915094339623" y="706.0518867924528" type="curve" smooth="yes"/>
      <point x="588.8066037735849" y="706.0518867924528"/>
      <point x="571.4575471698113" y="706.0518867924528"/>
      <point x="547.9669811320755" y="706.0518867924528" type="curve"/>
      <point x="544.8962264150942" y="636.5801886792453"/>
      <point x="542.7028301886792" y="602.9481132075472"/>
      <point x="538.754716981132" y="528.8962264150944" type="curve"/>
      <point x="553.9292452830189" y="528.8962264150944"/>
      <point x="565.1037735849056" y="528.8962264150944"/>
    </contour>
    <contour>
      <point x="231.5990566037736" y="544.9811320754717" type="curve" smooth="yes"/>
      <point x="127.2122641509434" y="544.9811320754717"/>
      <point x="63.77358490566038" y="470.91037735849056"/>
      <point x="63.77358490566038" y="345.7169811320755" type="curve" smooth="yes"/>
      <point x="63.77358490566038" y="184.87735849056602" type="line" smooth="yes"/>
      <point x="63.77358490566038" y="62.87735849056604"/>
      <point x="132.91509433962264" y="-10.0"/>
      <point x="225.98584905660377" y="-10.0" type="curve" smooth="yes"/>
      <point x="291.4433962264151" y="-10.0"/>
      <point x="333.566037735849" y="16.94811320754717"/>
      <point x="365.4433962264151" y="80.07075471698113" type="curve"/>
      <point x="396.9339622641509" y="80.07075471698113" type="line"/>
      <point x="396.9339622641509" y="190.03301886792454" type="line"/>
      <point x="349.59905660377353" y="117.46698113207549"/>
      <point x="313.63207547169816" y="92.00943396226415"/>
      <point x="264.17452830188677" y="92.00943396226415" type="curve" smooth="yes"/>
      <point x="234.9622641509434" y="92.00943396226415"/>
      <point x="213.25943396226415" y="99.20283018867926"/>
      <point x="196.55660377358492" y="115.9056603773585" type="curve" smooth="yes"/>
      <point x="178.97641509433964" y="133.9245283018868"/>
      <point x="169.9056603773585" y="163.45283018867926"/>
      <point x="169.9056603773585" y="201.9811320754717" type="curve" smooth="yes"/>
      <point x="169.9056603773585" y="328.6132075471698" type="line" smooth="yes"/>
      <point x="169.9056603773585" y="402.4952830188679"/>
      <point x="202.1179245283019" y="442.97169811320754"/>
      <point x="261.9811320754717" y="442.97169811320754" type="curve" smooth="yes"/>
      <point x="316.7028301886793" y="442.97169811320754"/>
      <point x="351.2830188679245" y="411.8820754716981"/>
      <point x="396.9339622641509" y="344.561320754717" type="curve"/>
      <point x="396.9339622641509" y="457.0330188679245" type="line"/>
      <point x="365.4433962264151" y="457.0330188679245" type="line"/>
      <point x="335.25" y="510.22641509433964"/>
      <point x="298.98584905660374" y="544.9811320754717"/>
    </contour>
    <contour>
      <point x="477.066037735849" y="750.0" type="curve"/>
      <point x="445.54245283018867" y="750.0"/>
      <point x="413.4575471698113" y="750.0"/>
      <point x="381.9339622641509" y="750.0" type="curve"/>
      <point x="381.9339622641509" y="716.122641509434"/>
      <point x="381.9339622641509" y="682.561320754717"/>
      <point x="381.9339622641509" y="650.0" type="curve"/>
      <point x="381.9339622641509" y="437.0"/>
      <point x="381.9339622641509" y="224.0"/>
      <point x="381.9339622641509" y="11.0" type="curve"/>
      <point x="381.9339622641509" y="4.0"/>
      <point x="385.9339622641509" y="0.0"/>
      <point x="392.9339622641509" y="0.0" type="curve" smooth="yes"/>
      <point x="424.4575471698113" y="0.0"/>
      <point x="456.54245283018867" y="0.0"/>
      <point x="488.066037735849" y="0.0" type="curve"/>
      <point x="488.066037735849" y="37.278301886792455"/>
      <point x="488.066037735849" y="80.13679245283019"/>
      <point x="488.066037735849" y="127.50471698113208" type="curve" smooth="yes"/>
      <point x="488.066037735849" y="317.3632075471698"/>
      <point x="488.066037735849" y="535.5424528301887"/>
      <point x="488.066037735849" y="739.0" type="curve"/>
      <point x="488.066037735849" y="746.0"/>
      <point x="484.066037735849" y="750.0"/>
    </contour>
  </outline>
</glyph>
<glyph name="eogonek" format="2">
  <advance width="600.0"/>
  <unicode hex="0119"/>
  <outline>
    <contour>
      <point x="304.79245283018867" y="-135.89622641509433" type="curve" smooth="yes"/>
      <point x="304.79245283018867" y="-209.1933962264151"/>
      <point x="352.6509433962264" y="-250.0"/>
      <point x="428.438679245283" y="-250.0" type="curve" smooth="yes"/>
      <point x="472.0" y="-250.0"/>
      <point x="507.8066037735849" y="-234.68396226415095"/>
      <point x="507.8066037735849" y="-215.0" type="curve" smooth="yes"/>
      <point x="507.8066037735849" y="-165.6556603773585"/>
      <point x="507.8066037735849" y="-145.58490566037736"/>
      <point x="507.8066037735849" y="-130.72641509433961" type="curve"/>
      <point x="491.3160377358491" y="-130.72641509433961" type="line"/>
      <point x="475.24528301886795" y="-142.23584905660377"/>
      <point x="459.8066037735849" y="-148.1132075471698"/>
      <point x="438.54245283018867" y="-148.1132075471698" type="curve" smooth="yes"/>
      <point x="410.91037735849056" y="-148.1132075471698"/>
      <point x="393.52358490566036" y="-133.72641509433961"/>
      <point x="393.52358490566036" y="-106.70754716981132" type="curve" smooth="yes"/>
      <point x="393.52358490566036" y="-62.23113207547169"/>
      <point x="423.4198113207547" y="-24.702830188679243"/>
      <point x="491.24528301886795" y="2.8962264150943398" type="curve" smooth="yes"/>
      <point x="506.9292452830189" y="9.089622641509433"/>
      <point x="511.9292452830189" y="17.528301886792452"/>
      <point x="511.9292452830189" y="36.2122641509434" type="curve" smooth="yes"/>
      <point x="502.9481132075472" y="42.70283018867924"/>
      <point x="491.9669811320755" y="49.948113207547166"/>
      <point x="474.9858490566038" y="46.386792452830186" type="curve" smooth="yes"/>
      <point x="387.8632075471698" y="24.174528301886795"/>
      <point x="304.79245283018867" y="-38.77358490566038"/>
    </contour>
    <component base="e"/>
  </outline>
</glyph>
<glyph name="ij" format="2">
  <advance width="600.0"/>
  <unicode hex="0133"/>
  <outline>
    <contour>
      <point x="209.9245283018868" y="658.5990566037735" type="curve"/>
      <point x="209.9245283018868" y="766.8915094339623" type="line" smooth="yes"/>
      <point x="209.9245283018868" y="773.8915094339623"/>
      <point x="205.9245283018868" y="777.8915094339623"/>
      <point x="198.9245283018868" y="777.8915094339623" type="curve"/>
      <point x="157.4009433962264" y="777.8915094339623"/>
      <point x="115.31603773584905" y="777.8915094339623"/>
      <point x="73.79245283018868" y="777.8915094339623" type="curve"/>
      <point x="73.79245283018868" y="669.5990566037735" type="line" smooth="yes"/>
      <point x="73.79245283018868" y="662.5990566037735"/>
      <point x="77.79245283018868" y="658.5990566037735"/>
      <point x="84.79245283018868" y="658.5990566037735" type="curve" smooth="yes"/>
      <point x="126.31603773584905" y="658.5990566037735"/>
      <point x="168.4009433962264" y="658.5990566037735"/>
    </contour>
    <contour>
      <point x="522.7688679245283" y="661.4056603773585" type="curve"/>
      <point x="522.7688679245283" y="769.6981132075472" type="line" smooth="yes"/>
      <point x="522.7688679245283" y="776.6981132075472"/>
      <point x="518.7688679245283" y="780.6981132075472"/>
      <point x="511.7688679245283" y="780.6981132075472" type="curve"/>
      <point x="470.24528301886795" y="780.6981132075472"/>
      <point x="428.16037735849056" y="780.6981132075472"/>
      <point x="386.6367924528302" y="780.6981132075472" type="curve"/>
      <point x="386.6367924528302" y="672.4056603773585" type="line" smooth="yes"/>
      <point x="386.6367924528302" y="665.4056603773585"/>
      <point x="390.6367924528302" y="661.4056603773585"/>
      <point x="397.6367924528302" y="661.4056603773585" type="curve" smooth="yes"/>
      <point x="439.16037735849056" y="661.4056603773585"/>
      <point x="481.24528301886795" y="661.4056603773585"/>
    </contour>
    <component base="dotlessij"/>
  </outline>
</glyph>
<glyph name="lcaron" format="2">
  <advance width="600.0"/>
  <unicode hex="013E"/>
  <outline>
    <contour>
      <point x="536.5235849056604" y="573.2830188679245" type="curve" smooth="yes"/>
      <point x="545.9622641509434" y="573.2830188679245"/>
      <point x="550.0849056603773" y="577.7216981132076"/>
      <point x="552.0849056603773" y="583.8443396226415" type="curve" smooth="yes"/>
      <point x="570.8915094339623" y="654.2122641509434"/>
      <point x="574.5754716981132" y="668.9481132075472"/>
      <point x="592.3820754716982" y="735.438679245283" type="curve" smooth="yes"/>
      <point x="594.3820754716982" y="743.438679245283"/>
      <point x="590.2594339622641" y="750.438679245283"/>
      <point x="580.066037735849" y="750.438679245283" type="curve" smooth="yes"/>
      <point x="544.9811320754717" y="750.438679245283"/>
      <point x="516.7028301886793" y="750.438679245283"/>
      <point x="484.2311320754717" y="750.438679245283" type="curve"/>
      <point x="481.16037735849056" y="677.0188679245283"/>
      <point x="480.2830188679245" y="649.0896226415094"/>
      <point x="476.77358490566036" y="573.2830188679245" type="curve"/>
      <point x="501.49056603773585" y="573.2830188679245"/>
      <point x="515.6650943396227" y="573.2830188679245"/>
    </contour>
    <component base="l.mono"/>
  </outline>
</glyph>
<glyph name="ldot" format="2">
  <advance width="600.0"/>
  <unicode hex="0140"/>
  <outline>
    <contour>
      <point x="68.77358490566037" y="99.88679245283018" type="line"/>
      <point x="68.77358490566037" y="68.80188679245283"/>
      <point x="68.77358490566037" y="42.08490566037736"/>
      <point x="68.77358490566037" y="11.0" type="curve" smooth="yes"/>
      <point x="68.77358490566037" y="5.0"/>
      <point x="73.77358490566037" y="0.0"/>
      <point x="79.77358490566037" y="0.0" type="curve" smooth="yes"/>
      <point x="535.6132075471698" y="0.0" type="line"/>
      <point x="535.6132075471698" y="31.08490566037736"/>
      <point x="535.6132075471698" y="57.80188679245283"/>
      <point x="535.6132075471698" y="88.88679245283018" type="curve" smooth="yes"/>
      <point x="535.6132075471698" y="95.88679245283018"/>
      <point x="531.6132075471698" y="99.88679245283018"/>
      <point x="524.6132075471698" y="99.88679245283018" type="curve"/>
    </contour>
    <contour>
      <point x="542.3443396226415" y="342.5990566037736" type="curve"/>
      <point x="542.3443396226415" y="446.4009433962264" type="line" smooth="yes"/>
      <point x="542.3443396226415" y="453.4009433962264"/>
      <point x="538.3443396226415" y="457.4009433962264"/>
      <point x="531.3443396226415" y="457.4009433962264" type="curve" smooth="yes"/>
      <point x="495.433962264151" y="457.4009433962264"/>
      <point x="458.9622641509434" y="457.4009433962264"/>
      <point x="423.0518867924528" y="457.4009433962264" type="curve"/>
      <point x="423.0518867924528" y="353.5990566037736" type="line" smooth="yes"/>
      <point x="423.0518867924528" y="346.5990566037736"/>
      <point x="427.0518867924528" y="342.5990566037736"/>
      <point x="434.0518867924528" y="342.5990566037736" type="curve" smooth="yes"/>
      <point x="469.9622641509434" y="342.5990566037736"/>
      <point x="506.433962264151" y="342.5990566037736"/>
    </contour>
    <contour>
      <point x="84.38679245283018" y="750.0" type="curve"/>
      <point x="84.38679245283018" y="720.0377358490566"/>
      <point x="84.38679245283018" y="691.0754716981131"/>
      <point x="84.38679245283018" y="661.1132075471697" type="curve" smooth="yes"/>
      <point x="84.38679245283018" y="654.1132075471697"/>
      <point x="88.38679245283018" y="650.1132075471697"/>
      <point x="95.38679245283018" y="650.1132075471697" type="curve" smooth="yes"/>
      <point x="139.52830188679243" y="650.1132075471697"/>
      <point x="184.66981132075472" y="650.1132075471697"/>
      <point x="229.37264150943395" y="650.1132075471697" type="curve"/>
      <point x="246.32075471698116" y="650.1132075471697" type="line"/>
      <point x="246.32075471698116" y="474.16037735849056"/>
      <point x="246.32075471698116" y="296.7688679245283"/>
      <point x="246.32075471698116" y="120.81603773584905" type="curve" smooth="yes"/>
      <point x="246.32075471698116" y="99.58962264150944"/>
      <point x="246.32075471698116" y="82.7311320754717"/>
      <point x="246.32075471698116" y="63.188679245283026" type="curve"/>
      <point x="234.2688679245283" y="48.13679245283019" type="line"/>
      <point x="352.45283018867923" y="48.13679245283019" type="line"/>
      <point x="352.45283018867923" y="278.27830188679246"/>
      <point x="352.45283018867923" y="508.85849056603774"/>
      <point x="352.45283018867923" y="739.0" type="curve" smooth="yes"/>
      <point x="352.45283018867923" y="745.0"/>
      <point x="347.45283018867923" y="750.0"/>
      <point x="341.45283018867923" y="750.0" type="curve"/>
      <point x="255.91037735849054" y="750.0"/>
      <point x="169.92924528301887" y="750.0"/>
    </contour>
  </outline>
</glyph>
<glyph name="Tbar" format="2">
  <advance width="600.0"/>
  <unicode hex="0166"/>
  <outline>
    <contour>
      <point x="70.0" y="372.25943396226415" type="line"/>
      <point x="70.0" y="343.4198113207547"/>
      <point x="70.0" y="317.14150943396226"/>
      <point x="70.0" y="288.3018867924528" type="curve" smooth="yes"/>
      <point x="70.0" y="281.3018867924528"/>
      <point x="74.0" y="277.3018867924528"/>
      <point x="81.0" y="277.3018867924528" type="curve" smooth="yes"/>
      <point x="530.0" y="277.3018867924528" type="line"/>
      <point x="530.0" y="306.14150943396226"/>
      <point x="530.0" y="332.4198113207547"/>
      <point x="530.0" y="361.25943396226415" type="curve" smooth="yes"/>
      <point x="530.0" y="368.25943396226415"/>
      <point x="526.0" y="372.25943396226415"/>
      <point x="519.0" y="372.25943396226415" type="curve"/>
    </contour>
    <component base="T"/>
  </outline>
</glyph>
<glyph name="Dzcaron" format="2">
  <advance width="600.0"/>
  <unicode hex="01C5"/>
  <outline>
    <contour>
      <point x="149.3679245283019" y="700.0" type="curve"/>
      <point x="109.92924528301887" y="700.0"/>
      <point x="42.24528301886792" y="700.0"/>
      <point x="17.193396226415096" y="700.0" type="curve"/>
      <point x="17.193396226415096" y="672.2830188679245"/>
      <point x="17.193396226415096" y="644.0047169811321"/>
      <point x="17.193396226415096" y="616.2877358490566" type="curve"/>
      <point x="17.193396226415096" y="609.2877358490566"/>
      <point x="21.193396226415096" y="605.2877358490566"/>
      <point x="28.193396226415096" y="605.2877358490566" type="curve" smooth="yes"/>
      <point x="53.73584905660377" y="605.2877358490566"/>
      <point x="103.50943396226415" y="605.2877358490566"/>
      <point x="146.1933962264151" y="605.2877358490566" type="curve" smooth="yes"/>
      <point x="171.33490566037736" y="605.2877358490566"/>
      <point x="189.16037735849056" y="600.9716981132076"/>
      <point x="199.79245283018867" y="587.7783018867924" type="curve" smooth="yes"/>
      <point x="209.74056603773585" y="575.7075471698113"/>
      <point x="214.05660377358492" y="557.3207547169811"/>
      <point x="214.05660377358492" y="529.7405660377358" type="curve" smooth="yes"/>
      <point x="214.05660377358492" y="170.83962264150944" type="line" smooth="yes"/>
      <point x="214.05660377358492" y="108.66037735849056"/>
      <point x="199.6698113207547" y="94.7122641509434"/>
      <point x="151.85849056603774" y="94.7122641509434" type="curve" smooth="yes"/>
      <point x="137.9622641509434" y="94.7122641509434"/>
      <point x="130.33018867924528" y="94.7122641509434"/>
      <point x="123.3301886792453" y="94.7122641509434" type="curve"/>
      <point x="123.3301886792453" y="236.64622641509433"/>
      <point x="123.3301886792453" y="378.0188679245283"/>
      <point x="123.3301886792453" y="519.5141509433963" type="curve" smooth="yes"/>
      <point x="123.3301886792453" y="555.8301886792453"/>
      <point x="123.3301886792453" y="592.7075471698113"/>
      <point x="123.3301886792453" y="628.5849056603773" type="curve"/>
      <point x="132.01415094339623" y="647.4433962264151" type="line"/>
      <point x="30.353773584905657" y="700.0" type="line"/>
      <point x="30.353773584905657" y="435.6698113207547"/>
      <point x="30.353773584905657" y="222.77358490566039"/>
      <point x="30.353773584905657" y="11.0" type="curve"/>
      <point x="30.353773584905657" y="4.0"/>
      <point x="34.35377358490565" y="0.0"/>
      <point x="41.35377358490565" y="0.0" type="curve" smooth="yes"/>
      <point x="56.283018867924525" y="0.0"/>
      <point x="92.16037735849056" y="0.0"/>
      <point x="149.8066037735849" y="0.0" type="curve" smooth="yes"/>
      <point x="259.66509433962267" y="0.0"/>
      <point x="307.0330188679245" y="43.10377358490566"/>
      <point x="307.0330188679245" y="178.13679245283018" type="curve" smooth="yes"/>
      <point x="307.0330188679245" y="538.2830188679246" type="line" smooth="yes"/>
      <point x="307.0330188679245" y="649.6320754716982"/>
      <point x="264.7877358490566" y="700.0"/>
    </contour>
    <contour>
      <point x="333.7358490566038" y="533.8584905660377" type="line"/>
      <point x="333.7358490566038" y="503.89622641509436"/>
      <point x="333.7358490566038" y="474.4952830188679"/>
      <point x="333.7358490566038" y="444.5330188679245" type="curve" smooth="yes"/>
      <point x="333.7358490566038" y="437.5330188679245"/>
      <point x="336.6132075471698" y="433.5330188679245"/>
      <point x="341.9292452830189" y="433.5330188679245" type="curve" smooth="yes"/>
      <point x="502.566037735849" y="433.5330188679245" type="line"/>
      <point x="502.566037735849" y="417.04245283018867" type="line"/>
      <point x="488.12735849056605" y="397.6556603773585"/>
      <point x="474.5660377358491" y="377.39150943396226"/>
      <point x="460.5660377358491" y="352.8820754716981" type="curve" smooth="yes"/>
      <point x="423.84433962264154" y="287.1745283018868"/>
      <point x="384.0" y="212.60849056603772"/>
      <point x="333.7358490566038" y="116.39622641509435" type="curve"/>
      <point x="333.7358490566038" y="11.0" type="line" smooth="yes"/>
      <point x="333.7358490566038" y="4.0"/>
      <point x="336.6132075471698" y="0.0"/>
      <point x="341.9292452830189" y="0.0" type="curve" smooth="yes"/>
      <point x="592.1037735849056" y="0.0" type="line"/>
      <point x="592.1037735849056" y="29.962264150943398"/>
      <point x="592.1037735849056" y="59.363207547169814"/>
      <point x="592.1037735849056" y="89.3254716981132" type="curve" smooth="yes"/>
      <point x="592.1037735849056" y="96.3254716981132"/>
      <point x="589.2264150943396" y="100.3254716981132"/>
      <point x="583.9103773584906" y="100.3254716981132" type="curve"/>
      <point x="423.27358490566036" y="100.3254716981132" type="line"/>
      <point x="423.27358490566036" y="116.37735849056604" type="line"/>
      <point x="437.27358490566036" y="137.44811320754718"/>
      <point x="450.27358490566036" y="157.95754716981133"/>
      <point x="466.5188679245283" y="185.51886792452834" type="curve" smooth="yes"/>
      <point x="502.4339622641509" y="250.98113207547172"/>
      <point x="542.1556603773586" y="324.8632075471698"/>
      <point x="592.1037735849056" y="417.4622641509434" type="curve"/>
      <point x="592.1037735849056" y="522.8584905660377" type="line" smooth="yes"/>
      <point x="592.1037735849056" y="529.8584905660377"/>
      <point x="589.2264150943396" y="533.8584905660377"/>
      <point x="583.9103773584906" y="533.8584905660377" type="curve"/>
    </contour>
    <contour>
      <point x="510.25943396226415" y="634.6132075471698" type="curve"/>
      <point x="532.2783018867924" y="668.8066037735849"/>
      <point x="588.2452830188679" y="760.5424528301887"/>
      <point x="611.2641509433962" y="799.6132075471698" type="curve" smooth="yes"/>
      <point x="623.8962264150944" y="820.4905660377359"/>
      <point x="624.8962264150944" y="822.0518867924528"/>
      <point x="624.8962264150944" y="827.6132075471698" type="curve" smooth="yes"/>
      <point x="624.8962264150944" y="832.6132075471698"/>
      <point x="622.8962264150944" y="836.6132075471698"/>
      <point x="613.2122641509435" y="836.6132075471698" type="curve" smooth="yes"/>
      <point x="550.7075471698113" y="836.6132075471698" type="line"/>
      <point x="529.372641509434" y="803.5943396226414"/>
      <point x="500.2122641509434" y="760.9433962264151"/>
      <point x="458.0330188679245" y="696.7830188679245" type="curve"/>
      <point x="486.6839622641509" y="718.9056603773585" type="line"/>
      <point x="446.49056603773585" y="718.9056603773585" type="line"/>
      <point x="475.7028301886793" y="697.9056603773585" type="line"/>
      <point x="434.0330188679245" y="761.1179245283018"/>
      <point x="410.188679245283" y="803.8396226415094"/>
      <point x="396.1698113207547" y="824.7358490566038" type="curve" smooth="yes"/>
      <point x="389.8537735849057" y="834.6132075471698"/>
      <point x="385.0990566037736" y="836.6132075471698"/>
      <point x="373.4669811320755" y="836.6132075471698" type="curve" smooth="yes"/>
      <point x="354.66037735849056" y="836.6132075471698"/>
      <point x="323.83962264150944" y="836.6132075471698"/>
      <point x="305.0330188679245" y="836.6132075471698" type="curve"/>
      <point x="339.9292452830189" y="777.7358490566038"/>
      <point x="393.82547169811323" y="682.683962264151"/>
      <point x="410.4056603773585" y="656.6132075471698" type="curve" smooth="yes"/>
      <point x="422.9150943396226" y="637.1745283018869"/>
      <point x="427.2311320754717" y="634.6132075471698"/>
      <point x="434.42452830188677" y="634.6132075471698" type="curve" smooth="yes"/>
      <point x="448.0377358490566" y="634.6132075471698"/>
      <point x="494.89150943396226" y="634.6132075471698"/>
    </contour>
  </outline>
</glyph>
<glyph name="lj" format="2">
  <advance width="600.0"/>
  <unicode hex="01C9"/>
  <outline>
    <contour>
      <point x="0.0" y="750.0" type="curve"/>
      <point x="0.0" y="722.2830188679245"/>
      <point x="0.0" y="695.127358490566"/>
      <point x="0.0" y="667.4103773584906" type="curve" smooth="yes"/>
      <point x="0.0" y="660.4103773584906"/>
      <point x="4.0" y="656.4103773584906"/>
      <point x="11.0" y="656.4103773584906" type="curve" smooth="yes"/>
      <point x="30.160377358490564" y="656.4103773584906"/>
      <point x="52.089622641509436" y="656.4103773584906"/>
      <point x="73.93396226415095" y="656.4103773584906" type="curve"/>
      <point x="88.86320754716981" y="656.4103773584906" type="line"/>
      <point x="88.86320754716981" y="518.0801886792453"/>
      <point x="88.86320754716981" y="280.4858490566038"/>
      <point x="88.86320754716981" y="142.1556603773585" type="curve" smooth="yes"/>
      <point x="88.86320754716981" y="46.490566037735846"/>
      <point x="131.72169811320754" y="0.0"/>
      <point x="238.94811320754718" y="0.0" type="curve" smooth="yes"/>
      <point x="280.3679245283019" y="0.0"/>
      <point x="309.08962264150944" y="0.0"/>
      <point x="329.0" y="0.0" type="curve" smooth="yes"/>
      <point x="336.0" y="0.0"/>
      <point x="340.0" y="4.0"/>
      <point x="340.0" y="11.0" type="curve" smooth="yes"/>
      <point x="340.0" y="38.716981132075475"/>
      <point x="340.0" y="65.87264150943398"/>
      <point x="340.0" y="93.58962264150944" type="curve"/>
      <point x="323.50943396226415" y="93.58962264150944" type="line"/>
      <point x="298.8066037735849" y="93.58962264150944"/>
      <point x="285.17452830188677" y="93.58962264150944"/>
      <point x="248.68396226415092" y="93.58962264150944" type="curve" smooth="yes"/>
      <point x="227.91037735849056" y="93.58962264150944"/>
      <point x="214.33018867924528" y="96.90566037735849"/>
      <point x="205.82075471698113" y="105.41509433962264" type="curve" smooth="yes"/>
      <point x="197.31132075471697" y="113.9245283018868"/>
      <point x="194.99528301886795" y="126.06603773584904"/>
      <point x="194.99528301886795" y="145.5943396226415" type="curve" smooth="yes"/>
      <point x="194.99528301886795" y="310.64150943396226"/>
      <point x="194.99528301886795" y="573.9528301886793"/>
      <point x="194.99528301886795" y="739.0" type="curve" smooth="yes"/>
      <point x="194.99528301886795" y="746.0"/>
      <point x="190.99528301886795" y="750.0"/>
      <point x="183.99528301886795" y="750.0" type="curve" smooth="yes"/>
      <point x="150.41509433962264" y="750.0"/>
      <point x="37.0377358490566" y="750.0"/>
    </contour>
    <contour>
      <point x="554.7688679245283" y="533.8584905660377" type="curve" smooth="yes"/>
      <point x="448.438679245283" y="533.8584905660377"/>
      <point x="373.86320754716985" y="533.8584905660377"/>
      <point x="327.19339622641513" y="533.8584905660377" type="curve"/>
      <point x="327.19339622641513" y="503.89622641509436"/>
      <point x="327.19339622641513" y="474.9339622641509"/>
      <point x="327.19339622641513" y="444.97169811320754" type="curve" smooth="yes"/>
      <point x="327.19339622641513" y="437.97169811320754"/>
      <point x="331.19339622641513" y="433.97169811320754"/>
      <point x="338.19339622641513" y="433.97169811320754" type="curve" smooth="yes"/>
      <point x="368.16037735849056" y="433.97169811320754"/>
      <point x="419.3018867924528" y="433.97169811320754"/>
      <point x="447.6367924528302" y="433.97169811320754" type="curve"/>
      <point x="459.6367924528302" y="433.97169811320754" type="line"/>
      <point x="459.6367924528302" y="293.05660377358487"/>
      <point x="459.6367924528302" y="151.58018867924528"/>
      <point x="459.6367924528302" y="-37.0377358490566" type="curve" smooth="yes"/>
      <point x="459.6367924528302" y="-76.32075471698113"/>
      <point x="452.0047169811321" y="-102.65566037735849"/>
      <point x="436.74056603773585" y="-120.04245283018868" type="curve"/>
      <point x="421.35377358490564" y="-137.42924528301887"/>
      <point x="396.6509433962264" y="-145.18396226415095"/>
      <point x="364.50943396226415" y="-145.18396226415095" type="curve" smooth="yes"/>
      <point x="324.5801886792453" y="-145.18396226415095"/>
      <point x="297.5801886792453" y="-139.18396226415095"/>
      <point x="264.14150943396226" y="-123.3066037735849" type="curve"/>
      <point x="247.6509433962264" y="-123.3066037735849" type="line"/>
      <point x="247.6509433962264" y="-154.83018867924528"/>
      <point x="248.0896226415094" y="-181.4245283018868"/>
      <point x="248.0896226415094" y="-212.94811320754718" type="curve" smooth="yes"/>
      <point x="248.0896226415094" y="-216.3867924528302"/>
      <point x="248.6509433962264" y="-218.94811320754718"/>
      <point x="250.6509433962264" y="-220.94811320754718" type="curve" smooth="yes"/>
      <point x="265.2122641509434" y="-235.50943396226413"/>
      <point x="307.14150943396226" y="-250.0"/>
      <point x="368.17452830188677" y="-250.0" type="curve" smooth="yes"/>
      <point x="504.6981132075471" y="-250.0"/>
      <point x="565.7688679245283" y="-177.4056603773585"/>
      <point x="565.7688679245283" y="-27.93396226415094" type="curve" smooth="yes"/>
      <point x="565.7688679245283" y="175.94811320754718"/>
      <point x="565.7688679245283" y="356.2641509433962"/>
      <point x="565.7688679245283" y="522.8584905660377" type="curve" smooth="yes"/>
      <point x="565.7688679245283" y="529.2971698113207"/>
      <point x="561.2075471698113" y="533.8584905660377"/>
    </contour>
    <contour>
      <point x="440.70754716981133" y="781.8207547169811" type="curve"/>
      <point x="440.70754716981133" y="673.5283018867924" type="line" smooth="yes"/>
      <point x="440.70754716981133" y="666.5283018867924"/>
      <point x="444.70754716981133" y="662.5283018867924"/>
      <point x="451.70754716981133" y="662.5283018867924" type="curve" smooth="yes"/>
      <point x="493.23113207547175" y="662.5283018867924"/>
      <point x="540.9292452830189" y="662.5283018867924"/>
      <point x="582.4528301886792" y="662.5283018867924" type="curve"/>
      <point x="582.4528301886792" y="770.8207547169811" type="line" smooth="yes"/>
      <point x="582.4528301886792" y="777.8207547169811"/>
      <point x="578.4528301886792" y="781.8207547169811"/>
      <point x="571.4528301886792" y="781.8207547169811" type="curve" smooth="yes"/>
      <point x="529.9292452830189" y="781.8207547169811"/>
      <point x="482.23113207547175" y="781.8207547169811"/>
    </contour>
  </outline>
</glyph>
<glyph name="nhookleft" format="2">
  <advance width="600.0"/>
  <unicode hex="0272"/>
  <outline>
    <contour>
      <point x="38.43867924528302" y="-71.66981132075472" type="curve" smooth="yes"/>
      <point x="21.367924528301888" y="-71.66981132075472"/>
      <point x="9.858490566037737" y="-67.0377358490566"/>
      <point x="-5.528301886792452" y="-58.65094339622641" type="curve"/>
      <point x="-22.0188679245283" y="-58.65094339622641" type="line"/>
      <point x="-22.0188679245283" y="-88.49056603773585"/>
      <point x="-22.0188679245283" y="-117.5754716981132"/>
      <point x="-22.0188679245283" y="-146.85377358490567" type="curve" smooth="yes"/>
      <point x="-22.0188679245283" y="-150.29245283018867"/>
      <point x="-21.0188679245283" y="-152.85377358490567"/>
      <point x="-19.0188679245283" y="-154.85377358490567" type="curve" smooth="yes"/>
      <point x="-8.702830188679245" y="-165.16981132075472"/>
      <point x="20.910377358490567" y="-174.36320754716982"/>
      <point x="50.033018867924525" y="-174.36320754716982" type="curve" smooth="yes"/>
      <point x="57.278301886792455" y="-174.36320754716982" type="line" smooth="yes"/>
      <point x="152.43396226415095" y="-174.36320754716982"/>
      <point x="199.29245283018867" y="-103.5754716981132"/>
      <point x="199.29245283018867" y="-5.929245283018869" type="curve" smooth="yes"/>
      <point x="199.29245283018867" y="2.2452830188679247" type="line" smooth="yes"/>
      <point x="199.29245283018867" y="9.0"/>
      <point x="191.41509433962264" y="11.877358490566039"/>
      <point x="87.54716981132076" y="11.877358490566039" type="curve"/>
      <point x="87.54716981132076" y="-0.4905660377358494" type="line" smooth="yes"/>
      <point x="87.54716981132076" y="-52.966981132075475"/>
      <point x="70.28301886792453" y="-71.66981132075472"/>
    </contour>
    <component base="n"/>
  </outline>
</glyph>
<glyph name="gravecomb" format="2">
  <unicode hex="0300"/>
  <anchor x="0.0" y="543.7358490566038" name="_top"/>
  <outline>
    <contour>
      <point x="-63.44339622641509" y="818.1603773584906" type="curve"/>
      <point x="-108.89622641509433" y="818.1603773584906"/>
      <point x="-139.66509433962264" y="818.1603773584906"/>
      <point x="-182.24056603773585" y="818.1603773584906" type="curve" smooth="yes"/>
      <point x="-191.1179245283019" y="818.1603773584906"/>
      <point x="-194.80188679245282" y="809.2830188679245"/>
      <point x="-188.80188679245282" y="801.8443396226415" type="curve" smooth="yes"/>
      <point x="-139.55660377358492" y="743.0896226415094"/>
      <point x="-106.69811320754718" y="704.9150943396227"/>
      <point x="-49.89150943396227" y="638.1603773584906" type="curve" smooth="yes"/>
      <point x="-46.89150943396227" y="634.1603773584906"/>
      <point x="-40.89150943396227" y="630.1603773584906"/>
      <point x="-32.89150943396227" y="630.1603773584906" type="curve" smooth="yes"/>
      <point x="-2.6132075471698117" y="630.1603773584906"/>
      <point x="23.419811320754718" y="630.1603773584906"/>
      <point x="50.01415094339623" y="630.1603773584906" type="curve"/>
      <point x="13.259433962264154" y="691.2830188679245"/>
      <point x="-25.249999999999996" y="754.5990566037735"/>
    </contour>
  </outline>
</glyph>
<glyph name="dotbelowcomb" format="2">
  <unicode hex="0323"/>
  <anchor x="0.0" y="-0.4386792452830188" name="_bottom"/>
  <anchor x="0.0" y="-158.83962264150944" name="_dot"/>
  <outline>
    <contour>
      <point x="-68.06603773584905" y="-100.87735849056604" type="curve"/>
      <point x="-68.06603773584905" y="-209.16981132075472" type="line" smooth="yes"/>
      <point x="-68.06603773584905" y="-216.16981132075472"/>
      <point x="-64.06603773584905" y="-220.16981132075472"/>
      <point x="-57.06603773584906" y="-220.16981132075472" type="curve" smooth="yes"/>
      <point x="-15.54245283018868" y="-220.16981132075472"/>
      <point x="26.54245283018868" y="-220.16981132075472"/>
      <point x="68.06603773584905" y="-220.16981132075472" type="curve"/>
      <point x="68.06603773584905" y="-111.87735849056604" type="line" smooth="yes"/>
      <point x="68.06603773584905" y="-104.87735849056604"/>
      <point x="64.06603773584905" y="-100.87735849056604"/>
      <point x="57.06603773584906" y="-100.87735849056604" type="curve" smooth="yes"/>
      <point x="15.54245283018868" y="-100.87735849056604"/>
      <point x="-26.54245283018868" y="-100.87735849056604"/>
    </contour>
  </outline>
</glyph>
<glyph name="quoteleft" format="2">
  <advance width="600.0"/>
  <unicode hex="2018"/>
  <outline>
    <contour>
      <point x="309.16037735849056" y="750.0" type="curve" smooth="yes"/>
      <point x="304.16037735849056" y="750.0"/>
      <point x="301.16037735849056" y="749.0"/>
      <point x="299.16037735849056" y="743.0" type="curve" smooth="yes"/>
      <point x="264.2311320754717" y="649.1933962264151"/>
      <point x="223.05660377358492" y="543.4575471698113"/>
      <point x="189.25" y="455.70283018867923" type="curve" smooth="yes"/>
      <point x="186.25" y="447.70283018867923"/>
      <point x="189.25" y="442.70283018867923"/>
      <point x="197.25" y="442.70283018867923" type="curve" smooth="yes"/>
      <point x="252.45754716981133" y="442.70283018867923"/>
      <point x="284.8066037735849" y="442.70283018867923"/>
      <point x="349.3820754716981" y="442.70283018867923" type="curve"/>
      <point x="373.3820754716981" y="546.0707547169811"/>
      <point x="396.25943396226415" y="644.9481132075472"/>
      <point x="420.25943396226415" y="750.0" type="curve"/>
      <point x="393.66509433962267" y="750.0"/>
      <point x="352.85849056603774" y="750.0"/>
    </contour>
  </outline>
</glyph>
<glyph name="quotedblleft" format="2">
  <advance width="600.0"/>
  <unicode hex="201C"/>
  <outline>
    <contour>
      <point x="296.22641509433964" y="750.0" type="curve"/>
      <point x="269.6320754716981" y="750.0"/>
      <point x="235.1933962264151" y="750.0"/>
      <point x="191.49528301886795" y="750.0" type="curve" smooth="yes"/>
      <point x="186.49528301886795" y="750.0"/>
      <point x="183.49528301886795" y="749.0"/>
      <point x="181.49528301886795" y="743.0" type="curve"/>
      <point x="146.12735849056602" y="645.9481132075471"/>
      <point x="111.68867924528303" y="552.7547169811321"/>
      <point x="75.32075471698111" y="455.70283018867923" type="curve"/>
      <point x="72.32075471698111" y="447.70283018867923"/>
      <point x="75.32075471698111" y="442.70283018867923"/>
      <point x="83.32075471698111" y="442.70283018867923" type="curve" smooth="yes"/>
      <point x="138.52830188679246" y="442.70283018867923"/>
      <point x="159.6509433962264" y="442.70283018867923"/>
      <point x="224.22641509433964" y="442.70283018867923" type="curve"/>
      <point x="248.22641509433964" y="545.5094339622641"/>
      <point x="272.22641509433964" y="645.5094339622641"/>
    </contour>
    <contour>
      <point x="524.2924528301886" y="750.0" type="curve"/>
      <point x="497.6981132075472" y="750.0"/>
      <point x="463.25943396226415" y="750.0"/>
      <point x="419.561320754717" y="750.0" type="curve" smooth="yes"/>
      <point x="414.561320754717" y="750.0"/>
      <point x="411.561320754717" y="749.0"/>
      <point x="409.561320754717" y="743.0" type="curve"/>
      <point x="374.19339622641513" y="645.9481132075471"/>
      <point x="339.7547169811321" y="552.7547169811321"/>
      <point x="303.3867924528302" y="455.70283018867923" type="curve"/>
      <point x="300.3867924528302" y="447.70283018867923"/>
      <point x="303.3867924528302" y="442.70283018867923"/>
      <point x="311.3867924528302" y="442.70283018867923" type="curve" smooth="yes"/>
      <point x="366.59433962264154" y="442.70283018867923"/>
      <point x="387.7169811320755" y="442.70283018867923"/>
      <point x="452.29245283018867" y="442.70283018867923" type="curve"/>
      <point x="476.29245283018867" y="545.5094339622641"/>
      <point x="500.29245283018867" y="645.5094339622641"/>
    </contour>
  </outline>
</glyph>
<glyph name="bullet" format="2">
  <advance width="600.0"/>
  <unicode hex="2022"/>
  <outline>
    <contour>
      <point x="428.0660377358491" y="172.37264150943395" type="curve"/>
      <point x="428.0660377358491" y="417.5047169811321" type="line" smooth="yes"/>
      <point x="428.0660377358491" y="424.5047169811321"/>
      <point x="424.0660377358491" y="428.5047169811321"/>
      <point x="417.0660377358491" y="428.5047169811321" type="curve"/>
      <point x="352.47169811320754" y="428.5047169811321"/>
      <point x="236.52830188679246" y="428.5047169811321"/>
      <point x="171.93396226415095" y="428.5047169811321" type="curve"/>
      <point x="171.93396226415095" y="183.37264150943395" type="line" smooth="yes"/>
      <point x="171.93396226415095" y="176.37264150943395"/>
      <point x="175.93396226415095" y="172.37264150943395"/>
      <point x="182.93396226415095" y="172.37264150943395" type="curve" smooth="yes"/>
      <point x="247.52830188679246" y="172.37264150943395"/>
      <point x="363.47169811320754" y="172.37264150943395"/>
    </contour>
  </outline>
</glyph>
<glyph name="fraction" format="2">
  <advance width="600.0"/>
  <unicode hex="2044"/>
  <outline>
    <contour>
      <point x="364.0188679245283" y="405.0" type="curve"/>
      <point x="374.14150943396226" y="405.0"/>
      <point x="439.5047169811321" y="405.0"/>
      <point x="449.0660377358491" y="405.0" type="curve" smooth="yes"/>
      <point x="454.0660377358491" y="405.0"/>
      <point x="456.62735849056605" y="406.0"/>
      <point x="459.0660377358491" y="412.0" type="curve" smooth="yes"/>
      <point x="482.49056603773585" y="462.0943396226415"/>
      <point x="555.188679245283" y="646.9056603773585"/>
      <point x="578.6132075471698" y="697.0" type="curve" smooth="yes"/>
      <point x="582.0518867924528" y="705.0"/>
      <point x="578.6132075471698" y="710.0"/>
      <point x="570.6132075471698" y="710.0" type="curve" smooth="yes"/>
      <point x="560.1745283018868" y="710.0"/>
      <point x="485.8490566037736" y="710.0"/>
      <point x="476.2877358490566" y="710.0" type="curve"/>
      <point x="452.6698113207547" y="659.0801886792453"/>
      <point x="388.6367924528302" y="457.60377358490564"/>
    </contour>
    <contour>
      <point x="235.9811320754717" y="296.0" type="curve"/>
      <point x="225.85849056603774" y="296.0"/>
      <point x="160.49528301886792" y="296.0"/>
      <point x="150.93396226415095" y="296.0" type="curve" smooth="yes"/>
      <point x="145.93396226415095" y="296.0"/>
      <point x="143.37264150943395" y="295.0"/>
      <point x="140.93396226415095" y="289.0" type="curve" smooth="yes"/>
      <point x="117.50943396226415" y="238.9056603773585"/>
      <point x="44.81132075471698" y="54.094339622641506"/>
      <point x="21.38679245283019" y="4.0" type="curve" smooth="yes"/>
      <point x="17.94811320754717" y="-4.0"/>
      <point x="21.38679245283019" y="-9.0"/>
      <point x="29.38679245283019" y="-9.0" type="curve" smooth="yes"/>
      <point x="39.825471698113205" y="-9.0"/>
      <point x="114.15094339622641" y="-9.0"/>
      <point x="123.7122641509434" y="-9.0" type="curve"/>
      <point x="147.33018867924528" y="41.91981132075471"/>
      <point x="211.36320754716982" y="243.39622641509436"/>
    </contour>
  </outline>
</glyph>
<glyph name="rupee" format="2">
  <advance width="600.0"/>
  <unicode hex="20A8"/>
  <outline>
    <contour>
      <point x="29.89622641509434" y="700.0" type="curve"/>
      <point x="29.89622641509434" y="689.122641509434"/>
      <point x="29.89622641509434" y="677.9481132075472"/>
      <point x="29.89622641509434" y="668.4575471698113" type="curve" smooth="yes"/>
      <point x="29.89622641509434" y="647.8443396226415"/>
      <point x="60.41981132075472" y="603.6037735849056"/>
      <point x="86.91037735849056" y="603.6037735849056" type="curve" smooth="yes"/>
      <point x="107.01415094339623" y="603.6037735849056"/>
      <point x="142.43867924528303" y="603.6037735849056"/>
      <point x="168.26415094339623" y="603.6037735849056" type="curve" smooth="yes"/>
      <point x="193.6509433962264" y="603.6037735849056"/>
      <point x="214.5990566037736" y="596.4103773584906"/>
      <point x="227.66981132075472" y="582.4622641509434" type="curve"/>
      <point x="239.86320754716982" y="568.8301886792453"/>
      <point x="246.0566037735849" y="548.3207547169811"/>
      <point x="246.0566037735849" y="520.933962264151" type="curve" smooth="yes"/>
      <point x="246.0566037735849" y="438.6509433962264" type="line" smooth="yes"/>
      <point x="246.0566037735849" y="377.4198113207547"/>
      <point x="218.35377358490567" y="352.91037735849056"/>
      <point x="169.94811320754718" y="352.91037735849056" type="curve" smooth="yes"/>
      <point x="149.50943396226415" y="352.91037735849056"/>
      <point x="82.43867924528301" y="352.91037735849056"/>
      <point x="63.22641509433962" y="352.91037735849056" type="curve"/>
      <point x="63.22641509433962" y="252.56603773584905" type="line"/>
      <point x="113.87264150943396" y="259.3207547169811" type="line"/>
      <point x="128.82075471698113" y="259.3207547169811"/>
      <point x="179.03301886792454" y="259.3207547169811"/>
      <point x="190.91037735849056" y="259.3207547169811" type="curve" smooth="yes"/>
      <point x="271.6132075471698" y="259.3207547169811"/>
      <point x="323.3160377358491" y="303.14622641509436"/>
      <point x="323.3160377358491" y="416.688679245283" type="curve" smooth="yes"/>
      <point x="323.3160377358491" y="533.3537735849056" type="line" smooth="yes"/>
      <point x="323.3160377358491" y="648.6320754716982"/>
      <point x="271.4009433962264" y="700.0"/>
      <point x="172.94811320754718" y="700.0" type="curve" smooth="yes"/>
      <point x="136.94811320754718" y="700.0"/>
      <point x="62.31603773584906" y="700.0"/>
    </contour>
    <contour>
      <point x="127.01415094339623" y="700.0" type="line"/>
      <point x="29.89622641509434" y="700.0" type="line"/>
      <point x="29.89622641509434" y="616.9811320754717"/>
      <point x="29.89622641509434" y="33.509433962264154"/>
      <point x="29.89622641509434" y="11.0" type="curve" smooth="yes"/>
      <point x="29.89622641509434" y="4.0"/>
      <point x="33.89622641509434" y="0.0"/>
      <point x="40.89622641509434" y="0.0" type="curve" smooth="yes"/>
      <point x="51.65094339622641" y="0.0"/>
      <point x="105.62735849056604" y="0.0"/>
      <point x="116.9433962264151" y="0.0" type="curve"/>
      <point x="116.9433962264151" y="19.650943396226413"/>
      <point x="116.9433962264151" y="77.7877358490566"/>
      <point x="116.9433962264151" y="98.87735849056604" type="curve" smooth="yes"/>
      <point x="116.9433962264151" y="119.96698113207547"/>
      <point x="116.9433962264151" y="418.64150943396226"/>
      <point x="116.9433962264151" y="458.7688679245283" type="curve" smooth="yes"/>
      <point x="116.9433962264151" y="498.89622641509436"/>
      <point x="116.9433962264151" y="579.9669811320755"/>
      <point x="116.9433962264151" y="614.2169811320755" type="curve"/>
    </contour>
    <contour>
      <point x="409.45754716981133" y="-9.122641509433961" type="curve" smooth="yes"/>
      <point x="529.1933962264151" y="-9.122641509433961"/>
      <point x="583.7358490566038" y="36.12264150943396"/>
      <point x="583.7358490566038" y="143.45283018867926" type="curve" smooth="yes"/>
      <point x="583.7358490566038" y="217.25943396226415"/>
      <point x="565.1037735849056" y="247.69811320754718"/>
      <point x="502.47169811320754" y="294.7169811320755" type="curve" smooth="yes"/>
      <point x="485.27830188679246" y="307.7877358490566" type="line" smooth="yes"/>
      <point x="437.45283018867923" y="344.24528301886795"/>
      <point x="427.6981132075472" y="359.3160377358491"/>
      <point x="427.6981132075472" y="390.91509433962267" type="curve" smooth="yes"/>
      <point x="427.6981132075472" y="427.58490566037733"/>
      <point x="444.7688679245283" y="443.65566037735846"/>
      <point x="487.85849056603774" y="443.65566037735846" type="curve" smooth="yes"/>
      <point x="513.122641509434" y="443.65566037735846"/>
      <point x="532.7547169811321" y="437.9009433962264"/>
      <point x="552.0188679245283" y="425.39150943396226" type="curve"/>
      <point x="568.5094339622641" y="425.39150943396226" type="line"/>
      <point x="568.5094339622641" y="436.70754716981133"/>
      <point x="568.5094339622641" y="496.66509433962267"/>
      <point x="568.5094339622641" y="507.9811320754717" type="curve" smooth="yes"/>
      <point x="568.5094339622641" y="518.7877358490566"/>
      <point x="566.9481132075472" y="522.9103773584906"/>
      <point x="558.7028301886793" y="527.0330188679245" type="curve" smooth="yes"/>
      <point x="543.6320754716982" y="534.7877358490566"/>
      <point x="515.3679245283018" y="542.4198113207547"/>
      <point x="482.49056603773585" y="542.4198113207547" type="curve" smooth="yes"/>
      <point x="399.50943396226415" y="542.4198113207547"/>
      <point x="351.3867924528302" y="496.24528301886795"/>
      <point x="351.3867924528302" y="396.2830188679245" type="curve" smooth="yes"/>
      <point x="351.3867924528302" y="320.5990566037736"/>
      <point x="373.6320754716981" y="289.35377358490564"/>
      <point x="429.33490566037733" y="250.38679245283018" type="curve" smooth="yes"/>
      <point x="450.4056603773585" y="235.56132075471697" type="line" smooth="yes"/>
      <point x="491.74056603773585" y="206.1556603773585"/>
      <point x="500.6179245283019" y="186.33018867924528"/>
      <point x="500.6179245283019" y="152.1179245283019" type="curve" smooth="yes"/>
      <point x="500.6179245283019" y="112.58962264150944"/>
      <point x="478.79245283018867" y="90.64150943396227"/>
      <point x="410.33490566037733" y="90.64150943396227" type="curve" smooth="yes"/>
      <point x="343.0" y="90.64150943396227"/>
      <point x="310.6839622641509" y="107.20283018867926"/>
      <point x="287.3679245283019" y="175.71226415094338" type="curve" smooth="yes"/>
      <point x="272.54245283018867" y="218.75"/>
      <point x="257.3490566037736" y="267.7169811320755"/>
      <point x="238.7688679245283" y="324.14150943396226" type="curve"/>
      <point x="174.56132075471697" y="313.6132075471698" type="line"/>
      <point x="192.50943396226415" y="243.41981132075472"/>
      <point x="205.70283018867926" y="187.22641509433961"/>
      <point x="222.96698113207546" y="123.33018867924528" type="curve" smooth="yes"/>
      <point x="248.28301886792454" y="23.61320754716981"/>
      <point x="297.54716981132077" y="-9.122641509433961"/>
    </contour>
  </outline>
</glyph>
<glyph name="dong" format="2">
  <advance width="600.0"/>
  <unicode hex="20AB"/>
  <outline>
    <contour>
      <point x="512.4528301886793" y="136.83962264150944" type="curve"/>
      <point x="512.4528301886793" y="151.66509433962264"/>
      <point x="512.4528301886793" y="199.7688679245283"/>
      <point x="512.4528301886793" y="225.61320754716982" type="curve" smooth="yes"/>
      <point x="512.4528301886793" y="330.04245283018867"/>
      <point x="512.4528301886793" y="702.0849056603773"/>
      <point x="512.4528301886793" y="739.0" type="curve" smooth="yes"/>
      <point x="512.4528301886793" y="746.0"/>
      <point x="508.45283018867923" y="750.0"/>
      <point x="501.45283018867923" y="750.0" type="curve"/>
      <point x="488.45283018867923" y="750.0"/>
      <point x="414.8301886792453" y="750.0"/>
      <point x="403.5141509433962" y="750.0" type="curve"/>
      <point x="403.5141509433962" y="729.0330188679245"/>
      <point x="403.5141509433962" y="686.4198113207547"/>
      <point x="403.5141509433962" y="665.1556603773585" type="curve" smooth="yes"/>
      <point x="403.5141509433962" y="643.3301886792453"/>
      <point x="403.5141509433962" y="178.41981132075472"/>
      <point x="403.5141509433962" y="147.83962264150944" type="curve" smooth="yes"/>
      <point x="403.5141509433962" y="140.83962264150944"/>
      <point x="407.5141509433962" y="136.83962264150944"/>
      <point x="414.5141509433962" y="136.83962264150944" type="curve" smooth="yes"/>
      <point x="423.58490566037733" y="136.83962264150944"/>
      <point x="501.1367924528302" y="136.83962264150944"/>
    </contour>
    <contour>
      <point x="66.58018867924528" y="74.99528301886792" type="line"/>
      <point x="66.58018867924528" y="62.31132075471699"/>
      <point x="66.58018867924528" y="22.0"/>
      <point x="66.58018867924528" y="11.0" type="curve" smooth="yes"/>
      <point x="66.58018867924528" y="4.0"/>
      <point x="70.58018867924528" y="0.0"/>
      <point x="77.58018867924528" y="0.0" type="curve" smooth="yes"/>
      <point x="546.1320754716982" y="0.0" type="line"/>
      <point x="546.1320754716982" y="12.683962264150944"/>
      <point x="546.1320754716982" y="50.75"/>
      <point x="546.1320754716982" y="63.99528301886792" type="curve" smooth="yes"/>
      <point x="546.1320754716982" y="70.99528301886792"/>
      <point x="542.1320754716982" y="74.99528301886792"/>
      <point x="535.1320754716982" y="74.99528301886792" type="curve"/>
    </contour>
    <contour>
      <point x="192.29716981132074" y="689.8396226415094" type="line"/>
      <point x="192.29716981132074" y="677.1556603773585"/>
      <point x="192.29716981132074" y="649.3867924528302"/>
      <point x="192.29716981132074" y="638.3867924528302" type="curve" smooth="yes"/>
      <point x="192.29716981132074" y="631.3867924528302"/>
      <point x="196.29716981132074" y="627.3867924528302"/>
      <point x="203.29716981132074" y="627.3867924528302" type="curve" smooth="yes"/>
      <point x="585.6132075471698" y="627.3867924528302" type="line"/>
      <point x="585.6132075471698" y="637.8254716981132"/>
      <point x="585.6132075471698" y="667.2783018867924"/>
      <point x="585.6132075471698" y="678.8396226415094" type="curve" smooth="yes"/>
      <point x="585.6132075471698" y="685.8396226415094"/>
      <point x="581.6132075471698" y="689.8396226415094"/>
      <point x="574.6132075471698" y="689.8396226415094" type="curve"/>
    </contour>
    <contour>
      <point x="386.4622641509434" y="493.87264150943395" type="line"/>
      <point x="349.5141509433962" y="545.0849056603773"/>
      <point x="302.4433962264151" y="570.5943396226415"/>
      <point x="236.25" y="570.5943396226415" type="curve" smooth="yes"/>
      <point x="132.91509433962264" y="570.5943396226415"/>
      <point x="63.77358490566038" y="505.5047169811321"/>
      <point x="63.77358490566038" y="389.85377358490564" type="curve" smooth="yes"/>
      <point x="63.77358490566038" y="301.50943396226415" type="line" smooth="yes"/>
      <point x="63.77358490566038" y="183.43867924528303"/>
      <point x="132.91509433962264" y="126.83962264150944"/>
      <point x="228.93396226415095" y="126.83962264150944" type="curve" smooth="yes"/>
      <point x="292.00471698113205" y="126.83962264150944"/>
      <point x="346.1981132075472" y="144.83962264150944"/>
      <point x="387.58490566037733" y="202.1745283018868" type="curve"/>
      <point x="418.5141509433962" y="202.1745283018868" type="line"/>
      <point x="418.5141509433962" y="285.57547169811323" type="line"/>
      <point x="418.5141509433962" y="320.0330188679245" type="line"/>
      <point x="376.12735849056605" y="244.20283018867926"/>
      <point x="323.8443396226415" y="217.62264150943398"/>
      <point x="270.49056603773585" y="217.62264150943398" type="curve" smooth="yes"/>
      <point x="240.83962264150944" y="217.62264150943398"/>
      <point x="216.9433962264151" y="226.1320754716981"/>
      <point x="200.24056603773585" y="242.83490566037736" type="curve"/>
      <point x="182.66037735849056" y="260.85377358490564"/>
      <point x="172.71226415094338" y="289.0660377358491"/>
      <point x="172.71226415094338" y="327.5943396226415" type="curve" smooth="yes"/>
      <point x="172.71226415094338" y="365.45283018867923" type="line" smooth="yes"/>
      <point x="172.71226415094338" y="439.33490566037733"/>
      <point x="209.75" y="479.811320754717"/>
      <point x="270.49056603773585" y="479.811320754717" type="curve" smooth="yes"/>
      <point x="327.35377358490564" y="479.811320754717"/>
      <point x="379.5660377358491" y="442.45754716981133"/>
      <point x="418.5141509433962" y="377.0141509433962" type="curve"/>
      <point x="418.5141509433962" y="413.10377358490564" type="line"/>
      <point x="418.5141509433962" y="493.87264150943395" type="line"/>
    </contour>
  </outline>
</glyph>
<glyph name="turkishlira" format="2">
  <advance width="600.0"/>
  <unicode hex="20BA"/>
  <outline>
    <contour>
      <point x="30.56132075471698" y="311.99528301886795" type="curve"/>
      <point x="30.56132075471698" y="301.99528301886795"/>
      <point x="30.56132075471698" y="269.6132075471698"/>
      <point x="30.56132075471698" y="257.6132075471698" type="curve" smooth="yes"/>
      <point x="30.56132075471698" y="249.73584905660377"/>
      <point x="34.56132075471698" y="246.1745283018868"/>
      <point x="41.12264150943396" y="246.1745283018868" type="curve" smooth="yes"/>
      <point x="53.12264150943396" y="246.1745283018868"/>
      <point x="75.54245283018868" y="253.41981132075472"/>
      <point x="211.56132075471697" y="306.6132075471698" type="curve" smooth="yes"/>
      <point x="320.561320754717" y="349.17452830188677"/>
      <point x="366.561320754717" y="366.0518867924528"/>
      <point x="405.561320754717" y="381.6132075471698" type="curve"/>
      <point x="405.561320754717" y="391.6132075471698"/>
      <point x="405.561320754717" y="434.6792452830189"/>
      <point x="405.561320754717" y="442.6792452830189" type="curve" smooth="yes"/>
      <point x="405.561320754717" y="449.6792452830189"/>
      <point x="401.561320754717" y="453.6792452830189"/>
      <point x="394.561320754717" y="453.6792452830189" type="curve"/>
      <point x="386.6839622641509" y="453.6792452830189"/>
      <point x="363.82547169811323" y="444.75"/>
      <point x="202.56132075471697" y="380.1179245283019" type="curve" smooth="yes"/>
      <point x="83.56132075471699" y="332.6792452830189"/>
      <point x="52.56132075471698" y="320.99528301886795"/>
    </contour>
    <contour>
      <point x="30.56132075471698" y="452.87264150943395" type="curve"/>
      <point x="30.56132075471698" y="442.87264150943395"/>
      <point x="30.56132075471698" y="409.6132075471698"/>
      <point x="30.56132075471698" y="397.6132075471698" type="curve" smooth="yes"/>
      <point x="30.56132075471698" y="389.29716981132077"/>
      <point x="34.56132075471698" y="386.17452830188677"/>
      <point x="41.12264150943396" y="386.17452830188677" type="curve" smooth="yes"/>
      <point x="53.12264150943396" y="386.17452830188677"/>
      <point x="75.54245283018868" y="393.4198113207547"/>
      <point x="211.56132075471697" y="446.6132075471698" type="curve" smooth="yes"/>
      <point x="320.561320754717" y="489.17452830188677"/>
      <point x="366.561320754717" y="506.0518867924528"/>
      <point x="405.561320754717" y="521.6132075471698" type="curve"/>
      <point x="405.561320754717" y="531.6132075471698"/>
      <point x="405.561320754717" y="575.5566037735849"/>
      <point x="405.561320754717" y="583.5566037735849" type="curve" smooth="yes"/>
      <point x="405.561320754717" y="590.5566037735849"/>
      <point x="401.561320754717" y="594.5566037735849"/>
      <point x="394.561320754717" y="594.5566037735849" type="curve"/>
      <point x="386.6839622641509" y="594.5566037735849"/>
      <point x="363.82547169811323" y="585.627358490566"/>
      <point x="202.56132075471697" y="520.9952830188679" type="curve" smooth="yes"/>
      <point x="83.56132075471699" y="473.5566037735849"/>
      <point x="52.56132075471698" y="461.87264150943395"/>
    </contour>
    <contour>
      <point x="143.33490566037736" y="11.0" type="curve" smooth="yes"/>
      <point x="143.33490566037736" y="4.0"/>
      <point x="147.33490566037736" y="0.0"/>
      <point x="154.33490566037736" y="0.0" type="curve" smooth="yes"/>
      <point x="292.7877358490566" y="0.0" type="line" smooth="yes"/>
      <point x="478.47169811320754" y="0.0"/>
      <point x="561.1556603773585" y="77.40094339622641"/>
      <point x="561.1556603773585" y="234.6320754716981" type="curve" smooth="yes"/>
      <point x="561.1556603773585" y="257.16037735849056"/>
      <point x="561.1556603773585" y="286.75471698113205"/>
      <point x="561.1556603773585" y="298.75471698113205" type="curve" smooth="yes"/>
      <point x="561.1556603773585" y="306.3160377358491"/>
      <point x="557.1556603773585" y="310.3160377358491"/>
      <point x="549.5943396226415" y="310.3160377358491" type="curve"/>
      <point x="539.1556603773585" y="310.75471698113205"/>
      <point x="487.37264150943395" y="310.75471698113205"/>
      <point x="477.37264150943395" y="310.75471698113205" type="curve"/>
      <point x="461.75943396226415" y="310.75471698113205" type="line"/>
      <point x="461.75943396226415" y="300.75471698113205"/>
      <point x="461.75943396226415" y="268.22641509433964"/>
      <point x="461.75943396226415" y="242.50471698113208" type="curve" smooth="yes"/>
      <point x="461.75943396226415" y="134.36320754716982"/>
      <point x="408.5990566037736" y="97.7122641509434"/>
      <point x="308.0707547169811" y="97.7122641509434" type="curve" smooth="yes"/>
      <point x="205.85377358490567" y="97.7122641509434" type="line"/>
      <point x="235.85377358490567" y="67.7122641509434" type="line"/>
      <point x="235.85377358490567" y="147.71226415094338" type="line"/>
      <point x="225.85377358490567" y="83.3254716981132" type="line"/>
      <point x="243.9056603773585" y="135.35849056603774"/>
      <point x="249.4669811320755" y="167.35849056603774"/>
      <point x="249.4669811320755" y="247.71226415094338" type="curve" smooth="yes"/>
      <point x="249.4669811320755" y="312.7122641509434"/>
      <point x="249.4669811320755" y="677.0"/>
      <point x="249.4669811320755" y="689.0" type="curve" smooth="yes"/>
      <point x="249.4669811320755" y="696.0"/>
      <point x="245.4669811320755" y="700.0"/>
      <point x="238.4669811320755" y="700.0" type="curve"/>
      <point x="228.4669811320755" y="700.0"/>
      <point x="162.33490566037736" y="700.0"/>
      <point x="143.33490566037736" y="700.0" type="curve"/>
      <point x="143.33490566037736" y="639.0"/>
      <point x="143.33490566037736" y="528.0"/>
      <point x="143.33490566037736" y="516.0" type="curve" smooth="yes"/>
      <point x="143.33490566037736" y="504.0"/>
      <point x="143.33490566037736" y="70.00943396226415"/>
    </contour>
  </outline>
</glyph>
<glyph name="arrowleftright" format="2">
  <advance width="600.0"/>
  <unicode hex="2194"/>
  <outline>
    <contour>
      <point x="286.561320754717" y="298.8443396226415" type="curve" smooth="yes"/>
      <point x="311.19339622641513" y="298.8443396226415" type="line" smooth="yes"/>
      <point x="344.08962264150944" y="298.8443396226415"/>
      <point x="381.8820754716981" y="304.08962264150944"/>
      <point x="452.9528301886793" y="322.6839622641509" type="curve"/>
      <point x="452.9528301886793" y="329.6839622641509"/>
      <point x="452.9528301886793" y="346.2971698113207"/>
      <point x="452.9528301886793" y="353.2971698113207" type="curve" smooth="yes"/>
      <point x="452.9528301886793" y="360.2971698113207"/>
      <point x="450.07547169811323" y="365.4198113207547"/>
      <point x="443.07547169811323" y="367.6650943396226" type="curve" smooth="yes"/>
      <point x="391.74056603773585" y="382.45283018867923"/>
      <point x="350.8254716981132" y="388.13679245283015"/>
      <point x="316.24528301886795" y="388.13679245283015" type="curve" smooth="yes"/>
      <point x="283.7547169811321" y="388.13679245283015" type="line" smooth="yes"/>
      <point x="250.29716981132074" y="388.13679245283015"/>
      <point x="211.9433962264151" y="382.3301886792453"/>
      <point x="147.04716981132077" y="364.2971698113207" type="curve"/>
      <point x="147.04716981132077" y="357.2971698113207"/>
      <point x="147.04716981132077" y="342.36792452830184"/>
      <point x="147.04716981132077" y="335.36792452830184" type="curve" smooth="yes"/>
      <point x="147.04716981132077" y="328.36792452830184"/>
      <point x="150.4858490566038" y="324.36792452830184"/>
      <point x="157.4858490566038" y="322.12264150943395" type="curve" smooth="yes"/>
      <point x="208.82075471698113" y="307.8962264150943"/>
      <point x="253.10377358490567" y="298.8443396226415"/>
    </contour>
    <contour>
      <point x="7.754716981132075" y="393.38207547169816" type="curve"/>
      <point x="7.754716981132075" y="309.5990566037736" type="line" smooth="yes"/>
      <point x="7.754716981132075" y="297.5990566037736"/>
      <point x="8.754716981132075" y="291.5990566037736"/>
      <point x="16.754716981132077" y="282.5990566037736" type="curve" smooth="yes"/>
      <point x="83.87735849056604" y="207.16037735849056"/>
      <point x="141.41981132075472" y="146.4245283018868"/>
      <point x="213.9811320754717" y="67.54716981132076" type="curve" smooth="yes"/>
      <point x="226.54245283018867" y="54.54716981132075"/>
      <point x="230.9811320754717" y="51.54716981132076"/>
      <point x="235.9811320754717" y="51.54716981132076" type="curve" smooth="yes"/>
      <point x="239.9811320754717" y="51.54716981132076"/>
      <point x="242.9811320754717" y="53.54716981132076"/>
      <point x="242.9811320754717" y="60.54716981132074" type="curve"/>
      <point x="242.9811320754717" y="73.54716981132074"/>
      <point x="242.9811320754717" y="159.3443396226415"/>
      <point x="242.9811320754717" y="174.3443396226415" type="curve"/>
      <point x="157.7169811320755" y="256.9433962264151"/>
      <point x="112.38207547169812" y="299.7169811320755"/>
      <point x="65.87264150943398" y="346.17452830188677" type="curve"/>
      <point x="81.87264150943396" y="304.0" type="line"/>
      <point x="81.87264150943396" y="372.0" type="line"/>
      <point x="65.87264150943398" y="337.6839622641509" type="line"/>
      <point x="115.75" y="388.19339622641513"/>
      <point x="177.08490566037736" y="447.16037735849056"/>
      <point x="242.9811320754717" y="514.3207547169811" type="curve"/>
      <point x="242.9811320754717" y="529.3207547169811"/>
      <point x="242.9811320754717" y="604.4528301886792"/>
      <point x="242.9811320754717" y="615.4528301886792" type="curve"/>
      <point x="242.9811320754717" y="623.4528301886793"/>
      <point x="239.9811320754717" y="626.4528301886792"/>
      <point x="234.9811320754717" y="626.4528301886792" type="curve" smooth="yes"/>
      <point x="228.9811320754717" y="626.4528301886792"/>
      <point x="223.54245283018867" y="622.5754716981131"/>
      <point x="215.9811320754717" y="614.5754716981132" type="curve" smooth="yes"/>
      <point x="147.9811320754717" y="542.188679245283"/>
      <point x="72.94811320754717" y="462.5235849056604"/>
    </contour>
    <contour>
      <point x="592.2452830188679" y="293.5990566037736" type="curve"/>
      <point x="592.2452830188679" y="377.3820754716981" type="line" smooth="yes"/>
      <point x="592.2452830188679" y="389.3820754716981"/>
      <point x="591.8066037735848" y="395.38207547169816"/>
      <point x="583.2452830188679" y="404.3820754716981" type="curve" smooth="yes"/>
      <point x="519.367924528302" y="470.8915094339623"/>
      <point x="459.70283018867923" y="532.188679245283"/>
      <point x="386.0188679245283" y="610.6981132075472" type="curve" smooth="yes"/>
      <point x="373.45754716981133" y="623.6981132075471"/>
      <point x="369.0188679245283" y="626.4528301886792"/>
      <point x="364.0188679245283" y="626.4528301886792" type="curve" smooth="yes"/>
      <point x="360.0188679245283" y="626.4528301886792"/>
      <point x="357.0188679245283" y="624.4528301886793"/>
      <point x="357.0188679245283" y="617.4528301886792" type="curve"/>
      <point x="357.0188679245283" y="604.4528301886792"/>
      <point x="357.0188679245283" y="529.3207547169811"/>
      <point x="357.0188679245283" y="514.3207547169811" type="curve"/>
      <point x="425.4433962264151" y="444.19339622641513"/>
      <point x="478.6367924528302" y="394.24528301886795"/>
      <point x="534.127358490566" y="339.6839622641509" type="curve"/>
      <point x="518.127358490566" y="374.0" type="line"/>
      <point x="518.127358490566" y="306.0" type="line"/>
      <point x="534.127358490566" y="348.17452830188677" type="line"/>
      <point x="478.1981132075472" y="292.29716981132077"/>
      <point x="416.6179245283019" y="233.64622641509433"/>
      <point x="357.0188679245283" y="174.3443396226415" type="curve"/>
      <point x="357.0188679245283" y="159.3443396226415"/>
      <point x="357.0188679245283" y="73.54716981132074"/>
      <point x="357.0188679245283" y="62.54716981132074" type="curve"/>
      <point x="357.0188679245283" y="54.54716981132076"/>
      <point x="360.0188679245283" y="51.54716981132076"/>
      <point x="365.0188679245283" y="51.54716981132076" type="curve" smooth="yes"/>
      <point x="371.0188679245283" y="51.54716981132076"/>
      <point x="376.0188679245283" y="53.98584905660377"/>
      <point x="383.0188679245283" y="61.985849056603776" type="curve" smooth="yes"/>
      <point x="447.5801886792453" y="134.17924528301887"/>
      <point x="520.6839622641509" y="213.28301886792454"/>
    </contour>
  </outline>
</glyph>
<glyph name="emptyset" format="2">
  <advance width="600.0"/>
  <unicode hex="2205"/>
  <outline>
    <contour>
      <point x="300.438679245283" y="656.4905660377359" type="curve" smooth="yes"/>
      <point x="121.81132075471697" y="656.4905660377359"/>
      <point x="15.0" y="555.0896226415094"/>
      <point x="15.0" y="370.7877358490566" type="curve" smooth="yes"/>
      <point x="15.0" y="319.47169811320754" type="line" smooth="yes"/>
      <point x="15.0" y="139.55660377358492"/>
      <point x="119.61792452830188" y="41.22641509433962"/>
      <point x="299.561320754717" y="41.22641509433962" type="curve" smooth="yes"/>
      <point x="479.5047169811321" y="41.22641509433962"/>
      <point x="585.0" y="139.55660377358492"/>
      <point x="585.0" y="319.0330188679245" type="curve" smooth="yes"/>
      <point x="585.0" y="370.7877358490566" type="line" smooth="yes"/>
      <point x="585.0" y="555.0896226415094"/>
      <point x="479.0660377358491" y="656.4905660377359"/>
    </contour>
    <contour>
      <point x="121.13207547169812" y="307.7169811320755" type="curve" smooth="yes"/>
      <point x="121.13207547169812" y="379.91037735849056" type="line" smooth="yes"/>
      <point x="121.13207547169812" y="504.54716981132077"/>
      <point x="187.06603773584905" y="558.7783018867924"/>
      <point x="300.438679245283" y="558.7783018867924" type="curve" smooth="yes"/>
      <point x="363.89622641509436" y="558.7783018867924"/>
      <point x="403.3537735849057" y="546.0235849056603"/>
      <point x="429.8820754716981" y="520.8113207547169" type="curve" smooth="yes"/>
      <point x="457.5330188679245" y="494.47641509433964"/>
      <point x="478.86792452830184" y="460.70283018867923"/>
      <point x="478.86792452830184" y="379.91037735849056" type="curve" smooth="yes"/>
      <point x="478.86792452830184" y="309.91037735849056" type="line" smooth="yes"/>
      <point x="478.86792452830184" y="191.41509433962264"/>
      <point x="409.9339622641509" y="138.93867924528303"/>
      <point x="299.561320754717" y="138.93867924528303" type="curve" smooth="yes"/>
      <point x="230.03301886792454" y="138.93867924528303"/>
      <point x="192.18867924528303" y="153.0801886792453"/>
      <point x="165.73113207547172" y="176.6603773584906" type="curve" smooth="yes"/>
      <point x="138.7122641509434" y="200.80188679245285"/>
      <point x="121.13207547169812" y="238.33018867924528"/>
    </contour>
    <contour>
      <point x="547.9952830188679" y="734.2075471698113" type="curve"/>
      <point x="512.4716981132076" y="734.2075471698113"/>
      <point x="493.0518867924528" y="734.2075471698113"/>
      <point x="457.52830188679246" y="734.2075471698113" type="curve" smooth="yes"/>
      <point x="451.52830188679246" y="734.2075471698113"/>
      <point x="447.52830188679246" y="732.2075471698113"/>
      <point x="445.52830188679246" y="727.2075471698113" type="curve" smooth="yes"/>
      <point x="300.08962264150944" y="439.45283018867923"/>
      <point x="208.81132075471697" y="261.6320754716981"/>
      <point x="55.12735849056604" y="-28.245283018867923" type="curve"/>
      <point x="91.08962264150942" y="-28.245283018867923"/>
      <point x="109.07075471698113" y="-28.245283018867923"/>
      <point x="144.5943396226415" y="-28.245283018867923" type="curve" smooth="yes"/>
      <point x="150.5943396226415" y="-28.245283018867923"/>
      <point x="156.03301886792454" y="-25.245283018867923"/>
      <point x="159.5943396226415" y="-17.245283018867923" type="curve"/>
      <point x="310.4009433962264" y="271.75471698113205"/>
      <point x="401.87264150943395" y="445.7688679245283"/>
    </contour>
  </outline>
</glyph>
<glyph name="increment" format="2">
  <advance width="600.0"/>
  <unicode hex="2206"/>
  <outline>
    <contour>
      <point x="384.1509433962264" y="704.3867924528302" type="curve" smooth="yes"/>
      <point x="324.27830188679246" y="704.3867924528302"/>
      <point x="264.4056603773585" y="704.3867924528302"/>
      <point x="204.5330188679245" y="704.3867924528302" type="curve"/>
      <point x="160.71731199551934" y="543.8376002796316"/>
      <point x="103.12702762712217" y="306.26617330527404"/>
      <point x="33.490566037735846" y="12.122641509433961" type="curve" smooth="yes"/>
      <point x="32.367924528301884" y="3.438679245283019"/>
      <point x="37.490566037735846" y="0.0"/>
      <point x="42.806603773584904" y="0.0" type="curve" smooth="yes"/>
      <point x="570.8254716981132" y="0.0" type="line"/>
      <point x="507.17452830188677" y="257.6981132075472"/>
      <point x="448.57547169811323" y="493.5047169811321"/>
      <point x="396.1509433962264" y="693.3867924528302" type="curve"/>
      <point x="395.1509433962264" y="697.5094339622641"/>
      <point x="394.1509433962264" y="699.3867924528302"/>
      <point x="392.1509433962264" y="701.3867924528302" type="curve" smooth="yes"/>
      <point x="389.58962264150944" y="703.9481132075472"/>
      <point x="388.1509433962264" y="704.3867924528302"/>
    </contour>
    <contour>
      <point x="159.35849056603774" y="100.3254716981132" type="line"/>
      <point x="203.02830188679246" y="269.52358490566036"/>
      <point x="248.01415094339623" y="443.6698113207547"/>
      <point x="291.6839622641509" y="612.8679245283018" type="curve"/>
      <point x="274.1933962264151" y="601.622641509434" type="line"/>
      <point x="319.7358490566038" y="601.622641509434" type="line" smooth="yes"/>
      <point x="307.561320754717" y="609.9905660377358" type="line"/>
      <point x="352.10849056603774" y="440.35377358490564"/>
      <point x="396.54300146248113" y="270.40347263155235"/>
      <point x="441.0801886792453" y="100.3254716981132" type="curve"/>
      <point x="419.5707547169811" y="100.3254716981132"/>
      <point x="398.5" y="100.3254716981132"/>
      <point x="376.99056603773585" y="100.3254716981132" type="curve" smooth="yes"/>
    </contour>
  </outline>
</glyph>
<glyph name="summation" format="2">
  <advance width="600.0"/>
  <unicode hex="2211"/>
  <outline>
    <contour>
      <point x="45.632075471698116" y="700.0" type="line"/>
      <point x="45.632075471698116" y="668.4764150943396"/>
      <point x="45.632075471698116" y="642.1981132075472"/>
      <point x="45.632075471698116" y="610.6745283018868" type="curve" smooth="yes"/>
      <point x="45.632075471698116" y="603.6745283018868"/>
      <point x="49.632075471698116" y="599.6745283018868"/>
      <point x="56.632075471698116" y="599.6745283018868" type="curve" smooth="yes"/>
      <point x="549.0518867924528" y="599.6745283018868" type="line"/>
      <point x="549.0518867924528" y="631.1981132075472"/>
      <point x="549.0518867924528" y="657.4764150943396"/>
      <point x="549.0518867924528" y="689.0" type="curve" smooth="yes"/>
      <point x="549.0518867924528" y="696.0"/>
      <point x="545.0518867924528" y="700.0"/>
      <point x="538.0518867924528" y="700.0" type="curve"/>
    </contour>
    <contour>
      <point x="549.0518867924528" y="-110.6745283018868" type="curve" smooth="yes"/>
      <point x="549.0518867924528" y="-103.6745283018868"/>
      <point x="545.0518867924528" y="-99.6745283018868"/>
      <point x="538.0518867924528" y="-99.6745283018868" type="curve" smooth="yes"/>
      <point x="195.62264150943398" y="-99.6745283018868" type="line"/>
      <point x="195.62264150943398" y="-83.18396226415095" type="line"/>
      <point x="276.9528301886793" y="-8.273584905660371"/>
      <point x="365.77073593823206" y="97.71884587041603"/>
      <point x="462.9811320754717" y="212.89622641509433" type="curve" smooth="yes"/>
      <point x="469.4198113207547" y="220.33490566037736"/>
      <point x="471.85849056603774" y="227.89622641509433"/>
      <point x="471.85849056603774" y="237.0188679245283" type="curve" smooth="yes"/>
      <point x="471.85849056603774" y="252.1933962264151"/>
      <point x="471.85849056603774" y="266.3679245283019"/>
      <point x="471.85849056603774" y="281.54245283018867" type="curve"/>
      <point x="401.62735849056605" y="370.08962264150944"/>
      <point x="334.8867924528302" y="453.9009433962264"/>
      <point x="269.2169811320755" y="537.3254716981132" type="curve" smooth="yes"/>
      <point x="252.97169811320754" y="557.6933962264151"/>
      <point x="233.79716981132077" y="572.622641509434"/>
      <point x="211.06132075471697" y="583.183962264151" type="curve"/>
      <point x="211.06132075471697" y="618.1650943396227" type="line"/>
      <point x="74.75471698113208" y="618.1650943396227" type="line"/>
      <point x="170.49528301886792" y="496.9858490566038"/>
      <point x="284.60377358490564" y="351.3160377358491"/>
      <point x="360.4292452830189" y="256.9292452830189" type="curve"/>
      <point x="292.6367924528302" y="174.82075471698113"/>
      <point x="182.28301886792454" y="41.34433962264151"/>
      <point x="57.2122641509434" y="-111.77830188679245" type="curve"/>
      <point x="57.2122641509434" y="-140.74056603773585"/>
      <point x="57.2122641509434" y="-165.08962264150944"/>
      <point x="57.2122641509434" y="-189.0" type="curve" smooth="yes"/>
      <point x="57.2122641509434" y="-196.0"/>
      <point x="61.2122641509434" y="-200.0"/>
      <point x="68.2122641509434" y="-200.0" type="curve" smooth="yes"/>
      <point x="549.0518867924528" y="-200.0" type="line"/>
      <point x="549.0518867924528" y="-170.03773584905662"/>
      <point x="549.0518867924528" y="-140.63679245283018"/>
    </contour>
  </outline>
</glyph>
<glyph name="bracketangleleft" format="2">
  <advance width="600.0"/>
  <unicode hex="27E8"/>
  <outline>
    <contour>
      <point x="455.066037735849" y="24.49056603773585" type="line"/>
      <point x="387.50471698113205" y="135.92924528301887"/>
      <point x="306.066037735849" y="270.6839622641509"/>
      <point x="254.06603773584905" y="359.0" type="curve"/>
      <point x="305.3820754716981" y="448.0"/>
      <point x="397.62735849056605" y="597.5094339622641"/>
      <point x="455.066037735849" y="695.5094339622641" type="curve"/>
      <point x="455.066037735849" y="712.0" type="line"/>
      <point x="419.9811320754717" y="712.0"/>
      <point x="387.96698113207543" y="712.0"/>
      <point x="353.3207547169811" y="712.0" type="curve" smooth="yes"/>
      <point x="337.3207547169811" y="712.0"/>
      <point x="332.3207547169811" y="707.0"/>
      <point x="326.3207547169811" y="697.0" type="curve" smooth="yes"/>
      <point x="299.44339622641513" y="651.9292452830189"/>
      <point x="211.75943396226413" y="507.29716981132077"/>
      <point x="150.32075471698113" y="406.22641509433964" type="curve"/>
      <point x="150.32075471698113" y="393.22641509433964"/>
      <point x="150.32075471698113" y="334.14150943396226"/>
      <point x="150.32075471698113" y="321.14150943396226" type="curve" smooth="yes"/>
      <point x="150.32075471698113" y="313.14150943396226"/>
      <point x="152.32075471698113" y="309.14150943396226"/>
      <point x="159.32075471698113" y="297.14150943396226" type="curve" smooth="yes"/>
      <point x="196.32075471698113" y="234.26415094339623"/>
      <point x="302.3207547169811" y="60.75471698113208"/>
      <point x="325.3207547169811" y="24.0" type="curve" smooth="yes"/>
      <point x="333.8820754716981" y="10.0"/>
      <point x="338.3207547169811" y="8.0"/>
      <point x="351.3207547169811" y="8.0" type="curve" smooth="yes"/>
      <point x="385.6509433962264" y="8.0"/>
      <point x="418.9811320754717" y="8.0"/>
      <point x="455.066037735849" y="8.0" type="curve"/>
    </contour>
  </outline>
</glyph>
<glyph name="a.italic" format="2">
  <advance width="600.0"/>
  <anchor x="293.85849056603774" y="544.8584905660377" name="top"/>
  <anchor x="304.29716981132077" y="-1.0" name="bottom"/>
  <anchor x="563.9811320754717" y="0.5613207547169812" name="ogonek"/>
  <anchor x="294.29716981132077" y="584.0" name="hook"/>
  <outline>
    <contour>
      <point x="236.86320754716982" y="544.9811320754717" type="curve" smooth="yes"/>
      <point x="132.91509433962264" y="544.9811320754717"/>
      <point x="63.77358490566038" y="470.91037735849056"/>
      <point x="63.77358490566038" y="345.7169811320755" type="curve" smooth="yes"/>
      <point x="63.77358490566038" y="184.87735849056602" type="line" smooth="yes"/>
      <point x="63.77358490566038" y="62.87735849056604"/>
      <point x="132.91509433962264" y="-10.0"/>
      <point x="235.10849056603774" y="-10.0" type="curve" smooth="yes"/>
      <point x="303.37264150943395" y="-10.0"/>
      <point x="356.688679245283" y="24.683962264150942"/>
      <point x="390.39150943396226" y="86.80660377358491" type="curve"/>
      <point x="416.2688679245283" y="86.80660377358491" type="line"/>
      <point x="416.2688679245283" y="195.64622641509433" type="line"/>
      <point x="372.1792452830189" y="125.51886792452831"/>
      <point x="322.52830188679246" y="92.00943396226415"/>
      <point x="270.49056603773585" y="92.00943396226415" type="curve" smooth="yes"/>
      <point x="240.83962264150944" y="92.00943396226415"/>
      <point x="216.9433962264151" y="100.51886792452831"/>
      <point x="200.24056603773585" y="117.22169811320755" type="curve" smooth="yes"/>
      <point x="182.66037735849056" y="135.24056603773585"/>
      <point x="172.71226415094338" y="163.45283018867926"/>
      <point x="172.71226415094338" y="201.9811320754717" type="curve" smooth="yes"/>
      <point x="172.71226415094338" y="328.6132075471698" type="line" smooth="yes"/>
      <point x="172.71226415094338" y="402.4952830188679"/>
      <point x="209.75" y="442.97169811320754"/>
      <point x="270.49056603773585" y="442.97169811320754" type="curve" smooth="yes"/>
      <point x="323.6509433962264" y="442.97169811320754"/>
      <point x="372.1792452830189" y="417.07547169811323"/>
      <point x="416.8301886792453" y="355.3679245283019" type="curve"/>
      <point x="416.8301886792453" y="462.27830188679246" type="line"/>
      <point x="387.4622641509434" y="462.27830188679246" type="line"/>
      <point x="353.00471698113205" y="515.2971698113207"/>
      <point x="304.25" y="544.9811320754717"/>
    </contour>
    <contour>
      <point x="403.5141509433962" y="533.8584905660377" type="curve"/>
      <point x="403.5141509433962" y="491.3679245283019"/>
      <point x="403.5141509433962" y="448.75471698113205"/>
      <point x="403.5141509433962" y="406.2641509433962" type="curve" smooth="yes"/>
      <point x="403.5141509433962" y="309.24528301886795"/>
      <point x="403.5141509433962" y="212.66509433962264"/>
      <point x="403.5141509433962" y="115.64622641509433" type="curve" smooth="yes"/>
      <point x="403.5141509433962" y="48.08490566037736"/>
      <point x="445.3207547169811" y="0.0"/>
      <point x="529.2122641509434" y="0.0" type="curve" smooth="yes"/>
      <point x="539.9481132075472" y="0.0"/>
      <point x="550.3679245283018" y="0.0"/>
      <point x="562.4198113207547" y="0.0" type="curve" smooth="yes"/>
      <point x="569.4198113207547" y="0.0"/>
      <point x="573.4198113207547" y="3.561320754716981"/>
      <point x="573.4198113207547" y="11.0" type="curve" smooth="yes"/>
      <point x="573.4198113207547" y="38.716981132075475"/>
      <point x="573.4198113207547" y="65.43396226415095"/>
      <point x="573.4198113207547" y="93.15094339622641" type="curve"/>
      <point x="556.9292452830189" y="93.15094339622641" type="line"/>
      <point x="553.9292452830189" y="93.15094339622641"/>
      <point x="549.1745283018868" y="93.15094339622641"/>
      <point x="545.7358490566038" y="93.15094339622641" type="curve" smooth="yes"/>
      <point x="523.0849056603773" y="93.15094339622641"/>
      <point x="512.4528301886793" y="104.97641509433963"/>
      <point x="512.4528301886793" y="129.62735849056605" type="curve" smooth="yes"/>
      <point x="512.4528301886793" y="260.89150943396226"/>
      <point x="512.4528301886793" y="391.5943396226415"/>
      <point x="512.4528301886793" y="522.8584905660377" type="curve" smooth="yes"/>
      <point x="512.4528301886793" y="529.8584905660377"/>
      <point x="508.45283018867923" y="533.8584905660377"/>
      <point x="501.45283018867923" y="533.8584905660377" type="curve" smooth="yes"/>
      <point x="468.8066037735849" y="533.8584905660377"/>
      <point x="436.16037735849056" y="533.8584905660377"/>
    </contour>
  </outline>
</glyph>
<glyph name="at.alt" format="2">
  <advance width="600.0"/>
  <outline>
    <contour>
      <point x="66.84433962264151" y="515.9622641509434" type="curve" smooth="yes"/>
      <point x="66.84433962264151" y="72.20754716981132" type="line" smooth="yes"/>
      <point x="66.84433962264151" y="-103.03301886792453"/>
      <point x="151.28301886792454" y="-196.96226415094338"/>
      <point x="310.6650943396226" y="-196.96226415094338" type="curve" smooth="yes"/>
      <point x="391.33490566037733" y="-196.96226415094338"/>
      <point x="457.0518867924529" y="-174.82075471698116"/>
      <point x="467.85849056603774" y="-164.01415094339623" type="curve" smooth="yes"/>
      <point x="471.1745283018868" y="-160.69811320754718"/>
      <point x="472.1745283018868" y="-158.1367924528302"/>
      <point x="472.1745283018868" y="-153.38207547169813" type="curve" smooth="yes"/>
      <point x="472.1745283018868" y="-134.40094339622644"/>
      <point x="472.1745283018868" y="-103.63207547169812"/>
      <point x="472.1745283018868" y="-84.65094339622641" type="curve"/>
      <point x="455.6839622641509" y="-84.65094339622641" type="line"/>
      <point x="415.85849056603774" y="-104.72169811320754"/>
      <point x="370.7358490566038" y="-114.59905660377358"/>
      <point x="316.83962264150944" y="-114.59905660377358" type="curve" smooth="yes"/>
      <point x="260.78773584905656" y="-114.59905660377358"/>
      <point x="220.22641509433961" y="-101.40566037735849"/>
      <point x="192.22641509433961" y="-75.65094339622641" type="curve" smooth="yes"/>
      <point x="158.78773584905662" y="-44.45754716981132"/>
      <point x="144.91037735849056" y="2.2264150943396235"/>
      <point x="144.91037735849056" y="69.83962264150944" type="curve" smooth="yes"/>
      <point x="144.91037735849056" y="493.6320754716981" type="line" smooth="yes"/>
      <point x="144.91037735849056" y="599.6509433962265"/>
      <point x="195.92924528301887" y="663.4764150943396"/>
      <point x="299.438679245283" y="663.4764150943396" type="curve" smooth="yes"/>
      <point x="345.38679245283015" y="663.4764150943396"/>
      <point x="379.4575471698113" y="652.2830188679245"/>
      <point x="403.84433962264154" y="628.4575471698114" type="curve"/>
      <point x="428.42452830188677" y="603.316037735849"/>
      <point x="441.0566037735849" y="568.8584905660377"/>
      <point x="441.0566037735849" y="519.7688679245283" type="curve" smooth="yes"/>
      <point x="441.0566037735849" y="382.73584905660374"/>
      <point x="441.0566037735849" y="221.71226415094338"/>
      <point x="441.0566037735849" y="84.67924528301887" type="curve" smooth="yes"/>
      <point x="441.0566037735849" y="79.80188679245285"/>
      <point x="482.54245283018867" y="28.773584905660375"/>
      <point x="490.7877358490566" y="28.773584905660375" type="curve"/>
      <point x="533.1556603773585" y="28.773584905660375" type="line"/>
      <point x="533.1556603773585" y="59.34905660377358"/>
      <point x="533.1556603773585" y="90.36320754716982"/>
      <point x="533.1556603773585" y="120.93867924528303" type="curve" smooth="yes"/>
      <point x="533.1556603773585" y="242.74528301886792"/>
      <point x="533.1556603773585" y="399.7688679245283"/>
      <point x="533.1556603773585" y="521.5754716981131" type="curve" smooth="yes"/>
      <point x="533.1556603773585" y="655.8396226415094"/>
      <point x="445.91037735849056" y="746.4009433962265"/>
      <point x="300.561320754717" y="746.4009433962265" type="curve" smooth="yes"/>
      <point x="155.21226415094338" y="746.4009433962265"/>
      <point x="66.84433962264151" y="650.7877358490566"/>
    </contour>
    <contour>
      <point x="478.84433962264154" y="191.7924528301887" type="line"/>
      <point x="443.56132075471703" y="121.62735849056604"/>
      <point x="400.50943396226415" y="107.18867924528303"/>
      <point x="361.7358490566038" y="107.18867924528303" type="curve" smooth="yes"/>
      <point x="331.11792452830184" y="107.18867924528303"/>
      <point x="318.78301886792457" y="125.03301886792454"/>
      <point x="318.78301886792457" y="159.6509433962264" type="curve" smooth="yes"/>
      <point x="318.78301886792457" y="340.65566037735846" type="line" smooth="yes"/>
      <point x="318.78301886792457" y="370.25471698113205"/>
      <point x="327.04716981132077" y="390.4669811320755"/>
      <point x="337.4339622641509" y="401.4150943396226" type="curve" smooth="yes"/>
      <point x="348.6981132075472" y="412.6792452830189"/>
      <point x="366.91037735849056" y="420.50471698113205"/>
      <point x="395.45754716981133" y="420.50471698113205" type="curve" smooth="yes"/>
      <point x="424.50943396226415" y="420.50471698113205"/>
      <point x="455.10849056603774" y="417.6981132075472"/>
      <point x="472.9150943396226" y="408.71698113207543" type="curve"/>
      <point x="472.9150943396226" y="487.1509433962264" type="line"/>
      <point x="437.8301886792453" y="487.1509433962264" type="line"/>
      <point x="420.7075471698113" y="497.25471698113205"/>
      <point x="394.37264150943395" y="501.7452830188679"/>
      <point x="368.51415094339626" y="501.7452830188679" type="curve" smooth="yes"/>
      <point x="273.8962264150943" y="501.7452830188679"/>
      <point x="226.68396226415095" y="446.04245283018867"/>
      <point x="226.68396226415095" y="352.3207547169811" type="curve" smooth="yes"/>
      <point x="226.68396226415095" y="141.811320754717" type="line" smooth="yes"/>
      <point x="226.68396226415095" y="64.16037735849056"/>
      <point x="270.12264150943395" y="18.773584905660375"/>
      <point x="343.52830188679246" y="18.773584905660375" type="curve" smooth="yes"/>
      <point x="393.72169811320754" y="18.773584905660375"/>
      <point x="424.33490566037733" y="35.089622641509436"/>
      <point x="447.0188679245283" y="75.70283018867924" type="curve"/>
      <point x="478.84433962264154" y="75.70283018867924" type="line"/>
    </contour>
  </outline>
</glyph>
<glyph name="braceleft.cap" format="2">
  <advance width="600.0"/>
  <outline>
    <contour>
      <point x="393.6792452830189" y="173.49056603773585" type="curve" smooth="yes"/>
      <point x="393.6792452830189" y="239.05188679245282"/>
      <point x="359.60849056603774" y="289.24528301886795"/>
      <point x="279.7311320754717" y="313.0707547169811" type="curve"/>
      <point x="279.7311320754717" y="326.9292452830189" type="line"/>
      <point x="356.85377358490564" y="353.12264150943395"/>
      <point x="393.6792452830189" y="397.50943396226415"/>
      <point x="393.6792452830189" y="465.0707547169811" type="curve" smooth="yes"/>
      <point x="393.6792452830189" y="534.1084905660377"/>
      <point x="334.5707547169811" y="566.6509433962265"/>
      <point x="330.0801886792453" y="609.7405660377358" type="curve" smooth="yes"/>
      <point x="329.5188679245283" y="618.0047169811321"/>
      <point x="329.5188679245283" y="622.0047169811321"/>
      <point x="329.5188679245283" y="630.2688679245283" type="curve"/>
      <point x="333.4669811320755" y="655.4622641509434"/>
      <point x="344.97641509433964" y="663.9716981132076"/>
      <point x="371.60849056603774" y="663.9716981132076" type="curve" smooth="yes"/>
      <point x="414.6981132075472" y="663.9716981132076"/>
      <point x="457.22641509433964" y="663.9716981132076"/>
      <point x="500.3160377358491" y="663.9716981132076" type="curve"/>
      <point x="515.6132075471698" y="663.9716981132076" type="line"/>
      <point x="515.6132075471698" y="694.372641509434"/>
      <point x="515.6132075471698" y="724.2122641509434"/>
      <point x="515.6132075471698" y="754.6132075471698" type="curve" smooth="yes"/>
      <point x="515.6132075471698" y="761.6132075471698"/>
      <point x="511.6132075471698" y="765.6132075471698"/>
      <point x="504.6132075471698" y="765.6132075471698" type="curve"/>
      <point x="332.0" y="765.6132075471698" type="line" smooth="yes"/>
      <point x="251.07075471698113" y="765.6132075471698"/>
      <point x="223.38679245283018" y="704.2452830188679"/>
      <point x="223.38679245283018" y="667.0" type="curve" smooth="yes"/>
      <point x="223.38679245283018" y="624.683962264151" type="line" smooth="yes"/>
      <point x="223.38679245283018" y="551.7547169811321"/>
      <point x="287.54716981132077" y="529.7028301886793"/>
      <point x="287.54716981132077" y="464.87735849056605" type="curve" smooth="yes"/>
      <point x="287.54716981132077" y="404.91037735849056"/>
      <point x="220.94811320754718" y="370.8207547169811"/>
      <point x="105.85849056603773" y="370.8207547169811" type="curve" smooth="yes"/>
      <point x="73.85849056603773" y="370.8207547169811" type="line"/>
      <point x="73.85849056603773" y="340.4198113207547"/>
      <point x="73.85849056603773" y="310.5801886792453"/>
      <point x="73.85849056603773" y="280.1792452830189" type="curve" smooth="yes"/>
      <point x="73.85849056603773" y="273.1792452830189"/>
      <point x="77.85849056603773" y="269.1792452830189"/>
      <point x="84.85849056603773" y="269.1792452830189" type="curve" smooth="yes"/>
      <point x="105.85849056603773" y="269.1792452830189" type="line" smooth="yes"/>
      <point x="220.94811320754718" y="269.1792452830189"/>
      <point x="287.54716981132077" y="231.96698113207546"/>
      <point x="287.54716981132077" y="173.68396226415095" type="curve" smooth="yes"/>
      <point x="287.54716981132077" y="108.85849056603773"/>
      <point x="223.38679245283018" y="87.24528301886792"/>
      <point x="223.38679245283018" y="14.316037735849056" type="curve" smooth="yes"/>
      <point x="223.38679245283018" y="-28.0" type="line" smooth="yes"/>
      <point x="223.38679245283018" y="-65.24528301886792"/>
      <point x="251.07075471698113" y="-126.61320754716981"/>
      <point x="332.0" y="-126.61320754716981" type="curve" smooth="yes"/>
      <point x="504.6132075471698" y="-126.61320754716981" type="line" smooth="yes"/>
      <point x="511.6132075471698" y="-126.61320754716981"/>
      <point x="515.6132075471698" y="-122.61320754716981"/>
      <point x="515.6132075471698" y="-115.61320754716981" type="curve" smooth="yes"/>
      <point x="515.6132075471698" y="-85.2122641509434"/>
      <point x="515.6132075471698" y="-55.37264150943396"/>
      <point x="515.6132075471698" y="-24.971698113207545" type="curve"/>
      <point x="500.3160377358491" y="-24.971698113207545" type="line"/>
      <point x="457.22641509433964" y="-24.971698113207545"/>
      <point x="414.6981132075472" y="-24.971698113207545"/>
      <point x="371.60849056603774" y="-24.971698113207545" type="curve" smooth="yes"/>
      <point x="344.97641509433964" y="-24.971698113207545"/>
      <point x="333.4669811320755" y="-16.46226415094339"/>
      <point x="329.5188679245283" y="8.731132075471699" type="curve"/>
      <point x="329.5188679245283" y="18.679245283018872"/>
      <point x="330.0801886792453" y="23.240566037735853"/>
      <point x="331.20283018867923" y="33.18867924528302" type="curve" smooth="yes"/>
      <point x="337.938679245283" y="74.59433962264151"/>
      <point x="393.6792452830189" y="107.25943396226415"/>
    </contour>
  </outline>
</glyph>
<glyph name="c.italic" format="2">
  <advance width="600.0"/>
  <anchor x="325.561320754717" y="537.0" name="top"/>
  <anchor x="325.561320754717" y="-1.0" name="bottom"/>
  <outline>
    <contour>
      <point x="334.19339622641513" y="544.9811320754717" type="curve"/>
      <point x="178.10849056603774" y="544.9811320754717"/>
      <point x="80.35377358490567" y="457.3867924528302"/>
      <point x="80.35377358490567" y="311.0518867924528" type="curve" smooth="yes"/>
      <point x="80.35377358490567" y="220.1745283018868" type="line" smooth="yes"/>
      <point x="80.35377358490567" y="82.49056603773586"/>
      <point x="174.52830188679243" y="-11.122641509433961"/>
      <point x="330.19339622641513" y="-11.122641509433961" type="curve"/>
      <point x="421.5943396226415" y="-11.122641509433961"/>
      <point x="487.83962264150944" y="13.0"/>
      <point x="507.3490566037736" y="32.509433962264154" type="curve" smooth="yes"/>
      <point x="509.3490566037736" y="34.509433962264154"/>
      <point x="510.3490566037736" y="37.509433962264154"/>
      <point x="510.3490566037736" y="40.509433962264154" type="curve"/>
      <point x="510.3490566037736" y="69.7877358490566"/>
      <point x="510.3490566037736" y="97.50471698113208"/>
      <point x="510.3490566037736" y="126.78301886792454" type="curve"/>
      <point x="493.85849056603774" y="126.78301886792454" type="line"/>
      <point x="446.73584905660374" y="102.27358490566039"/>
      <point x="402.683962264151" y="88.08018867924528"/>
      <point x="338.1745283018868" y="88.08018867924528" type="curve"/>
      <point x="284.91037735849056" y="88.08018867924528"/>
      <point x="248.33018867924528" y="101.15094339622642"/>
      <point x="224.50471698113208" y="124.97641509433963" type="curve" smooth="yes"/>
      <point x="200.80188679245282" y="148.67924528301887"/>
      <point x="189.29245283018867" y="183.01415094339623"/>
      <point x="189.29245283018867" y="228.29716981132074" type="curve" smooth="yes"/>
      <point x="189.29245283018867" y="301.3679245283019" type="line" smooth="yes"/>
      <point x="189.29245283018867" y="403.35377358490564"/>
      <point x="238.87264150943398" y="449.14622641509436"/>
      <point x="340.36792452830184" y="449.14622641509436" type="curve"/>
      <point x="368.9669811320755" y="449.14622641509436"/>
      <point x="391.74056603773585" y="445.07547169811323"/>
      <point x="412.63679245283015" y="436.9339622641509" type="curve"/>
      <point x="412.63679245283015" y="412.35377358490564"/>
      <point x="412.63679245283015" y="387.6509433962264"/>
      <point x="412.63679245283015" y="362.6320754716981" type="curve"/>
      <point x="412.63679245283015" y="346.14150943396226" type="line"/>
      <point x="441.35377358490564" y="346.14150943396226"/>
      <point x="470.6320754716981" y="346.14150943396226"/>
      <point x="499.3490566037736" y="346.14150943396226" type="curve" smooth="yes"/>
      <point x="506.3490566037736" y="346.14150943396226"/>
      <point x="510.3490566037736" y="350.14150943396226"/>
      <point x="510.3490566037736" y="357.14150943396226" type="curve" smooth="yes"/>
      <point x="510.3490566037736" y="493.0330188679245" type="line" smooth="yes"/>
      <point x="510.3490566037736" y="496.3490566037736"/>
      <point x="509.3490566037736" y="499.3490566037736"/>
      <point x="506.0330188679245" y="502.66509433962267" type="curve" smooth="yes"/>
      <point x="489.27830188679246" y="519.4198113207547"/>
      <point x="425.1037735849057" y="544.9811320754717"/>
    </contour>
  </outline>
</glyph>
<glyph name="circumflexcomb.case" format="2">
  <anchor x="0.0" y="711.561320754717" name="_top"/>
  <anchor x="202.80188679245282" y="826.0377358490566" name="side"/>
  <anchor x="0.0" y="883.2264150943396" name="top"/>
  <outline>
    <contour>
      <point x="-57.43396226415095" y="946.2452830188679" type="curve"/>
      <point x="-91.80188679245283" y="913.0707547169811"/>
      <point x="-166.96226415094338" y="842.3679245283018"/>
      <point x="-200.96226415094338" y="809.438679245283" type="curve" smooth="yes"/>
      <point x="-220.71698113207546" y="790.438679245283"/>
      <point x="-223.1556603773585" y="788.0"/>
      <point x="-223.1556603773585" y="783.0" type="curve" smooth="yes"/>
      <point x="-223.1556603773585" y="778.438679245283"/>
      <point x="-220.5943396226415" y="776.0"/>
      <point x="-211.71698113207546" y="776.0" type="curve" smooth="yes"/>
      <point x="-123.32075471698113" y="776.0" type="line"/>
      <point x="-87.49528301886792" y="806.0707547169811"/>
      <point x="-42.35377358490566" y="842.8962264150944"/>
      <point x="20.0" y="896.7924528301887" type="curve"/>
      <point x="-31.754716981132077" y="875.5471698113207" type="line"/>
      <point x="-10.193396226415095" y="875.5471698113207"/>
      <point x="11.806603773584905" y="875.5471698113207"/>
      <point x="33.367924528301884" y="875.5471698113207" type="curve"/>
      <point x="-19.50943396226415" y="895.6698113207547" type="line"/>
      <point x="44.65094339622641" y="840.0896226415094"/>
      <point x="89.93396226415095" y="802.877358490566"/>
      <point x="111.25" y="786.0" type="curve" smooth="yes"/>
      <point x="122.25" y="777.561320754717"/>
      <point x="124.68867924528301" y="776.0"/>
      <point x="139.68867924528303" y="776.0" type="curve" smooth="yes"/>
      <point x="167.47641509433961" y="776.0"/>
      <point x="206.29716981132074" y="776.438679245283"/>
      <point x="234.08490566037736" y="776.0" type="curve"/>
      <point x="179.08490566037736" y="829.1745283018868"/>
      <point x="98.87264150943396" y="905.8066037735849"/>
      <point x="77.43396226415095" y="926.3679245283018" type="curve" smooth="yes"/>
      <point x="58.24056603773585" y="943.8066037735849"/>
      <point x="53.67924528301887" y="946.2452830188679"/>
      <point x="44.24056603773585" y="946.2452830188679" type="curve" smooth="yes"/>
      <point x="22.13679245283019" y="946.2452830188679"/>
      <point x="-34.76886792452831" y="946.2452830188679"/>
    </contour>
  </outline>
</glyph>
<glyph name="commaaccentcomb.case" format="2">
  <anchor x="0.0" y="-6.613207547169812" name="_bottom"/>
  <outline>
    <contour>
      <point x="-39.259433962264154" y="-70.0" type="curve"/>
      <point x="-53.13679245283019" y="-126.92924528301887"/>
      <point x="-66.69811320754718" y="-183.83962264150944"/>
      <point x="-82.89150943396227" y="-249.4009433962264" type="curve"/>
      <point x="-49.806603773584904" y="-249.4009433962264"/>
      <point x="-20.283018867924525" y="-249.4009433962264"/>
      <point x="0.8207547169811349" y="-249.4009433962264" type="curve" smooth="yes"/>
      <point x="9.820754716981135" y="-249.4009433962264"/>
      <point x="13.820754716981135" y="-244.4009433962264"/>
      <point x="15.820754716981135" y="-239.4009433962264" type="curve" smooth="yes"/>
      <point x="38.820754716981135" y="-178.4009433962264"/>
      <point x="52.55660377358491" y="-141.43867924528303"/>
      <point x="74.55660377358491" y="-83.43867924528301" type="curve" smooth="yes"/>
      <point x="77.55660377358491" y="-75.43867924528301"/>
      <point x="71.99528301886792" y="-70.0"/>
      <point x="63.99528301886792" y="-70.0" type="curve" smooth="yes"/>
      <point x="29.910377358490567" y="-70.0"/>
      <point x="-1.9811320754716988" y="-70.0"/>
    </contour>
  </outline>
</glyph>
<glyph name="equal_equal.code" format="2">
  <advance width="1200.0"/>
  <outline>
    <contour>
      <point x="414.99528301886795" y="376.42452830188677" type="line"/>
      <point x="793.8820754716982" y="376.42452830188677" type="line"/>
      <point x="793.8820754716982" y="478.0660377358491" type="line"/>
      <point x="414.99528301886795" y="478.0660377358491" type="line"/>
    </contour>
    <contour>
      <point x="414.99528301886795" y="120.81132075471697" type="line"/>
      <point x="793.8820754716982" y="120.81132075471697" type="line"/>
      <point x="793.8820754716982" y="222.45283018867926" type="line"/>
      <point x="414.99528301886795" y="222.45283018867926" type="line"/>
    </contour>
    <component base="equal" xOffset="17.547169811320753"/>
    <component base="equal" xOffset="582.4528301886793"/>
  </outline>
</glyph>
<glyph name="fi.mono" format="2">
  <advance width="1200.0"/>
  <outline>
    <contour>
      <point x="81.93396226415094" y="517.5801886792453" type="line"/>
      <point x="81.93396226415094" y="488.3018867924528"/>
      <point x="81.93396226415094" y="464.70754716981133"/>
      <point x="81.93396226415094" y="435.4292452830189" type="curve" smooth="yes"/>
      <point x="81.93396226415094" y="428.4292452830189"/>
      <point x="85.93396226415094" y="424.4292452830189"/>
      <point x="92.93396226415094" y="424.4292452830189" type="curve" smooth="yes"/>
      <point x="883.8254716981132" y="424.4292452830189" type="line"/>
      <point x="883.8254716981132" y="453.70754716981133"/>
      <point x="883.8254716981132" y="477.3018867924528"/>
      <point x="883.8254716981132" y="506.5801886792453" type="curve" smooth="yes"/>
      <point x="883.8254716981132" y="513.5801886792453"/>
      <point x="879.8254716981132" y="517.5801886792453"/>
      <point x="872.8254716981132" y="517.5801886792453" type="curve" smooth="yes"/>
    </contour>
    <contour>
      <point x="345.25943396226415" y="11.56132075471698" type="curve"/>
      <point x="345.25943396226415" y="162.0377358490566"/>
      <point x="345.25943396226415" y="409.15566037735846"/>
      <point x="345.25943396226415" y="559.1933962264152" type="curve" smooth="yes"/>
      <point x="345.25943396226415" y="603.8443396226415"/>
      <point x="351.01415094339626" y="629.6179245283018"/>
      <point x="368.7169811320755" y="647.3207547169811" type="curve" smooth="yes"/>
      <point x="384.66509433962267" y="662.2688679245283"/>
      <point x="414.73584905660374" y="672.5849056603774"/>
      <point x="482.56132075471703" y="672.5849056603774" type="curve" smooth="yes"/>
      <point x="548.5613207547169" y="672.5849056603774"/>
      <point x="604.6132075471698" y="665.2688679245283"/>
      <point x="644.7358490566038" y="653.1981132075472" type="curve"/>
      <point x="661.2264150943396" y="653.1981132075472" type="line"/>
      <point x="661.2264150943396" y="679.9150943396227"/>
      <point x="661.2264150943396" y="706.9481132075472"/>
      <point x="661.2264150943396" y="732.5424528301887" type="curve"/>
      <point x="661.2264150943396" y="735.9811320754717"/>
      <point x="660.2264150943396" y="738.5424528301887"/>
      <point x="658.2264150943396" y="740.5424528301887" type="curve" smooth="yes"/>
      <point x="647.7877358490566" y="750.9811320754717"/>
      <point x="580.2075471698114" y="766.1745283018869"/>
      <point x="483.3679245283019" y="766.1745283018869" type="curve" smooth="yes"/>
      <point x="309.2311320754717" y="766.1745283018869"/>
      <point x="239.12735849056605" y="697.8254716981132"/>
      <point x="239.12735849056605" y="557.683962264151" type="curve" smooth="yes"/>
      <point x="239.12735849056605" y="382.9811320754717"/>
      <point x="239.12735849056605" y="274.8254716981132"/>
      <point x="239.12735849056605" y="100.12264150943398" type="curve"/>
      <point x="239.12735849056605" y="67.12264150943398"/>
      <point x="239.12735849056605" y="33.56132075471698"/>
      <point x="239.12735849056605" y="0.5613207547169812" type="curve"/>
      <point x="271.77358490566036" y="0.5613207547169812"/>
      <point x="301.6132075471698" y="0.5613207547169812"/>
      <point x="334.25943396226415" y="0.5613207547169812" type="curve"/>
      <point x="340.6981132075471" y="0.5613207547169812"/>
      <point x="345.25943396226415" y="5.1226415094339615"/>
    </contour>
    <contour>
      <point x="826.933962264151" y="781.3820754716982" type="curve"/>
      <point x="826.933962264151" y="673.0896226415094" type="line" smooth="yes"/>
      <point x="826.933962264151" y="666.0896226415094"/>
      <point x="830.933962264151" y="662.0896226415094"/>
      <point x="837.933962264151" y="662.0896226415094" type="curve" smooth="yes"/>
      <point x="879.4575471698114" y="662.0896226415094"/>
      <point x="927.1556603773586" y="662.0896226415094"/>
      <point x="968.6792452830189" y="662.0896226415094" type="curve"/>
      <point x="968.6792452830189" y="770.3820754716982" type="line" smooth="yes"/>
      <point x="968.6792452830189" y="777.3820754716982"/>
      <point x="964.6792452830189" y="781.3820754716982"/>
      <point x="957.6792452830189" y="781.3820754716982" type="curve" smooth="yes"/>
      <point x="916.1556603773586" y="781.3820754716982"/>
      <point x="868.4575471698114" y="781.3820754716982"/>
    </contour>
    <contour>
      <point x="853.1603773584906" y="517.5801886792453" type="curve"/>
      <point x="853.1603773584906" y="486.42452830188677"/>
      <point x="853.1603773584906" y="455.14622641509436"/>
      <point x="853.1603773584906" y="423.99056603773585" type="curve"/>
      <point x="853.1603773584906" y="327.1981132075472"/>
      <point x="853.1603773584906" y="106.66981132075472"/>
      <point x="853.1603773584906" y="11.0" type="curve" smooth="yes"/>
      <point x="853.1603773584906" y="4.0"/>
      <point x="857.1603773584906" y="0.0"/>
      <point x="864.1603773584906" y="0.0" type="curve" smooth="yes"/>
      <point x="897.9292452830189" y="0.0"/>
      <point x="925.5235849056603" y="0.0"/>
      <point x="959.2924528301886" y="0.0" type="curve"/>
      <point x="959.2924528301886" y="33.87735849056604"/>
      <point x="959.2924528301886" y="67.75471698113208"/>
      <point x="959.2924528301886" y="102.07075471698113" type="curve" smooth="yes"/>
      <point x="959.2924528301886" y="227.8254716981132"/>
      <point x="959.2924528301886" y="411.6981132075472"/>
      <point x="959.2924528301886" y="506.5801886792453" type="curve" smooth="yes"/>
      <point x="959.2924528301886" y="513.5801886792453"/>
      <point x="955.2924528301886" y="517.5801886792453"/>
      <point x="948.2924528301886" y="517.5801886792453" type="curve" smooth="yes"/>
      <point x="927.9433962264151" y="517.5801886792453"/>
      <point x="864.6509433962264" y="517.5801886792453"/>
    </contour>
  </outline>
</glyph>
